G04 #@! TF.GenerationSoftware,KiCad,Pcbnew,no-vcs-found-01f5a12~58~ubuntu14.04.1*
G04 #@! TF.CreationDate,2017-05-04T16:20:22+02:00*
G04 #@! TF.ProjectId,leddy,6C656464792E6B696361645F70636200,rev?*
G04 #@! TF.FileFunction,Legend,Top*
G04 #@! TF.FilePolarity,Positive*
%FSLAX46Y46*%
G04 Gerber Fmt 4.6, Leading zero omitted, Abs format (unit mm)*
G04 Created by KiCad (PCBNEW no-vcs-found-01f5a12~58~ubuntu14.04.1) date Thu May  4 16:20:22 2017*
%MOMM*%
%LPD*%
G01*
G04 APERTURE LIST*
%ADD10C,0.100000*%
%ADD11C,0.300000*%
%ADD12C,0.010000*%
%ADD13C,0.120000*%
%ADD14C,0.150000*%
%ADD15C,0.203200*%
%ADD16C,0.254000*%
G04 APERTURE END LIST*
D10*
D11*
X208942857Y-76228571D02*
X208942857Y-75771428D01*
X209742857Y-76057142D02*
X208714285Y-76057142D01*
X208600000Y-76000000D01*
X208542857Y-75885714D01*
X208542857Y-75771428D01*
X209742857Y-75200000D02*
X209685714Y-75314285D01*
X209628571Y-75371428D01*
X209514285Y-75428571D01*
X209171428Y-75428571D01*
X209057142Y-75371428D01*
X209000000Y-75314285D01*
X208942857Y-75200000D01*
X208942857Y-75028571D01*
X209000000Y-74914285D01*
X209057142Y-74857142D01*
X209171428Y-74800000D01*
X209514285Y-74800000D01*
X209628571Y-74857142D01*
X209685714Y-74914285D01*
X209742857Y-75028571D01*
X209742857Y-75200000D01*
X209685714Y-73771428D02*
X209742857Y-73885714D01*
X209742857Y-74114285D01*
X209685714Y-74228571D01*
X209628571Y-74285714D01*
X209514285Y-74342857D01*
X209171428Y-74342857D01*
X209057142Y-74285714D01*
X209000000Y-74228571D01*
X208942857Y-74114285D01*
X208942857Y-73885714D01*
X209000000Y-73771428D01*
X208942857Y-72742857D02*
X209742857Y-72742857D01*
X208942857Y-73257142D02*
X209571428Y-73257142D01*
X209685714Y-73200000D01*
X209742857Y-73085714D01*
X209742857Y-72914285D01*
X209685714Y-72800000D01*
X209628571Y-72742857D01*
X209685714Y-72228571D02*
X209742857Y-72114285D01*
X209742857Y-71885714D01*
X209685714Y-71771428D01*
X209571428Y-71714285D01*
X209514285Y-71714285D01*
X209400000Y-71771428D01*
X209342857Y-71885714D01*
X209342857Y-72057142D01*
X209285714Y-72171428D01*
X209171428Y-72228571D01*
X209114285Y-72228571D01*
X209000000Y-72171428D01*
X208942857Y-72057142D01*
X208942857Y-71885714D01*
X209000000Y-71771428D01*
X209742857Y-70685714D02*
X209114285Y-70685714D01*
X209000000Y-70742857D01*
X208942857Y-70857142D01*
X208942857Y-71085714D01*
X209000000Y-71200000D01*
X209685714Y-70685714D02*
X209742857Y-70800000D01*
X209742857Y-71085714D01*
X209685714Y-71200000D01*
X209571428Y-71257142D01*
X209457142Y-71257142D01*
X209342857Y-71200000D01*
X209285714Y-71085714D01*
X209285714Y-70800000D01*
X209228571Y-70685714D01*
X208942857Y-70228571D02*
X209742857Y-70000000D01*
X209171428Y-69771428D01*
X209742857Y-69542857D01*
X208942857Y-69314285D01*
X209742857Y-68342857D02*
X209114285Y-68342857D01*
X209000000Y-68400000D01*
X208942857Y-68514285D01*
X208942857Y-68742857D01*
X209000000Y-68857142D01*
X209685714Y-68342857D02*
X209742857Y-68457142D01*
X209742857Y-68742857D01*
X209685714Y-68857142D01*
X209571428Y-68914285D01*
X209457142Y-68914285D01*
X209342857Y-68857142D01*
X209285714Y-68742857D01*
X209285714Y-68457142D01*
X209228571Y-68342857D01*
X208942857Y-67885714D02*
X209742857Y-67600000D01*
X208942857Y-67314285D02*
X209742857Y-67600000D01*
X210028571Y-67714285D01*
X210085714Y-67771428D01*
X210142857Y-67885714D01*
X209628571Y-66857142D02*
X209685714Y-66800000D01*
X209742857Y-66857142D01*
X209685714Y-66914285D01*
X209628571Y-66857142D01*
X209742857Y-66857142D01*
X209685714Y-65771428D02*
X209742857Y-65885714D01*
X209742857Y-66114285D01*
X209685714Y-66228571D01*
X209628571Y-66285714D01*
X209514285Y-66342857D01*
X209171428Y-66342857D01*
X209057142Y-66285714D01*
X209000000Y-66228571D01*
X208942857Y-66114285D01*
X208942857Y-65885714D01*
X209000000Y-65771428D01*
X209742857Y-65085714D02*
X209685714Y-65200000D01*
X209628571Y-65257142D01*
X209514285Y-65314285D01*
X209171428Y-65314285D01*
X209057142Y-65257142D01*
X209000000Y-65200000D01*
X208942857Y-65085714D01*
X208942857Y-64914285D01*
X209000000Y-64800000D01*
X209057142Y-64742857D01*
X209171428Y-64685714D01*
X209514285Y-64685714D01*
X209628571Y-64742857D01*
X209685714Y-64800000D01*
X209742857Y-64914285D01*
X209742857Y-65085714D01*
X209742857Y-64171428D02*
X208942857Y-64171428D01*
X209057142Y-64171428D02*
X209000000Y-64114285D01*
X208942857Y-64000000D01*
X208942857Y-63828571D01*
X209000000Y-63714285D01*
X209114285Y-63657142D01*
X209742857Y-63657142D01*
X209114285Y-63657142D02*
X209000000Y-63600000D01*
X208942857Y-63485714D01*
X208942857Y-63314285D01*
X209000000Y-63200000D01*
X209114285Y-63142857D01*
X209742857Y-63142857D01*
D12*
G36*
X151398872Y-59915744D02*
X151434983Y-59652575D01*
X151494910Y-59392878D01*
X151560535Y-59187772D01*
X151666325Y-58931853D01*
X151794094Y-58687580D01*
X151942939Y-58456162D01*
X152111958Y-58238811D01*
X152300249Y-58036734D01*
X152506909Y-57851142D01*
X152628088Y-57756522D01*
X152673156Y-57723068D01*
X152854424Y-57983476D01*
X152903954Y-58055192D01*
X152948325Y-58120515D01*
X152985598Y-58176502D01*
X153013833Y-58220210D01*
X153031092Y-58248696D01*
X153035693Y-58258598D01*
X153026301Y-58273099D01*
X153001697Y-58296877D01*
X152967800Y-58324325D01*
X152797816Y-58467206D01*
X152640579Y-58629754D01*
X152497958Y-58808964D01*
X152371818Y-59001829D01*
X152264029Y-59205345D01*
X152176457Y-59416504D01*
X152110970Y-59632302D01*
X152086844Y-59742297D01*
X152053363Y-59982963D01*
X152044217Y-60223002D01*
X152058889Y-60460705D01*
X152096861Y-60694363D01*
X152157618Y-60922270D01*
X152240642Y-61142717D01*
X152345416Y-61353994D01*
X152471424Y-61554395D01*
X152618148Y-61742211D01*
X152727568Y-61859937D01*
X152909624Y-62025706D01*
X153103671Y-62169395D01*
X153309802Y-62291049D01*
X153528108Y-62390714D01*
X153758680Y-62468438D01*
X154001610Y-62524266D01*
X154060499Y-62534213D01*
X154157379Y-62545559D01*
X154270783Y-62552486D01*
X154392636Y-62554991D01*
X154514862Y-62553070D01*
X154629384Y-62546722D01*
X154728126Y-62535943D01*
X154737789Y-62534469D01*
X154980493Y-62484095D01*
X155213307Y-62411559D01*
X155434956Y-62317667D01*
X155644164Y-62203224D01*
X155839658Y-62069035D01*
X156020161Y-61915905D01*
X156184399Y-61744638D01*
X156331096Y-61556041D01*
X156363926Y-61507722D01*
X156488025Y-61297975D01*
X156589266Y-61079554D01*
X156667417Y-60854151D01*
X156722247Y-60623460D01*
X156753523Y-60389171D01*
X156761015Y-60152977D01*
X156744490Y-59916569D01*
X156703717Y-59681639D01*
X156643581Y-59465197D01*
X156555388Y-59237461D01*
X156445446Y-59021548D01*
X156314717Y-58818845D01*
X156164161Y-58630737D01*
X155994741Y-58458611D01*
X155873836Y-58355061D01*
X155757029Y-58261660D01*
X155799058Y-58202884D01*
X155819575Y-58173874D01*
X155851308Y-58128610D01*
X155891166Y-58071521D01*
X155936058Y-58007035D01*
X155982754Y-57939777D01*
X156026501Y-57877220D01*
X156065552Y-57822405D01*
X156097618Y-57778459D01*
X156120410Y-57748513D01*
X156131640Y-57735697D01*
X156132202Y-57735445D01*
X156149257Y-57743476D01*
X156181416Y-57765679D01*
X156225259Y-57799218D01*
X156277364Y-57841256D01*
X156334311Y-57888957D01*
X156392677Y-57939486D01*
X156449043Y-57990005D01*
X156499988Y-58037680D01*
X156518319Y-58055552D01*
X156707021Y-58259398D01*
X156874233Y-58475877D01*
X157019550Y-58704024D01*
X157142570Y-58942874D01*
X157242889Y-59191461D01*
X157320101Y-59448819D01*
X157373804Y-59713984D01*
X157403594Y-59985989D01*
X157410009Y-60187425D01*
X157401123Y-60443699D01*
X157373925Y-60686153D01*
X157327366Y-60919254D01*
X157260401Y-61147468D01*
X157171983Y-61375259D01*
X157090949Y-61548534D01*
X156957788Y-61787073D01*
X156804378Y-62011248D01*
X156631867Y-62219904D01*
X156441403Y-62411883D01*
X156234133Y-62586027D01*
X156011206Y-62741180D01*
X155773868Y-62876135D01*
X155526949Y-62989227D01*
X155276394Y-63078205D01*
X155019067Y-63144096D01*
X154877107Y-63170293D01*
X154701682Y-63198492D01*
X154708070Y-66241930D01*
X154796089Y-66251432D01*
X155009191Y-66284346D01*
X155229042Y-66336827D01*
X155449657Y-66406756D01*
X155665049Y-66492014D01*
X155869234Y-66590482D01*
X156047228Y-66694240D01*
X156188520Y-66791951D01*
X156331369Y-66903809D01*
X156470155Y-67024788D01*
X156599258Y-67149861D01*
X156713056Y-67274001D01*
X156761737Y-67333232D01*
X156923770Y-67558571D01*
X157062626Y-67793664D01*
X157178289Y-68038465D01*
X157270744Y-68292929D01*
X157339973Y-68557010D01*
X157385961Y-68830664D01*
X157408692Y-69113844D01*
X157410449Y-69171732D01*
X157411815Y-69248547D01*
X157412465Y-69320133D01*
X157412398Y-69381259D01*
X157411615Y-69426699D01*
X157410459Y-69448366D01*
X157391313Y-69618838D01*
X157369320Y-69770515D01*
X157343227Y-69909697D01*
X157311783Y-70042687D01*
X157273736Y-70175787D01*
X157253095Y-70240544D01*
X157157922Y-70491003D01*
X157041341Y-70729277D01*
X156904491Y-70954320D01*
X156748512Y-71165087D01*
X156574541Y-71360533D01*
X156383718Y-71539612D01*
X156177183Y-71701277D01*
X155956073Y-71844485D01*
X155721529Y-71968188D01*
X155474689Y-72071342D01*
X155216692Y-72152901D01*
X155151783Y-72169501D01*
X155040579Y-72195396D01*
X154940777Y-72215476D01*
X154846295Y-72230408D01*
X154751052Y-72240860D01*
X154648966Y-72247499D01*
X154533958Y-72250993D01*
X154400000Y-72252008D01*
X154393713Y-72251961D01*
X154393713Y-71592277D01*
X154643496Y-71580589D01*
X154885570Y-71545747D01*
X155118899Y-71488088D01*
X155342444Y-71407945D01*
X155555171Y-71305653D01*
X155756040Y-71181549D01*
X155829281Y-71128562D01*
X156010349Y-70976416D01*
X156173641Y-70807296D01*
X156318261Y-70622872D01*
X156443313Y-70424812D01*
X156547901Y-70214783D01*
X156631129Y-69994455D01*
X156692102Y-69765495D01*
X156729924Y-69529571D01*
X156738223Y-69435792D01*
X156742248Y-69376993D01*
X156745769Y-69325609D01*
X156748348Y-69288000D01*
X156749427Y-69272326D01*
X156749184Y-69250981D01*
X156747311Y-69209949D01*
X156744099Y-69154617D01*
X156739841Y-69090374D01*
X156738524Y-69071841D01*
X156709016Y-68827380D01*
X156657086Y-68592608D01*
X156583783Y-68368570D01*
X156490152Y-68156314D01*
X156377241Y-67956886D01*
X156246096Y-67771332D01*
X156097765Y-67600700D01*
X155933294Y-67446035D01*
X155753730Y-67308384D01*
X155560120Y-67188794D01*
X155353511Y-67088311D01*
X155134949Y-67007981D01*
X154905482Y-66948851D01*
X154666157Y-66911969D01*
X154569753Y-66903799D01*
X154320720Y-66899129D01*
X154077934Y-66917617D01*
X153842640Y-66958571D01*
X153616084Y-67021300D01*
X153399512Y-67105113D01*
X153194169Y-67209318D01*
X153001300Y-67333224D01*
X152822152Y-67476140D01*
X152657969Y-67637374D01*
X152509996Y-67816236D01*
X152379481Y-68012033D01*
X152295549Y-68166054D01*
X152200547Y-68384917D01*
X152128267Y-68612286D01*
X152078726Y-68845855D01*
X152051938Y-69083323D01*
X152047919Y-69322385D01*
X152066685Y-69560736D01*
X152108252Y-69796074D01*
X152172634Y-70026095D01*
X152259848Y-70248494D01*
X152281188Y-70294271D01*
X152395248Y-70503883D01*
X152528051Y-70697469D01*
X152678348Y-70874261D01*
X152844892Y-71033495D01*
X153026436Y-71174402D01*
X153221731Y-71296216D01*
X153429530Y-71398171D01*
X153648587Y-71479501D01*
X153877652Y-71539438D01*
X154115479Y-71577216D01*
X154360821Y-71592070D01*
X154393713Y-71592277D01*
X154393713Y-72251961D01*
X154266165Y-72250991D01*
X154151286Y-72247509D01*
X154049237Y-72240919D01*
X153953894Y-72230579D01*
X153859131Y-72215845D01*
X153758820Y-72196075D01*
X153664406Y-72174779D01*
X153402510Y-72100651D01*
X153151871Y-72004584D01*
X152913511Y-71887615D01*
X152688452Y-71750777D01*
X152477719Y-71595105D01*
X152282333Y-71421632D01*
X152103316Y-71231395D01*
X151941693Y-71025425D01*
X151798484Y-70804760D01*
X151674713Y-70570432D01*
X151571403Y-70323476D01*
X151489576Y-70064926D01*
X151460030Y-69945049D01*
X151437696Y-69841728D01*
X151420410Y-69750281D01*
X151407575Y-69664751D01*
X151398593Y-69579180D01*
X151392868Y-69487608D01*
X151389800Y-69384078D01*
X151388794Y-69262632D01*
X151388788Y-69234604D01*
X151390009Y-69099914D01*
X151393863Y-68984027D01*
X151401015Y-68880673D01*
X151412124Y-68783585D01*
X151427852Y-68686493D01*
X151448862Y-68583129D01*
X151465019Y-68512345D01*
X151534558Y-68266823D01*
X151625906Y-68025035D01*
X151736974Y-67791406D01*
X151865669Y-67570362D01*
X152000851Y-67378007D01*
X152075786Y-67286506D01*
X152164086Y-67188030D01*
X152259408Y-67089098D01*
X152355405Y-66996233D01*
X152445730Y-66915956D01*
X152469852Y-66896047D01*
X152675264Y-66744923D01*
X152895871Y-66610609D01*
X153128154Y-66494631D01*
X153368592Y-66398516D01*
X153613665Y-66323789D01*
X153859854Y-66271976D01*
X153934753Y-66260949D01*
X153987446Y-66253751D01*
X154033363Y-66247050D01*
X154064603Y-66242012D01*
X154069926Y-66241000D01*
X154098218Y-66235164D01*
X154098218Y-63192673D01*
X154068411Y-63192673D01*
X154035940Y-63190028D01*
X153984545Y-63182783D01*
X153919813Y-63171976D01*
X153847329Y-63158641D01*
X153772678Y-63143815D01*
X153701447Y-63128534D01*
X153639221Y-63113835D01*
X153628171Y-63111010D01*
X153379725Y-63033687D01*
X153137303Y-62933013D01*
X152903058Y-62810485D01*
X152679139Y-62667601D01*
X152467697Y-62505857D01*
X152270883Y-62326752D01*
X152090848Y-62131781D01*
X151938247Y-61934549D01*
X151792562Y-61707065D01*
X151668752Y-61468951D01*
X151567062Y-61221970D01*
X151487732Y-60967883D01*
X151431006Y-60708455D01*
X151397125Y-60445447D01*
X151386333Y-60180622D01*
X151398872Y-59915744D01*
X151398872Y-59915744D01*
G37*
X151398872Y-59915744D02*
X151434983Y-59652575D01*
X151494910Y-59392878D01*
X151560535Y-59187772D01*
X151666325Y-58931853D01*
X151794094Y-58687580D01*
X151942939Y-58456162D01*
X152111958Y-58238811D01*
X152300249Y-58036734D01*
X152506909Y-57851142D01*
X152628088Y-57756522D01*
X152673156Y-57723068D01*
X152854424Y-57983476D01*
X152903954Y-58055192D01*
X152948325Y-58120515D01*
X152985598Y-58176502D01*
X153013833Y-58220210D01*
X153031092Y-58248696D01*
X153035693Y-58258598D01*
X153026301Y-58273099D01*
X153001697Y-58296877D01*
X152967800Y-58324325D01*
X152797816Y-58467206D01*
X152640579Y-58629754D01*
X152497958Y-58808964D01*
X152371818Y-59001829D01*
X152264029Y-59205345D01*
X152176457Y-59416504D01*
X152110970Y-59632302D01*
X152086844Y-59742297D01*
X152053363Y-59982963D01*
X152044217Y-60223002D01*
X152058889Y-60460705D01*
X152096861Y-60694363D01*
X152157618Y-60922270D01*
X152240642Y-61142717D01*
X152345416Y-61353994D01*
X152471424Y-61554395D01*
X152618148Y-61742211D01*
X152727568Y-61859937D01*
X152909624Y-62025706D01*
X153103671Y-62169395D01*
X153309802Y-62291049D01*
X153528108Y-62390714D01*
X153758680Y-62468438D01*
X154001610Y-62524266D01*
X154060499Y-62534213D01*
X154157379Y-62545559D01*
X154270783Y-62552486D01*
X154392636Y-62554991D01*
X154514862Y-62553070D01*
X154629384Y-62546722D01*
X154728126Y-62535943D01*
X154737789Y-62534469D01*
X154980493Y-62484095D01*
X155213307Y-62411559D01*
X155434956Y-62317667D01*
X155644164Y-62203224D01*
X155839658Y-62069035D01*
X156020161Y-61915905D01*
X156184399Y-61744638D01*
X156331096Y-61556041D01*
X156363926Y-61507722D01*
X156488025Y-61297975D01*
X156589266Y-61079554D01*
X156667417Y-60854151D01*
X156722247Y-60623460D01*
X156753523Y-60389171D01*
X156761015Y-60152977D01*
X156744490Y-59916569D01*
X156703717Y-59681639D01*
X156643581Y-59465197D01*
X156555388Y-59237461D01*
X156445446Y-59021548D01*
X156314717Y-58818845D01*
X156164161Y-58630737D01*
X155994741Y-58458611D01*
X155873836Y-58355061D01*
X155757029Y-58261660D01*
X155799058Y-58202884D01*
X155819575Y-58173874D01*
X155851308Y-58128610D01*
X155891166Y-58071521D01*
X155936058Y-58007035D01*
X155982754Y-57939777D01*
X156026501Y-57877220D01*
X156065552Y-57822405D01*
X156097618Y-57778459D01*
X156120410Y-57748513D01*
X156131640Y-57735697D01*
X156132202Y-57735445D01*
X156149257Y-57743476D01*
X156181416Y-57765679D01*
X156225259Y-57799218D01*
X156277364Y-57841256D01*
X156334311Y-57888957D01*
X156392677Y-57939486D01*
X156449043Y-57990005D01*
X156499988Y-58037680D01*
X156518319Y-58055552D01*
X156707021Y-58259398D01*
X156874233Y-58475877D01*
X157019550Y-58704024D01*
X157142570Y-58942874D01*
X157242889Y-59191461D01*
X157320101Y-59448819D01*
X157373804Y-59713984D01*
X157403594Y-59985989D01*
X157410009Y-60187425D01*
X157401123Y-60443699D01*
X157373925Y-60686153D01*
X157327366Y-60919254D01*
X157260401Y-61147468D01*
X157171983Y-61375259D01*
X157090949Y-61548534D01*
X156957788Y-61787073D01*
X156804378Y-62011248D01*
X156631867Y-62219904D01*
X156441403Y-62411883D01*
X156234133Y-62586027D01*
X156011206Y-62741180D01*
X155773868Y-62876135D01*
X155526949Y-62989227D01*
X155276394Y-63078205D01*
X155019067Y-63144096D01*
X154877107Y-63170293D01*
X154701682Y-63198492D01*
X154708070Y-66241930D01*
X154796089Y-66251432D01*
X155009191Y-66284346D01*
X155229042Y-66336827D01*
X155449657Y-66406756D01*
X155665049Y-66492014D01*
X155869234Y-66590482D01*
X156047228Y-66694240D01*
X156188520Y-66791951D01*
X156331369Y-66903809D01*
X156470155Y-67024788D01*
X156599258Y-67149861D01*
X156713056Y-67274001D01*
X156761737Y-67333232D01*
X156923770Y-67558571D01*
X157062626Y-67793664D01*
X157178289Y-68038465D01*
X157270744Y-68292929D01*
X157339973Y-68557010D01*
X157385961Y-68830664D01*
X157408692Y-69113844D01*
X157410449Y-69171732D01*
X157411815Y-69248547D01*
X157412465Y-69320133D01*
X157412398Y-69381259D01*
X157411615Y-69426699D01*
X157410459Y-69448366D01*
X157391313Y-69618838D01*
X157369320Y-69770515D01*
X157343227Y-69909697D01*
X157311783Y-70042687D01*
X157273736Y-70175787D01*
X157253095Y-70240544D01*
X157157922Y-70491003D01*
X157041341Y-70729277D01*
X156904491Y-70954320D01*
X156748512Y-71165087D01*
X156574541Y-71360533D01*
X156383718Y-71539612D01*
X156177183Y-71701277D01*
X155956073Y-71844485D01*
X155721529Y-71968188D01*
X155474689Y-72071342D01*
X155216692Y-72152901D01*
X155151783Y-72169501D01*
X155040579Y-72195396D01*
X154940777Y-72215476D01*
X154846295Y-72230408D01*
X154751052Y-72240860D01*
X154648966Y-72247499D01*
X154533958Y-72250993D01*
X154400000Y-72252008D01*
X154393713Y-72251961D01*
X154393713Y-71592277D01*
X154643496Y-71580589D01*
X154885570Y-71545747D01*
X155118899Y-71488088D01*
X155342444Y-71407945D01*
X155555171Y-71305653D01*
X155756040Y-71181549D01*
X155829281Y-71128562D01*
X156010349Y-70976416D01*
X156173641Y-70807296D01*
X156318261Y-70622872D01*
X156443313Y-70424812D01*
X156547901Y-70214783D01*
X156631129Y-69994455D01*
X156692102Y-69765495D01*
X156729924Y-69529571D01*
X156738223Y-69435792D01*
X156742248Y-69376993D01*
X156745769Y-69325609D01*
X156748348Y-69288000D01*
X156749427Y-69272326D01*
X156749184Y-69250981D01*
X156747311Y-69209949D01*
X156744099Y-69154617D01*
X156739841Y-69090374D01*
X156738524Y-69071841D01*
X156709016Y-68827380D01*
X156657086Y-68592608D01*
X156583783Y-68368570D01*
X156490152Y-68156314D01*
X156377241Y-67956886D01*
X156246096Y-67771332D01*
X156097765Y-67600700D01*
X155933294Y-67446035D01*
X155753730Y-67308384D01*
X155560120Y-67188794D01*
X155353511Y-67088311D01*
X155134949Y-67007981D01*
X154905482Y-66948851D01*
X154666157Y-66911969D01*
X154569753Y-66903799D01*
X154320720Y-66899129D01*
X154077934Y-66917617D01*
X153842640Y-66958571D01*
X153616084Y-67021300D01*
X153399512Y-67105113D01*
X153194169Y-67209318D01*
X153001300Y-67333224D01*
X152822152Y-67476140D01*
X152657969Y-67637374D01*
X152509996Y-67816236D01*
X152379481Y-68012033D01*
X152295549Y-68166054D01*
X152200547Y-68384917D01*
X152128267Y-68612286D01*
X152078726Y-68845855D01*
X152051938Y-69083323D01*
X152047919Y-69322385D01*
X152066685Y-69560736D01*
X152108252Y-69796074D01*
X152172634Y-70026095D01*
X152259848Y-70248494D01*
X152281188Y-70294271D01*
X152395248Y-70503883D01*
X152528051Y-70697469D01*
X152678348Y-70874261D01*
X152844892Y-71033495D01*
X153026436Y-71174402D01*
X153221731Y-71296216D01*
X153429530Y-71398171D01*
X153648587Y-71479501D01*
X153877652Y-71539438D01*
X154115479Y-71577216D01*
X154360821Y-71592070D01*
X154393713Y-71592277D01*
X154393713Y-72251961D01*
X154266165Y-72250991D01*
X154151286Y-72247509D01*
X154049237Y-72240919D01*
X153953894Y-72230579D01*
X153859131Y-72215845D01*
X153758820Y-72196075D01*
X153664406Y-72174779D01*
X153402510Y-72100651D01*
X153151871Y-72004584D01*
X152913511Y-71887615D01*
X152688452Y-71750777D01*
X152477719Y-71595105D01*
X152282333Y-71421632D01*
X152103316Y-71231395D01*
X151941693Y-71025425D01*
X151798484Y-70804760D01*
X151674713Y-70570432D01*
X151571403Y-70323476D01*
X151489576Y-70064926D01*
X151460030Y-69945049D01*
X151437696Y-69841728D01*
X151420410Y-69750281D01*
X151407575Y-69664751D01*
X151398593Y-69579180D01*
X151392868Y-69487608D01*
X151389800Y-69384078D01*
X151388794Y-69262632D01*
X151388788Y-69234604D01*
X151390009Y-69099914D01*
X151393863Y-68984027D01*
X151401015Y-68880673D01*
X151412124Y-68783585D01*
X151427852Y-68686493D01*
X151448862Y-68583129D01*
X151465019Y-68512345D01*
X151534558Y-68266823D01*
X151625906Y-68025035D01*
X151736974Y-67791406D01*
X151865669Y-67570362D01*
X152000851Y-67378007D01*
X152075786Y-67286506D01*
X152164086Y-67188030D01*
X152259408Y-67089098D01*
X152355405Y-66996233D01*
X152445730Y-66915956D01*
X152469852Y-66896047D01*
X152675264Y-66744923D01*
X152895871Y-66610609D01*
X153128154Y-66494631D01*
X153368592Y-66398516D01*
X153613665Y-66323789D01*
X153859854Y-66271976D01*
X153934753Y-66260949D01*
X153987446Y-66253751D01*
X154033363Y-66247050D01*
X154064603Y-66242012D01*
X154069926Y-66241000D01*
X154098218Y-66235164D01*
X154098218Y-63192673D01*
X154068411Y-63192673D01*
X154035940Y-63190028D01*
X153984545Y-63182783D01*
X153919813Y-63171976D01*
X153847329Y-63158641D01*
X153772678Y-63143815D01*
X153701447Y-63128534D01*
X153639221Y-63113835D01*
X153628171Y-63111010D01*
X153379725Y-63033687D01*
X153137303Y-62933013D01*
X152903058Y-62810485D01*
X152679139Y-62667601D01*
X152467697Y-62505857D01*
X152270883Y-62326752D01*
X152090848Y-62131781D01*
X151938247Y-61934549D01*
X151792562Y-61707065D01*
X151668752Y-61468951D01*
X151567062Y-61221970D01*
X151487732Y-60967883D01*
X151431006Y-60708455D01*
X151397125Y-60445447D01*
X151386333Y-60180622D01*
X151398872Y-59915744D01*
G36*
X151385352Y-51025143D02*
X151389561Y-50915976D01*
X151393539Y-50862719D01*
X151430082Y-50594538D01*
X151489392Y-50331342D01*
X151570554Y-50075379D01*
X151672654Y-49828897D01*
X151794776Y-49594145D01*
X151936007Y-49373370D01*
X152071108Y-49197524D01*
X152253650Y-48998399D01*
X152452612Y-48817957D01*
X152666754Y-48656979D01*
X152894838Y-48516245D01*
X153135623Y-48396532D01*
X153387869Y-48298620D01*
X153601549Y-48235364D01*
X153856313Y-48181602D01*
X154118125Y-48148398D01*
X154382526Y-48135843D01*
X154645057Y-48144030D01*
X154901257Y-48173050D01*
X155071311Y-48205113D01*
X155340062Y-48276908D01*
X155597173Y-48370324D01*
X155841710Y-48484731D01*
X156072735Y-48619499D01*
X156289311Y-48773998D01*
X156490501Y-48947597D01*
X156675370Y-49139668D01*
X156842980Y-49349580D01*
X156904804Y-49438134D01*
X157045671Y-49669936D01*
X157163787Y-49911925D01*
X157259355Y-50164626D01*
X157332574Y-50428566D01*
X157380834Y-50684893D01*
X157388743Y-50749334D01*
X157396003Y-50828923D01*
X157402373Y-50918322D01*
X157407614Y-51012193D01*
X157411484Y-51105196D01*
X157413745Y-51191993D01*
X157414155Y-51267245D01*
X157412474Y-51325614D01*
X157410670Y-51347722D01*
X157407233Y-51378934D01*
X157402019Y-51427447D01*
X157395854Y-51485549D01*
X157391837Y-51523762D01*
X157353789Y-51772235D01*
X157292397Y-52021053D01*
X157209154Y-52266628D01*
X157105555Y-52505371D01*
X156983096Y-52733696D01*
X156843269Y-52948015D01*
X156744941Y-53076683D01*
X156674354Y-53158737D01*
X156590585Y-53248605D01*
X156500408Y-53339491D01*
X156410595Y-53424593D01*
X156327921Y-53497115D01*
X156317575Y-53505654D01*
X156119178Y-53652453D01*
X155903255Y-53783364D01*
X155672735Y-53897128D01*
X155430547Y-53992489D01*
X155179620Y-54068187D01*
X154922882Y-54122964D01*
X154855817Y-54133583D01*
X154701782Y-54156222D01*
X154701782Y-56486921D01*
X154701813Y-56781443D01*
X154701908Y-57051726D01*
X154702075Y-57298680D01*
X154702318Y-57523214D01*
X154702645Y-57726238D01*
X154703061Y-57908661D01*
X154703573Y-58071394D01*
X154704186Y-58215345D01*
X154704907Y-58341424D01*
X154705742Y-58450541D01*
X154706697Y-58543606D01*
X154707778Y-58621527D01*
X154708992Y-58685215D01*
X154710343Y-58735579D01*
X154711840Y-58773529D01*
X154713486Y-58799974D01*
X154715290Y-58815824D01*
X154717256Y-58821989D01*
X154717500Y-58822120D01*
X154876421Y-58872827D01*
X155014878Y-58928895D01*
X155137391Y-58992807D01*
X155248478Y-59067043D01*
X155352660Y-59154085D01*
X155393825Y-59193453D01*
X155513268Y-59328728D01*
X155612215Y-59476164D01*
X155690661Y-59633467D01*
X155748604Y-59798342D01*
X155786040Y-59968494D01*
X155802966Y-60141628D01*
X155799379Y-60315450D01*
X155775275Y-60487664D01*
X155730650Y-60655977D01*
X155665503Y-60818093D01*
X155579829Y-60971717D01*
X155473625Y-61114555D01*
X155396705Y-61197447D01*
X155258261Y-61319461D01*
X155112292Y-61418275D01*
X154956607Y-61495267D01*
X154872636Y-61526614D01*
X154691073Y-61575202D01*
X154508158Y-61600427D01*
X154404344Y-61601845D01*
X154404344Y-53497920D01*
X154647590Y-53487239D01*
X154879902Y-53454801D01*
X155103923Y-53400020D01*
X155322297Y-53322306D01*
X155449951Y-53265272D01*
X155657535Y-53151884D01*
X155849778Y-53019258D01*
X156025814Y-52868723D01*
X156184775Y-52701607D01*
X156325794Y-52519239D01*
X156448002Y-52322947D01*
X156550533Y-52114060D01*
X156632520Y-51893907D01*
X156693094Y-51663815D01*
X156731388Y-51425115D01*
X156742962Y-51284851D01*
X156745526Y-51239507D01*
X156747920Y-51199896D01*
X156748950Y-51184257D01*
X156748885Y-51160364D01*
X156747147Y-51117104D01*
X156744021Y-51060183D01*
X156739792Y-50995305D01*
X156738769Y-50980914D01*
X156709097Y-50734058D01*
X156656947Y-50497185D01*
X156583209Y-50271321D01*
X156488772Y-50057491D01*
X156374528Y-49856722D01*
X156241366Y-49670038D01*
X156090176Y-49498466D01*
X155921849Y-49343030D01*
X155737274Y-49204757D01*
X155537342Y-49084672D01*
X155322942Y-48983801D01*
X155094965Y-48903169D01*
X154890396Y-48851147D01*
X154796023Y-48835222D01*
X154683696Y-48822662D01*
X154560418Y-48813747D01*
X154433195Y-48808756D01*
X154309030Y-48807969D01*
X154194927Y-48811665D01*
X154101572Y-48819664D01*
X153855427Y-48861821D01*
X153620657Y-48926150D01*
X153397915Y-49012254D01*
X153187853Y-49119734D01*
X152991126Y-49248192D01*
X152808387Y-49397231D01*
X152640288Y-49566451D01*
X152487483Y-49755455D01*
X152429246Y-49838812D01*
X152315361Y-50031130D01*
X152221185Y-50236868D01*
X152147041Y-50453426D01*
X152093255Y-50678205D01*
X152060149Y-50908604D01*
X152048048Y-51142023D01*
X152057274Y-51375863D01*
X152088153Y-51607522D01*
X152141007Y-51834402D01*
X152169337Y-51926138D01*
X152256375Y-52149560D01*
X152363986Y-52359402D01*
X152490996Y-52554717D01*
X152636231Y-52734554D01*
X152798517Y-52897966D01*
X152976681Y-53044004D01*
X153169549Y-53171719D01*
X153375947Y-53280164D01*
X153594701Y-53368388D01*
X153824637Y-53435444D01*
X154064582Y-53480383D01*
X154097888Y-53484730D01*
X154149574Y-53489468D01*
X154218586Y-53493451D01*
X154297106Y-53496343D01*
X154377316Y-53497808D01*
X154404344Y-53497920D01*
X154404344Y-61601845D01*
X154326057Y-61602915D01*
X154146936Y-61583295D01*
X153972961Y-61542196D01*
X153806296Y-61480244D01*
X153649108Y-61398068D01*
X153503563Y-61296295D01*
X153371826Y-61175555D01*
X153276353Y-61063789D01*
X153176549Y-60912718D01*
X153098111Y-60750818D01*
X153041103Y-60580623D01*
X153005588Y-60404671D01*
X152991630Y-60225498D01*
X152999292Y-60045638D01*
X153028637Y-59867628D01*
X153079728Y-59694004D01*
X153152631Y-59527302D01*
X153234461Y-59388960D01*
X153265287Y-59347436D01*
X153307642Y-59296063D01*
X153355030Y-59242527D01*
X153385791Y-59209865D01*
X153503370Y-59101129D01*
X153629455Y-59009704D01*
X153767868Y-58933459D01*
X153922432Y-58870266D01*
X154082500Y-58821741D01*
X154084486Y-58816714D01*
X154086308Y-58802112D01*
X154087973Y-58777026D01*
X154089486Y-58740547D01*
X154090854Y-58691764D01*
X154092084Y-58629769D01*
X154093180Y-58553652D01*
X154094150Y-58462504D01*
X154094998Y-58355415D01*
X154095733Y-58231476D01*
X154096359Y-58089778D01*
X154096882Y-57929412D01*
X154097310Y-57749467D01*
X154097647Y-57549035D01*
X154097900Y-57327206D01*
X154098076Y-57083070D01*
X154098179Y-56815719D01*
X154098218Y-56524243D01*
X154098218Y-54154251D01*
X154019629Y-54145623D01*
X153861944Y-54122577D01*
X153692647Y-54087672D01*
X153520886Y-54043245D01*
X153355810Y-53991629D01*
X153225507Y-53943000D01*
X152977705Y-53828703D01*
X152744560Y-53694454D01*
X152526879Y-53541293D01*
X152325468Y-53370261D01*
X152141134Y-53182397D01*
X151974686Y-52978741D01*
X151826930Y-52760335D01*
X151698674Y-52528217D01*
X151590724Y-52283427D01*
X151503888Y-52027007D01*
X151438973Y-51759995D01*
X151412635Y-51607164D01*
X151401374Y-51510876D01*
X151392824Y-51397047D01*
X151387175Y-51273160D01*
X151384620Y-51146698D01*
X151385352Y-51025143D01*
X151385352Y-51025143D01*
G37*
X151385352Y-51025143D02*
X151389561Y-50915976D01*
X151393539Y-50862719D01*
X151430082Y-50594538D01*
X151489392Y-50331342D01*
X151570554Y-50075379D01*
X151672654Y-49828897D01*
X151794776Y-49594145D01*
X151936007Y-49373370D01*
X152071108Y-49197524D01*
X152253650Y-48998399D01*
X152452612Y-48817957D01*
X152666754Y-48656979D01*
X152894838Y-48516245D01*
X153135623Y-48396532D01*
X153387869Y-48298620D01*
X153601549Y-48235364D01*
X153856313Y-48181602D01*
X154118125Y-48148398D01*
X154382526Y-48135843D01*
X154645057Y-48144030D01*
X154901257Y-48173050D01*
X155071311Y-48205113D01*
X155340062Y-48276908D01*
X155597173Y-48370324D01*
X155841710Y-48484731D01*
X156072735Y-48619499D01*
X156289311Y-48773998D01*
X156490501Y-48947597D01*
X156675370Y-49139668D01*
X156842980Y-49349580D01*
X156904804Y-49438134D01*
X157045671Y-49669936D01*
X157163787Y-49911925D01*
X157259355Y-50164626D01*
X157332574Y-50428566D01*
X157380834Y-50684893D01*
X157388743Y-50749334D01*
X157396003Y-50828923D01*
X157402373Y-50918322D01*
X157407614Y-51012193D01*
X157411484Y-51105196D01*
X157413745Y-51191993D01*
X157414155Y-51267245D01*
X157412474Y-51325614D01*
X157410670Y-51347722D01*
X157407233Y-51378934D01*
X157402019Y-51427447D01*
X157395854Y-51485549D01*
X157391837Y-51523762D01*
X157353789Y-51772235D01*
X157292397Y-52021053D01*
X157209154Y-52266628D01*
X157105555Y-52505371D01*
X156983096Y-52733696D01*
X156843269Y-52948015D01*
X156744941Y-53076683D01*
X156674354Y-53158737D01*
X156590585Y-53248605D01*
X156500408Y-53339491D01*
X156410595Y-53424593D01*
X156327921Y-53497115D01*
X156317575Y-53505654D01*
X156119178Y-53652453D01*
X155903255Y-53783364D01*
X155672735Y-53897128D01*
X155430547Y-53992489D01*
X155179620Y-54068187D01*
X154922882Y-54122964D01*
X154855817Y-54133583D01*
X154701782Y-54156222D01*
X154701782Y-56486921D01*
X154701813Y-56781443D01*
X154701908Y-57051726D01*
X154702075Y-57298680D01*
X154702318Y-57523214D01*
X154702645Y-57726238D01*
X154703061Y-57908661D01*
X154703573Y-58071394D01*
X154704186Y-58215345D01*
X154704907Y-58341424D01*
X154705742Y-58450541D01*
X154706697Y-58543606D01*
X154707778Y-58621527D01*
X154708992Y-58685215D01*
X154710343Y-58735579D01*
X154711840Y-58773529D01*
X154713486Y-58799974D01*
X154715290Y-58815824D01*
X154717256Y-58821989D01*
X154717500Y-58822120D01*
X154876421Y-58872827D01*
X155014878Y-58928895D01*
X155137391Y-58992807D01*
X155248478Y-59067043D01*
X155352660Y-59154085D01*
X155393825Y-59193453D01*
X155513268Y-59328728D01*
X155612215Y-59476164D01*
X155690661Y-59633467D01*
X155748604Y-59798342D01*
X155786040Y-59968494D01*
X155802966Y-60141628D01*
X155799379Y-60315450D01*
X155775275Y-60487664D01*
X155730650Y-60655977D01*
X155665503Y-60818093D01*
X155579829Y-60971717D01*
X155473625Y-61114555D01*
X155396705Y-61197447D01*
X155258261Y-61319461D01*
X155112292Y-61418275D01*
X154956607Y-61495267D01*
X154872636Y-61526614D01*
X154691073Y-61575202D01*
X154508158Y-61600427D01*
X154404344Y-61601845D01*
X154404344Y-53497920D01*
X154647590Y-53487239D01*
X154879902Y-53454801D01*
X155103923Y-53400020D01*
X155322297Y-53322306D01*
X155449951Y-53265272D01*
X155657535Y-53151884D01*
X155849778Y-53019258D01*
X156025814Y-52868723D01*
X156184775Y-52701607D01*
X156325794Y-52519239D01*
X156448002Y-52322947D01*
X156550533Y-52114060D01*
X156632520Y-51893907D01*
X156693094Y-51663815D01*
X156731388Y-51425115D01*
X156742962Y-51284851D01*
X156745526Y-51239507D01*
X156747920Y-51199896D01*
X156748950Y-51184257D01*
X156748885Y-51160364D01*
X156747147Y-51117104D01*
X156744021Y-51060183D01*
X156739792Y-50995305D01*
X156738769Y-50980914D01*
X156709097Y-50734058D01*
X156656947Y-50497185D01*
X156583209Y-50271321D01*
X156488772Y-50057491D01*
X156374528Y-49856722D01*
X156241366Y-49670038D01*
X156090176Y-49498466D01*
X155921849Y-49343030D01*
X155737274Y-49204757D01*
X155537342Y-49084672D01*
X155322942Y-48983801D01*
X155094965Y-48903169D01*
X154890396Y-48851147D01*
X154796023Y-48835222D01*
X154683696Y-48822662D01*
X154560418Y-48813747D01*
X154433195Y-48808756D01*
X154309030Y-48807969D01*
X154194927Y-48811665D01*
X154101572Y-48819664D01*
X153855427Y-48861821D01*
X153620657Y-48926150D01*
X153397915Y-49012254D01*
X153187853Y-49119734D01*
X152991126Y-49248192D01*
X152808387Y-49397231D01*
X152640288Y-49566451D01*
X152487483Y-49755455D01*
X152429246Y-49838812D01*
X152315361Y-50031130D01*
X152221185Y-50236868D01*
X152147041Y-50453426D01*
X152093255Y-50678205D01*
X152060149Y-50908604D01*
X152048048Y-51142023D01*
X152057274Y-51375863D01*
X152088153Y-51607522D01*
X152141007Y-51834402D01*
X152169337Y-51926138D01*
X152256375Y-52149560D01*
X152363986Y-52359402D01*
X152490996Y-52554717D01*
X152636231Y-52734554D01*
X152798517Y-52897966D01*
X152976681Y-53044004D01*
X153169549Y-53171719D01*
X153375947Y-53280164D01*
X153594701Y-53368388D01*
X153824637Y-53435444D01*
X154064582Y-53480383D01*
X154097888Y-53484730D01*
X154149574Y-53489468D01*
X154218586Y-53493451D01*
X154297106Y-53496343D01*
X154377316Y-53497808D01*
X154404344Y-53497920D01*
X154404344Y-61601845D01*
X154326057Y-61602915D01*
X154146936Y-61583295D01*
X153972961Y-61542196D01*
X153806296Y-61480244D01*
X153649108Y-61398068D01*
X153503563Y-61296295D01*
X153371826Y-61175555D01*
X153276353Y-61063789D01*
X153176549Y-60912718D01*
X153098111Y-60750818D01*
X153041103Y-60580623D01*
X153005588Y-60404671D01*
X152991630Y-60225498D01*
X152999292Y-60045638D01*
X153028637Y-59867628D01*
X153079728Y-59694004D01*
X153152631Y-59527302D01*
X153234461Y-59388960D01*
X153265287Y-59347436D01*
X153307642Y-59296063D01*
X153355030Y-59242527D01*
X153385791Y-59209865D01*
X153503370Y-59101129D01*
X153629455Y-59009704D01*
X153767868Y-58933459D01*
X153922432Y-58870266D01*
X154082500Y-58821741D01*
X154084486Y-58816714D01*
X154086308Y-58802112D01*
X154087973Y-58777026D01*
X154089486Y-58740547D01*
X154090854Y-58691764D01*
X154092084Y-58629769D01*
X154093180Y-58553652D01*
X154094150Y-58462504D01*
X154094998Y-58355415D01*
X154095733Y-58231476D01*
X154096359Y-58089778D01*
X154096882Y-57929412D01*
X154097310Y-57749467D01*
X154097647Y-57549035D01*
X154097900Y-57327206D01*
X154098076Y-57083070D01*
X154098179Y-56815719D01*
X154098218Y-56524243D01*
X154098218Y-54154251D01*
X154019629Y-54145623D01*
X153861944Y-54122577D01*
X153692647Y-54087672D01*
X153520886Y-54043245D01*
X153355810Y-53991629D01*
X153225507Y-53943000D01*
X152977705Y-53828703D01*
X152744560Y-53694454D01*
X152526879Y-53541293D01*
X152325468Y-53370261D01*
X152141134Y-53182397D01*
X151974686Y-52978741D01*
X151826930Y-52760335D01*
X151698674Y-52528217D01*
X151590724Y-52283427D01*
X151503888Y-52027007D01*
X151438973Y-51759995D01*
X151412635Y-51607164D01*
X151401374Y-51510876D01*
X151392824Y-51397047D01*
X151387175Y-51273160D01*
X151384620Y-51146698D01*
X151385352Y-51025143D01*
G36*
X154701782Y-67731980D02*
X154701782Y-70749802D01*
X154098218Y-70749802D01*
X154098218Y-67731980D01*
X154701782Y-67731980D01*
X154701782Y-67731980D01*
G37*
X154701782Y-67731980D02*
X154701782Y-70749802D01*
X154098218Y-70749802D01*
X154098218Y-67731980D01*
X154701782Y-67731980D01*
G36*
X154098218Y-50844752D02*
X154098218Y-49637623D01*
X154701782Y-49637623D01*
X154701782Y-50844752D01*
X155908911Y-50844752D01*
X155908911Y-51448316D01*
X154701782Y-51448316D01*
X154701782Y-52655445D01*
X154098462Y-52655445D01*
X154095196Y-52055024D01*
X154091931Y-51454604D01*
X153491510Y-51451338D01*
X152891089Y-51448073D01*
X152891089Y-50844752D01*
X154098218Y-50844752D01*
X154098218Y-50844752D01*
G37*
X154098218Y-50844752D02*
X154098218Y-49637623D01*
X154701782Y-49637623D01*
X154701782Y-50844752D01*
X155908911Y-50844752D01*
X155908911Y-51448316D01*
X154701782Y-51448316D01*
X154701782Y-52655445D01*
X154098462Y-52655445D01*
X154095196Y-52055024D01*
X154091931Y-51454604D01*
X153491510Y-51451338D01*
X152891089Y-51448073D01*
X152891089Y-50844752D01*
X154098218Y-50844752D01*
D13*
X110797219Y-102377056D02*
X108797219Y-102377056D01*
X108797219Y-100237056D02*
X110797219Y-100237056D01*
D12*
G36*
X208469184Y-61108759D02*
X208482282Y-61082247D01*
X208505106Y-61049553D01*
X208529996Y-61025725D01*
X208561249Y-61009406D01*
X208603166Y-60999240D01*
X208660044Y-60993872D01*
X208736184Y-60991944D01*
X208768917Y-60991831D01*
X208840656Y-60992161D01*
X208891927Y-60993527D01*
X208927404Y-60996500D01*
X208951763Y-61001649D01*
X208969680Y-61009543D01*
X208981902Y-61017757D01*
X209033905Y-61070187D01*
X209065184Y-61131930D01*
X209074592Y-61198536D01*
X209060980Y-61265558D01*
X209051354Y-61286792D01*
X209024859Y-61337624D01*
X209440052Y-61337624D01*
X209420868Y-61300525D01*
X209406025Y-61251643D01*
X209402222Y-61191561D01*
X209409243Y-61131564D01*
X209425013Y-61086256D01*
X209455047Y-61048675D01*
X209498024Y-61016564D01*
X209502436Y-61014150D01*
X209523221Y-61003967D01*
X209544170Y-60996530D01*
X209569548Y-60991411D01*
X209603618Y-60988181D01*
X209650641Y-60986413D01*
X209714882Y-60985677D01*
X209787176Y-60985544D01*
X210017822Y-60985544D01*
X210017822Y-61123861D01*
X209592533Y-61123861D01*
X209559979Y-61162549D01*
X209533940Y-61202738D01*
X209529205Y-61240797D01*
X209541389Y-61279066D01*
X209553320Y-61299462D01*
X209570313Y-61314642D01*
X209595995Y-61325438D01*
X209633991Y-61332683D01*
X209687926Y-61337208D01*
X209761425Y-61339844D01*
X209810347Y-61340772D01*
X210011535Y-61343911D01*
X210015336Y-61409926D01*
X210019136Y-61475940D01*
X208770650Y-61475940D01*
X208770650Y-61337624D01*
X208840254Y-61334097D01*
X208888569Y-61322215D01*
X208918631Y-61300020D01*
X208933471Y-61265559D01*
X208936436Y-61230742D01*
X208933028Y-61191329D01*
X208919617Y-61165171D01*
X208901896Y-61148814D01*
X208882835Y-61135937D01*
X208861601Y-61128272D01*
X208831849Y-61124861D01*
X208787236Y-61124749D01*
X208749880Y-61125897D01*
X208693604Y-61128532D01*
X208656658Y-61132456D01*
X208633223Y-61139063D01*
X208617480Y-61149749D01*
X208608380Y-61159833D01*
X208588537Y-61201970D01*
X208585332Y-61251840D01*
X208592168Y-61280476D01*
X208616464Y-61308828D01*
X208663728Y-61327609D01*
X208733624Y-61336712D01*
X208770650Y-61337624D01*
X208770650Y-61475940D01*
X208458614Y-61475940D01*
X208458614Y-61406782D01*
X208460256Y-61365260D01*
X208466087Y-61343838D01*
X208477461Y-61337626D01*
X208477798Y-61337624D01*
X208488938Y-61334742D01*
X208487673Y-61322030D01*
X208475433Y-61296757D01*
X208456707Y-61237869D01*
X208454739Y-61171615D01*
X208469184Y-61108759D01*
X208469184Y-61108759D01*
G37*
X208469184Y-61108759D02*
X208482282Y-61082247D01*
X208505106Y-61049553D01*
X208529996Y-61025725D01*
X208561249Y-61009406D01*
X208603166Y-60999240D01*
X208660044Y-60993872D01*
X208736184Y-60991944D01*
X208768917Y-60991831D01*
X208840656Y-60992161D01*
X208891927Y-60993527D01*
X208927404Y-60996500D01*
X208951763Y-61001649D01*
X208969680Y-61009543D01*
X208981902Y-61017757D01*
X209033905Y-61070187D01*
X209065184Y-61131930D01*
X209074592Y-61198536D01*
X209060980Y-61265558D01*
X209051354Y-61286792D01*
X209024859Y-61337624D01*
X209440052Y-61337624D01*
X209420868Y-61300525D01*
X209406025Y-61251643D01*
X209402222Y-61191561D01*
X209409243Y-61131564D01*
X209425013Y-61086256D01*
X209455047Y-61048675D01*
X209498024Y-61016564D01*
X209502436Y-61014150D01*
X209523221Y-61003967D01*
X209544170Y-60996530D01*
X209569548Y-60991411D01*
X209603618Y-60988181D01*
X209650641Y-60986413D01*
X209714882Y-60985677D01*
X209787176Y-60985544D01*
X210017822Y-60985544D01*
X210017822Y-61123861D01*
X209592533Y-61123861D01*
X209559979Y-61162549D01*
X209533940Y-61202738D01*
X209529205Y-61240797D01*
X209541389Y-61279066D01*
X209553320Y-61299462D01*
X209570313Y-61314642D01*
X209595995Y-61325438D01*
X209633991Y-61332683D01*
X209687926Y-61337208D01*
X209761425Y-61339844D01*
X209810347Y-61340772D01*
X210011535Y-61343911D01*
X210015336Y-61409926D01*
X210019136Y-61475940D01*
X208770650Y-61475940D01*
X208770650Y-61337624D01*
X208840254Y-61334097D01*
X208888569Y-61322215D01*
X208918631Y-61300020D01*
X208933471Y-61265559D01*
X208936436Y-61230742D01*
X208933028Y-61191329D01*
X208919617Y-61165171D01*
X208901896Y-61148814D01*
X208882835Y-61135937D01*
X208861601Y-61128272D01*
X208831849Y-61124861D01*
X208787236Y-61124749D01*
X208749880Y-61125897D01*
X208693604Y-61128532D01*
X208656658Y-61132456D01*
X208633223Y-61139063D01*
X208617480Y-61149749D01*
X208608380Y-61159833D01*
X208588537Y-61201970D01*
X208585332Y-61251840D01*
X208592168Y-61280476D01*
X208616464Y-61308828D01*
X208663728Y-61327609D01*
X208733624Y-61336712D01*
X208770650Y-61337624D01*
X208770650Y-61475940D01*
X208458614Y-61475940D01*
X208458614Y-61406782D01*
X208460256Y-61365260D01*
X208466087Y-61343838D01*
X208477461Y-61337626D01*
X208477798Y-61337624D01*
X208488938Y-61334742D01*
X208487673Y-61322030D01*
X208475433Y-61296757D01*
X208456707Y-61237869D01*
X208454739Y-61171615D01*
X208469184Y-61108759D01*
G36*
X209406555Y-60584210D02*
X209422339Y-60525055D01*
X209450948Y-60480023D01*
X209488419Y-60448246D01*
X209504411Y-60438366D01*
X209521163Y-60431073D01*
X209542592Y-60425974D01*
X209572616Y-60422679D01*
X209615154Y-60420797D01*
X209674122Y-60419937D01*
X209753440Y-60419707D01*
X209774484Y-60419703D01*
X210017822Y-60419703D01*
X210017822Y-60480059D01*
X210015126Y-60518557D01*
X210008295Y-60547023D01*
X210004083Y-60554155D01*
X209996813Y-60573652D01*
X210004083Y-60593566D01*
X210013160Y-60626353D01*
X210016813Y-60673978D01*
X210015228Y-60726764D01*
X210008589Y-60775036D01*
X210000072Y-60803218D01*
X209965063Y-60857753D01*
X209916479Y-60891835D01*
X209851882Y-60907157D01*
X209850223Y-60907299D01*
X209821566Y-60905955D01*
X209821566Y-60784356D01*
X209854161Y-60773726D01*
X209872505Y-60756410D01*
X209886379Y-60721652D01*
X209891917Y-60675773D01*
X209889191Y-60628988D01*
X209878274Y-60591514D01*
X209871269Y-60581015D01*
X209838904Y-60562668D01*
X209802111Y-60558020D01*
X209753763Y-60558020D01*
X209753763Y-60627582D01*
X209758850Y-60693667D01*
X209773263Y-60743764D01*
X209795729Y-60774929D01*
X209821566Y-60784356D01*
X209821566Y-60905955D01*
X209779647Y-60903987D01*
X209723845Y-60880710D01*
X209681647Y-60836948D01*
X209677808Y-60830899D01*
X209665309Y-60804907D01*
X209657740Y-60772735D01*
X209654061Y-60727760D01*
X209653216Y-60674331D01*
X209653169Y-60558020D01*
X209604411Y-60558020D01*
X209566581Y-60562953D01*
X209541236Y-60575543D01*
X209539887Y-60577017D01*
X209528800Y-60605034D01*
X209524503Y-60647326D01*
X209526615Y-60694064D01*
X209534756Y-60735418D01*
X209546965Y-60759957D01*
X209556746Y-60773253D01*
X209558613Y-60787294D01*
X209550600Y-60806671D01*
X209530739Y-60835976D01*
X209497063Y-60879803D01*
X209493909Y-60883825D01*
X209482236Y-60881764D01*
X209462822Y-60864568D01*
X209441248Y-60838433D01*
X209423096Y-60809552D01*
X209418809Y-60800478D01*
X209410256Y-60767380D01*
X209404155Y-60718880D01*
X209401708Y-60664695D01*
X209401703Y-60662161D01*
X209406555Y-60584210D01*
X209406555Y-60584210D01*
G37*
X209406555Y-60584210D02*
X209422339Y-60525055D01*
X209450948Y-60480023D01*
X209488419Y-60448246D01*
X209504411Y-60438366D01*
X209521163Y-60431073D01*
X209542592Y-60425974D01*
X209572616Y-60422679D01*
X209615154Y-60420797D01*
X209674122Y-60419937D01*
X209753440Y-60419707D01*
X209774484Y-60419703D01*
X210017822Y-60419703D01*
X210017822Y-60480059D01*
X210015126Y-60518557D01*
X210008295Y-60547023D01*
X210004083Y-60554155D01*
X209996813Y-60573652D01*
X210004083Y-60593566D01*
X210013160Y-60626353D01*
X210016813Y-60673978D01*
X210015228Y-60726764D01*
X210008589Y-60775036D01*
X210000072Y-60803218D01*
X209965063Y-60857753D01*
X209916479Y-60891835D01*
X209851882Y-60907157D01*
X209850223Y-60907299D01*
X209821566Y-60905955D01*
X209821566Y-60784356D01*
X209854161Y-60773726D01*
X209872505Y-60756410D01*
X209886379Y-60721652D01*
X209891917Y-60675773D01*
X209889191Y-60628988D01*
X209878274Y-60591514D01*
X209871269Y-60581015D01*
X209838904Y-60562668D01*
X209802111Y-60558020D01*
X209753763Y-60558020D01*
X209753763Y-60627582D01*
X209758850Y-60693667D01*
X209773263Y-60743764D01*
X209795729Y-60774929D01*
X209821566Y-60784356D01*
X209821566Y-60905955D01*
X209779647Y-60903987D01*
X209723845Y-60880710D01*
X209681647Y-60836948D01*
X209677808Y-60830899D01*
X209665309Y-60804907D01*
X209657740Y-60772735D01*
X209654061Y-60727760D01*
X209653216Y-60674331D01*
X209653169Y-60558020D01*
X209604411Y-60558020D01*
X209566581Y-60562953D01*
X209541236Y-60575543D01*
X209539887Y-60577017D01*
X209528800Y-60605034D01*
X209524503Y-60647326D01*
X209526615Y-60694064D01*
X209534756Y-60735418D01*
X209546965Y-60759957D01*
X209556746Y-60773253D01*
X209558613Y-60787294D01*
X209550600Y-60806671D01*
X209530739Y-60835976D01*
X209497063Y-60879803D01*
X209493909Y-60883825D01*
X209482236Y-60881764D01*
X209462822Y-60864568D01*
X209441248Y-60838433D01*
X209423096Y-60809552D01*
X209418809Y-60800478D01*
X209410256Y-60767380D01*
X209404155Y-60718880D01*
X209401708Y-60664695D01*
X209401703Y-60662161D01*
X209406555Y-60584210D01*
G36*
X209403020Y-60193356D02*
X209408660Y-60174539D01*
X209421053Y-60168473D01*
X209426647Y-60168218D01*
X209442230Y-60167129D01*
X209444676Y-60159632D01*
X209433993Y-60139381D01*
X209426694Y-60127351D01*
X209411063Y-60089400D01*
X209403334Y-60044072D01*
X209402740Y-59996544D01*
X209408513Y-59951995D01*
X209419884Y-59915602D01*
X209436088Y-59892543D01*
X209456355Y-59887996D01*
X209461843Y-59890291D01*
X209484626Y-59907020D01*
X209512647Y-59932963D01*
X209517177Y-59937655D01*
X209538005Y-59962383D01*
X209544735Y-59983718D01*
X209540038Y-60013555D01*
X209536917Y-60025508D01*
X209529421Y-60062705D01*
X209532792Y-60088859D01*
X209544681Y-60110946D01*
X209560635Y-60131178D01*
X209580700Y-60146079D01*
X209608702Y-60156434D01*
X209648467Y-60163029D01*
X209703823Y-60166649D01*
X209778594Y-60168078D01*
X209823740Y-60168218D01*
X210017822Y-60168218D01*
X210017822Y-60293960D01*
X209401683Y-60293960D01*
X209401683Y-60231089D01*
X209403020Y-60193356D01*
X209403020Y-60193356D01*
G37*
X209403020Y-60193356D02*
X209408660Y-60174539D01*
X209421053Y-60168473D01*
X209426647Y-60168218D01*
X209442230Y-60167129D01*
X209444676Y-60159632D01*
X209433993Y-60139381D01*
X209426694Y-60127351D01*
X209411063Y-60089400D01*
X209403334Y-60044072D01*
X209402740Y-59996544D01*
X209408513Y-59951995D01*
X209419884Y-59915602D01*
X209436088Y-59892543D01*
X209456355Y-59887996D01*
X209461843Y-59890291D01*
X209484626Y-59907020D01*
X209512647Y-59932963D01*
X209517177Y-59937655D01*
X209538005Y-59962383D01*
X209544735Y-59983718D01*
X209540038Y-60013555D01*
X209536917Y-60025508D01*
X209529421Y-60062705D01*
X209532792Y-60088859D01*
X209544681Y-60110946D01*
X209560635Y-60131178D01*
X209580700Y-60146079D01*
X209608702Y-60156434D01*
X209648467Y-60163029D01*
X209703823Y-60166649D01*
X209778594Y-60168078D01*
X209823740Y-60168218D01*
X210017822Y-60168218D01*
X210017822Y-60293960D01*
X209401683Y-60293960D01*
X209401683Y-60231089D01*
X209403020Y-60193356D01*
G36*
X210017822Y-59401188D02*
X210017822Y-59470346D01*
X210016645Y-59510488D01*
X210011772Y-59531394D01*
X210001186Y-59538922D01*
X209994029Y-59539505D01*
X209979676Y-59540774D01*
X209976923Y-59548779D01*
X209985771Y-59569815D01*
X209994029Y-59586173D01*
X210013597Y-59648977D01*
X210014729Y-59717248D01*
X210000135Y-59772752D01*
X209964877Y-59824438D01*
X209912835Y-59863838D01*
X209851450Y-59885413D01*
X209848018Y-59885962D01*
X209810571Y-59889167D01*
X209756813Y-59890761D01*
X209716155Y-59890633D01*
X209716155Y-59753279D01*
X209770194Y-59750097D01*
X209814735Y-59742859D01*
X209839888Y-59733060D01*
X209874260Y-59695989D01*
X209886582Y-59651974D01*
X209876618Y-59606584D01*
X209846895Y-59567797D01*
X209826905Y-59553108D01*
X209803050Y-59544519D01*
X209768230Y-59540496D01*
X209715930Y-59539505D01*
X209664139Y-59541278D01*
X209618634Y-59545963D01*
X209588181Y-59552603D01*
X209585452Y-59553710D01*
X209553000Y-59580491D01*
X209535183Y-59619579D01*
X209532306Y-59663315D01*
X209544674Y-59704038D01*
X209572593Y-59734087D01*
X209578148Y-59737204D01*
X209612022Y-59746961D01*
X209660728Y-59752277D01*
X209716155Y-59753279D01*
X209716155Y-59890633D01*
X209695540Y-59890568D01*
X209662563Y-59889664D01*
X209580981Y-59883514D01*
X209519730Y-59870733D01*
X209474449Y-59849471D01*
X209440779Y-59817878D01*
X209421014Y-59787207D01*
X209407120Y-59744354D01*
X209402354Y-59691056D01*
X209406236Y-59636480D01*
X209418282Y-59589792D01*
X209432693Y-59565124D01*
X209455878Y-59539505D01*
X209162773Y-59539505D01*
X209162773Y-59401188D01*
X210017822Y-59401188D01*
X210017822Y-59401188D01*
G37*
X210017822Y-59401188D02*
X210017822Y-59470346D01*
X210016645Y-59510488D01*
X210011772Y-59531394D01*
X210001186Y-59538922D01*
X209994029Y-59539505D01*
X209979676Y-59540774D01*
X209976923Y-59548779D01*
X209985771Y-59569815D01*
X209994029Y-59586173D01*
X210013597Y-59648977D01*
X210014729Y-59717248D01*
X210000135Y-59772752D01*
X209964877Y-59824438D01*
X209912835Y-59863838D01*
X209851450Y-59885413D01*
X209848018Y-59885962D01*
X209810571Y-59889167D01*
X209756813Y-59890761D01*
X209716155Y-59890633D01*
X209716155Y-59753279D01*
X209770194Y-59750097D01*
X209814735Y-59742859D01*
X209839888Y-59733060D01*
X209874260Y-59695989D01*
X209886582Y-59651974D01*
X209876618Y-59606584D01*
X209846895Y-59567797D01*
X209826905Y-59553108D01*
X209803050Y-59544519D01*
X209768230Y-59540496D01*
X209715930Y-59539505D01*
X209664139Y-59541278D01*
X209618634Y-59545963D01*
X209588181Y-59552603D01*
X209585452Y-59553710D01*
X209553000Y-59580491D01*
X209535183Y-59619579D01*
X209532306Y-59663315D01*
X209544674Y-59704038D01*
X209572593Y-59734087D01*
X209578148Y-59737204D01*
X209612022Y-59746961D01*
X209660728Y-59752277D01*
X209716155Y-59753279D01*
X209716155Y-59890633D01*
X209695540Y-59890568D01*
X209662563Y-59889664D01*
X209580981Y-59883514D01*
X209519730Y-59870733D01*
X209474449Y-59849471D01*
X209440779Y-59817878D01*
X209421014Y-59787207D01*
X209407120Y-59744354D01*
X209402354Y-59691056D01*
X209406236Y-59636480D01*
X209418282Y-59589792D01*
X209432693Y-59565124D01*
X209455878Y-59539505D01*
X209162773Y-59539505D01*
X209162773Y-59401188D01*
X210017822Y-59401188D01*
G36*
X209404237Y-58918476D02*
X209407971Y-58868745D01*
X209797773Y-58738709D01*
X209728614Y-58718322D01*
X209685874Y-58706054D01*
X209628115Y-58689915D01*
X209564625Y-58672488D01*
X209530570Y-58663274D01*
X209401683Y-58628612D01*
X209401683Y-58485609D01*
X209536857Y-58528354D01*
X209603342Y-58549404D01*
X209683539Y-58574833D01*
X209767193Y-58601390D01*
X209841782Y-58625098D01*
X210011535Y-58679098D01*
X210015328Y-58737402D01*
X210019122Y-58795705D01*
X209914734Y-58827321D01*
X209849889Y-58846818D01*
X209778400Y-58868096D01*
X209715263Y-58886692D01*
X209712750Y-58887426D01*
X209669969Y-58901316D01*
X209640779Y-58913571D01*
X209629741Y-58922154D01*
X209631018Y-58923918D01*
X209648130Y-58930109D01*
X209684787Y-58941872D01*
X209736378Y-58957775D01*
X209798294Y-58976386D01*
X209832352Y-58986457D01*
X210017822Y-59040993D01*
X210017822Y-59156736D01*
X209725471Y-59249263D01*
X209643462Y-59275256D01*
X209568987Y-59298934D01*
X209505544Y-59319180D01*
X209456632Y-59334874D01*
X209425749Y-59344898D01*
X209416726Y-59347945D01*
X209407487Y-59345533D01*
X209403441Y-59326592D01*
X209403846Y-59287177D01*
X209404152Y-59281007D01*
X209407971Y-59207914D01*
X209584010Y-59160043D01*
X209648211Y-59142447D01*
X209704649Y-59126723D01*
X209748422Y-59114254D01*
X209774630Y-59106426D01*
X209778903Y-59104980D01*
X209773990Y-59098986D01*
X209748532Y-59086899D01*
X209705997Y-59070107D01*
X209649850Y-59049997D01*
X209599130Y-59032997D01*
X209400504Y-58968206D01*
X209404237Y-58918476D01*
X209404237Y-58918476D01*
G37*
X209404237Y-58918476D02*
X209407971Y-58868745D01*
X209797773Y-58738709D01*
X209728614Y-58718322D01*
X209685874Y-58706054D01*
X209628115Y-58689915D01*
X209564625Y-58672488D01*
X209530570Y-58663274D01*
X209401683Y-58628612D01*
X209401683Y-58485609D01*
X209536857Y-58528354D01*
X209603342Y-58549404D01*
X209683539Y-58574833D01*
X209767193Y-58601390D01*
X209841782Y-58625098D01*
X210011535Y-58679098D01*
X210015328Y-58737402D01*
X210019122Y-58795705D01*
X209914734Y-58827321D01*
X209849889Y-58846818D01*
X209778400Y-58868096D01*
X209715263Y-58886692D01*
X209712750Y-58887426D01*
X209669969Y-58901316D01*
X209640779Y-58913571D01*
X209629741Y-58922154D01*
X209631018Y-58923918D01*
X209648130Y-58930109D01*
X209684787Y-58941872D01*
X209736378Y-58957775D01*
X209798294Y-58976386D01*
X209832352Y-58986457D01*
X210017822Y-59040993D01*
X210017822Y-59156736D01*
X209725471Y-59249263D01*
X209643462Y-59275256D01*
X209568987Y-59298934D01*
X209505544Y-59319180D01*
X209456632Y-59334874D01*
X209425749Y-59344898D01*
X209416726Y-59347945D01*
X209407487Y-59345533D01*
X209403441Y-59326592D01*
X209403846Y-59287177D01*
X209404152Y-59281007D01*
X209407971Y-59207914D01*
X209584010Y-59160043D01*
X209648211Y-59142447D01*
X209704649Y-59126723D01*
X209748422Y-59114254D01*
X209774630Y-59106426D01*
X209778903Y-59104980D01*
X209773990Y-59098986D01*
X209748532Y-59086899D01*
X209705997Y-59070107D01*
X209649850Y-59049997D01*
X209599130Y-59032997D01*
X209400504Y-58968206D01*
X209404237Y-58918476D01*
G36*
X209405417Y-58161589D02*
X209418290Y-58108589D01*
X209425110Y-58093269D01*
X209442974Y-58063572D01*
X209463093Y-58040780D01*
X209488962Y-58023917D01*
X209524073Y-58012002D01*
X209571920Y-58004058D01*
X209635996Y-57999106D01*
X209719794Y-57996169D01*
X209775768Y-57995053D01*
X210017822Y-57990948D01*
X210017822Y-58061068D01*
X210016038Y-58103607D01*
X210009942Y-58125524D01*
X209999706Y-58131188D01*
X209988637Y-58134179D01*
X209990754Y-58147549D01*
X209999629Y-58165767D01*
X210013233Y-58211376D01*
X210016899Y-58269993D01*
X210010903Y-58331646D01*
X209995521Y-58386362D01*
X209993386Y-58391270D01*
X209958255Y-58441277D01*
X209909419Y-58474244D01*
X209852333Y-58489413D01*
X209831824Y-58488254D01*
X209831824Y-58364492D01*
X209859425Y-58353587D01*
X209879204Y-58321255D01*
X209889819Y-58269090D01*
X209891228Y-58241213D01*
X209887620Y-58194753D01*
X209873597Y-58163871D01*
X209866931Y-58156336D01*
X209830666Y-58135924D01*
X209797773Y-58131188D01*
X209753763Y-58131188D01*
X209753763Y-58192487D01*
X209757395Y-58263744D01*
X209768818Y-58313724D01*
X209788824Y-58345304D01*
X209797743Y-58352374D01*
X209831824Y-58364492D01*
X209831824Y-58488254D01*
X209792456Y-58486029D01*
X209735244Y-58463337D01*
X209696580Y-58432376D01*
X209679864Y-58413624D01*
X209668878Y-58395267D01*
X209662180Y-58371381D01*
X209658326Y-58336043D01*
X209655873Y-58283331D01*
X209655168Y-58262423D01*
X209650879Y-58131188D01*
X209611158Y-58131380D01*
X209569405Y-58136463D01*
X209544158Y-58154838D01*
X209528030Y-58191961D01*
X209527742Y-58192957D01*
X209521400Y-58245590D01*
X209529684Y-58297094D01*
X209549827Y-58335370D01*
X209559773Y-58350728D01*
X209558397Y-58367270D01*
X209543987Y-58392725D01*
X209533817Y-58407672D01*
X209512088Y-58436909D01*
X209495800Y-58455020D01*
X209491137Y-58457926D01*
X209467005Y-58445960D01*
X209438185Y-58410604D01*
X209428461Y-58395247D01*
X209411714Y-58351099D01*
X209402227Y-58291602D01*
X209400095Y-58225513D01*
X209405417Y-58161589D01*
X209405417Y-58161589D01*
G37*
X209405417Y-58161589D02*
X209418290Y-58108589D01*
X209425110Y-58093269D01*
X209442974Y-58063572D01*
X209463093Y-58040780D01*
X209488962Y-58023917D01*
X209524073Y-58012002D01*
X209571920Y-58004058D01*
X209635996Y-57999106D01*
X209719794Y-57996169D01*
X209775768Y-57995053D01*
X210017822Y-57990948D01*
X210017822Y-58061068D01*
X210016038Y-58103607D01*
X210009942Y-58125524D01*
X209999706Y-58131188D01*
X209988637Y-58134179D01*
X209990754Y-58147549D01*
X209999629Y-58165767D01*
X210013233Y-58211376D01*
X210016899Y-58269993D01*
X210010903Y-58331646D01*
X209995521Y-58386362D01*
X209993386Y-58391270D01*
X209958255Y-58441277D01*
X209909419Y-58474244D01*
X209852333Y-58489413D01*
X209831824Y-58488254D01*
X209831824Y-58364492D01*
X209859425Y-58353587D01*
X209879204Y-58321255D01*
X209889819Y-58269090D01*
X209891228Y-58241213D01*
X209887620Y-58194753D01*
X209873597Y-58163871D01*
X209866931Y-58156336D01*
X209830666Y-58135924D01*
X209797773Y-58131188D01*
X209753763Y-58131188D01*
X209753763Y-58192487D01*
X209757395Y-58263744D01*
X209768818Y-58313724D01*
X209788824Y-58345304D01*
X209797743Y-58352374D01*
X209831824Y-58364492D01*
X209831824Y-58488254D01*
X209792456Y-58486029D01*
X209735244Y-58463337D01*
X209696580Y-58432376D01*
X209679864Y-58413624D01*
X209668878Y-58395267D01*
X209662180Y-58371381D01*
X209658326Y-58336043D01*
X209655873Y-58283331D01*
X209655168Y-58262423D01*
X209650879Y-58131188D01*
X209611158Y-58131380D01*
X209569405Y-58136463D01*
X209544158Y-58154838D01*
X209528030Y-58191961D01*
X209527742Y-58192957D01*
X209521400Y-58245590D01*
X209529684Y-58297094D01*
X209549827Y-58335370D01*
X209559773Y-58350728D01*
X209558397Y-58367270D01*
X209543987Y-58392725D01*
X209533817Y-58407672D01*
X209512088Y-58436909D01*
X209495800Y-58455020D01*
X209491137Y-58457926D01*
X209467005Y-58445960D01*
X209438185Y-58410604D01*
X209428461Y-58395247D01*
X209411714Y-58351099D01*
X209402227Y-58291602D01*
X209400095Y-58225513D01*
X209405417Y-58161589D01*
G36*
X209401486Y-57564745D02*
X209411015Y-57516405D01*
X209425125Y-57488886D01*
X209448568Y-57459936D01*
X209500571Y-57501124D01*
X209532064Y-57526518D01*
X209547428Y-57543762D01*
X209549776Y-57560898D01*
X209542217Y-57585973D01*
X209537941Y-57597743D01*
X209531631Y-57645730D01*
X209545156Y-57689676D01*
X209575710Y-57721940D01*
X209585452Y-57727181D01*
X209611258Y-57732888D01*
X209658817Y-57737294D01*
X209724758Y-57740189D01*
X209805710Y-57741369D01*
X209817226Y-57741386D01*
X210017822Y-57741386D01*
X210017822Y-57879703D01*
X209401683Y-57879703D01*
X209401683Y-57810544D01*
X209402725Y-57770667D01*
X209407358Y-57749893D01*
X209417849Y-57742211D01*
X209427745Y-57741386D01*
X209453806Y-57741386D01*
X209427745Y-57708255D01*
X209409965Y-57670265D01*
X209401174Y-57619230D01*
X209401486Y-57564745D01*
X209401486Y-57564745D01*
G37*
X209401486Y-57564745D02*
X209411015Y-57516405D01*
X209425125Y-57488886D01*
X209448568Y-57459936D01*
X209500571Y-57501124D01*
X209532064Y-57526518D01*
X209547428Y-57543762D01*
X209549776Y-57560898D01*
X209542217Y-57585973D01*
X209537941Y-57597743D01*
X209531631Y-57645730D01*
X209545156Y-57689676D01*
X209575710Y-57721940D01*
X209585452Y-57727181D01*
X209611258Y-57732888D01*
X209658817Y-57737294D01*
X209724758Y-57740189D01*
X209805710Y-57741369D01*
X209817226Y-57741386D01*
X210017822Y-57741386D01*
X210017822Y-57879703D01*
X209401683Y-57879703D01*
X209401683Y-57810544D01*
X209402725Y-57770667D01*
X209407358Y-57749893D01*
X209417849Y-57742211D01*
X209427745Y-57741386D01*
X209453806Y-57741386D01*
X209427745Y-57708255D01*
X209409965Y-57670265D01*
X209401174Y-57619230D01*
X209401486Y-57564745D01*
G36*
X209404970Y-57167419D02*
X209420597Y-57107315D01*
X209452848Y-57056979D01*
X209476940Y-57032607D01*
X209533895Y-56992655D01*
X209599965Y-56969758D01*
X209681182Y-56961892D01*
X209687748Y-56961852D01*
X209753763Y-56961782D01*
X209753763Y-57341736D01*
X209788342Y-57333637D01*
X209819659Y-57319013D01*
X209852291Y-57293419D01*
X209857500Y-57288065D01*
X209885694Y-57242057D01*
X209890475Y-57189590D01*
X209871926Y-57129197D01*
X209866931Y-57118960D01*
X209851745Y-57087561D01*
X209843094Y-57066530D01*
X209842293Y-57062861D01*
X209850063Y-57050052D01*
X209869072Y-57025622D01*
X209879460Y-57013221D01*
X209903321Y-56987524D01*
X209919077Y-56979085D01*
X209933571Y-56984942D01*
X209937534Y-56988072D01*
X209954879Y-57009275D01*
X209975959Y-57044262D01*
X209988265Y-57068663D01*
X210009946Y-57137928D01*
X210016971Y-57214612D01*
X210008647Y-57287235D01*
X210002686Y-57307574D01*
X209968952Y-57370524D01*
X209917045Y-57417185D01*
X209846459Y-57447827D01*
X209756692Y-57462718D01*
X209709753Y-57464353D01*
X209641413Y-57459579D01*
X209641413Y-57339010D01*
X209646465Y-57327348D01*
X209650429Y-57296002D01*
X209652768Y-57250429D01*
X209653169Y-57219554D01*
X209652783Y-57164019D01*
X209650975Y-57128967D01*
X209646773Y-57109738D01*
X209639203Y-57101670D01*
X209628218Y-57100099D01*
X209594381Y-57110879D01*
X209560940Y-57138020D01*
X209535272Y-57173723D01*
X209524772Y-57209440D01*
X209534086Y-57257952D01*
X209561013Y-57299947D01*
X209599827Y-57329064D01*
X209641413Y-57339010D01*
X209641413Y-57459579D01*
X209610236Y-57457401D01*
X209530949Y-57435945D01*
X209471263Y-57399530D01*
X209430549Y-57347703D01*
X209408179Y-57280010D01*
X209403871Y-57243338D01*
X209404970Y-57167419D01*
X209404970Y-57167419D01*
G37*
X209404970Y-57167419D02*
X209420597Y-57107315D01*
X209452848Y-57056979D01*
X209476940Y-57032607D01*
X209533895Y-56992655D01*
X209599965Y-56969758D01*
X209681182Y-56961892D01*
X209687748Y-56961852D01*
X209753763Y-56961782D01*
X209753763Y-57341736D01*
X209788342Y-57333637D01*
X209819659Y-57319013D01*
X209852291Y-57293419D01*
X209857500Y-57288065D01*
X209885694Y-57242057D01*
X209890475Y-57189590D01*
X209871926Y-57129197D01*
X209866931Y-57118960D01*
X209851745Y-57087561D01*
X209843094Y-57066530D01*
X209842293Y-57062861D01*
X209850063Y-57050052D01*
X209869072Y-57025622D01*
X209879460Y-57013221D01*
X209903321Y-56987524D01*
X209919077Y-56979085D01*
X209933571Y-56984942D01*
X209937534Y-56988072D01*
X209954879Y-57009275D01*
X209975959Y-57044262D01*
X209988265Y-57068663D01*
X210009946Y-57137928D01*
X210016971Y-57214612D01*
X210008647Y-57287235D01*
X210002686Y-57307574D01*
X209968952Y-57370524D01*
X209917045Y-57417185D01*
X209846459Y-57447827D01*
X209756692Y-57462718D01*
X209709753Y-57464353D01*
X209641413Y-57459579D01*
X209641413Y-57339010D01*
X209646465Y-57327348D01*
X209650429Y-57296002D01*
X209652768Y-57250429D01*
X209653169Y-57219554D01*
X209652783Y-57164019D01*
X209650975Y-57128967D01*
X209646773Y-57109738D01*
X209639203Y-57101670D01*
X209628218Y-57100099D01*
X209594381Y-57110879D01*
X209560940Y-57138020D01*
X209535272Y-57173723D01*
X209524772Y-57209440D01*
X209534086Y-57257952D01*
X209561013Y-57299947D01*
X209599827Y-57329064D01*
X209641413Y-57339010D01*
X209641413Y-57459579D01*
X209610236Y-57457401D01*
X209530949Y-57435945D01*
X209471263Y-57399530D01*
X209430549Y-57347703D01*
X209408179Y-57280010D01*
X209403871Y-57243338D01*
X209404970Y-57167419D01*
G36*
X208465148Y-61738261D02*
X208494231Y-61672479D01*
X208542793Y-61622540D01*
X208610908Y-61588374D01*
X208698651Y-61569907D01*
X208712351Y-61568583D01*
X208808939Y-61567546D01*
X208893602Y-61580993D01*
X208962221Y-61608108D01*
X208984294Y-61622627D01*
X209031011Y-61673201D01*
X209061268Y-61737609D01*
X209073824Y-61809666D01*
X209067439Y-61883185D01*
X209047772Y-61939072D01*
X209014629Y-61987132D01*
X208971175Y-62026412D01*
X208970158Y-62027092D01*
X208943338Y-62043044D01*
X208916368Y-62053410D01*
X208882332Y-62059688D01*
X208834310Y-62063373D01*
X208794931Y-62064997D01*
X208759219Y-62065672D01*
X208759219Y-61939955D01*
X208794770Y-61938726D01*
X208842094Y-61934266D01*
X208872465Y-61926397D01*
X208894072Y-61912207D01*
X208906694Y-61898917D01*
X208933122Y-61851802D01*
X208936653Y-61802505D01*
X208917639Y-61756593D01*
X208896331Y-61733638D01*
X208874859Y-61717096D01*
X208854313Y-61707421D01*
X208827574Y-61703174D01*
X208787523Y-61702920D01*
X208750638Y-61704228D01*
X208697947Y-61707043D01*
X208663772Y-61711505D01*
X208641480Y-61719548D01*
X208624442Y-61733103D01*
X208614703Y-61743845D01*
X208589123Y-61788777D01*
X208587847Y-61837249D01*
X208602999Y-61877894D01*
X208634642Y-61912567D01*
X208686620Y-61933224D01*
X208759219Y-61939955D01*
X208759219Y-62065672D01*
X208716621Y-62066479D01*
X208658056Y-62063948D01*
X208614007Y-62056362D01*
X208579248Y-62042681D01*
X208548551Y-62021865D01*
X208539436Y-62014147D01*
X208494021Y-61965889D01*
X208467493Y-61914128D01*
X208456379Y-61850828D01*
X208455471Y-61819961D01*
X208465148Y-61738261D01*
X208465148Y-61738261D01*
G37*
X208465148Y-61738261D02*
X208494231Y-61672479D01*
X208542793Y-61622540D01*
X208610908Y-61588374D01*
X208698651Y-61569907D01*
X208712351Y-61568583D01*
X208808939Y-61567546D01*
X208893602Y-61580993D01*
X208962221Y-61608108D01*
X208984294Y-61622627D01*
X209031011Y-61673201D01*
X209061268Y-61737609D01*
X209073824Y-61809666D01*
X209067439Y-61883185D01*
X209047772Y-61939072D01*
X209014629Y-61987132D01*
X208971175Y-62026412D01*
X208970158Y-62027092D01*
X208943338Y-62043044D01*
X208916368Y-62053410D01*
X208882332Y-62059688D01*
X208834310Y-62063373D01*
X208794931Y-62064997D01*
X208759219Y-62065672D01*
X208759219Y-61939955D01*
X208794770Y-61938726D01*
X208842094Y-61934266D01*
X208872465Y-61926397D01*
X208894072Y-61912207D01*
X208906694Y-61898917D01*
X208933122Y-61851802D01*
X208936653Y-61802505D01*
X208917639Y-61756593D01*
X208896331Y-61733638D01*
X208874859Y-61717096D01*
X208854313Y-61707421D01*
X208827574Y-61703174D01*
X208787523Y-61702920D01*
X208750638Y-61704228D01*
X208697947Y-61707043D01*
X208663772Y-61711505D01*
X208641480Y-61719548D01*
X208624442Y-61733103D01*
X208614703Y-61743845D01*
X208589123Y-61788777D01*
X208587847Y-61837249D01*
X208602999Y-61877894D01*
X208634642Y-61912567D01*
X208686620Y-61933224D01*
X208759219Y-61939955D01*
X208759219Y-62065672D01*
X208716621Y-62066479D01*
X208658056Y-62063948D01*
X208614007Y-62056362D01*
X208579248Y-62042681D01*
X208548551Y-62021865D01*
X208539436Y-62014147D01*
X208494021Y-61965889D01*
X208467493Y-61914128D01*
X208456379Y-61850828D01*
X208455471Y-61819961D01*
X208465148Y-61738261D01*
G36*
X208472614Y-60556699D02*
X208478514Y-60544168D01*
X208510283Y-60500799D01*
X208556646Y-60459790D01*
X208607696Y-60429168D01*
X208631166Y-60420459D01*
X208673091Y-60412512D01*
X208723757Y-60407774D01*
X208744679Y-60407199D01*
X208810693Y-60407129D01*
X208810693Y-60787083D01*
X208845273Y-60778983D01*
X208886170Y-60759104D01*
X208921514Y-60724347D01*
X208944282Y-60682998D01*
X208949010Y-60656649D01*
X208943273Y-60620916D01*
X208928882Y-60578282D01*
X208922262Y-60563799D01*
X208895513Y-60510240D01*
X208930376Y-60464533D01*
X208953955Y-60438158D01*
X208973417Y-60424124D01*
X208979129Y-60423414D01*
X208992973Y-60435951D01*
X209014012Y-60463428D01*
X209030425Y-60488366D01*
X209059930Y-60555664D01*
X209073284Y-60631110D01*
X209069812Y-60705888D01*
X209051663Y-60765495D01*
X209012784Y-60826941D01*
X208961595Y-60870608D01*
X208895367Y-60897926D01*
X208811371Y-60910322D01*
X208772936Y-60911421D01*
X208684861Y-60907022D01*
X208682299Y-60906482D01*
X208682299Y-60780582D01*
X208690558Y-60777115D01*
X208695113Y-60762863D01*
X208697065Y-60733470D01*
X208697517Y-60684575D01*
X208697525Y-60665748D01*
X208696843Y-60608467D01*
X208694364Y-60572141D01*
X208689443Y-60552604D01*
X208681434Y-60545690D01*
X208678862Y-60545445D01*
X208658423Y-60553336D01*
X208629789Y-60573085D01*
X208619763Y-60581575D01*
X208591408Y-60613094D01*
X208580259Y-60645949D01*
X208579327Y-60663651D01*
X208590981Y-60711539D01*
X208622285Y-60751699D01*
X208667752Y-60777173D01*
X208669233Y-60777625D01*
X208682299Y-60780582D01*
X208682299Y-60906482D01*
X208615510Y-60892392D01*
X208560025Y-60866038D01*
X208520639Y-60833807D01*
X208477931Y-60774217D01*
X208455109Y-60704168D01*
X208453046Y-60629661D01*
X208472614Y-60556699D01*
X208472614Y-60556699D01*
G37*
X208472614Y-60556699D02*
X208478514Y-60544168D01*
X208510283Y-60500799D01*
X208556646Y-60459790D01*
X208607696Y-60429168D01*
X208631166Y-60420459D01*
X208673091Y-60412512D01*
X208723757Y-60407774D01*
X208744679Y-60407199D01*
X208810693Y-60407129D01*
X208810693Y-60787083D01*
X208845273Y-60778983D01*
X208886170Y-60759104D01*
X208921514Y-60724347D01*
X208944282Y-60682998D01*
X208949010Y-60656649D01*
X208943273Y-60620916D01*
X208928882Y-60578282D01*
X208922262Y-60563799D01*
X208895513Y-60510240D01*
X208930376Y-60464533D01*
X208953955Y-60438158D01*
X208973417Y-60424124D01*
X208979129Y-60423414D01*
X208992973Y-60435951D01*
X209014012Y-60463428D01*
X209030425Y-60488366D01*
X209059930Y-60555664D01*
X209073284Y-60631110D01*
X209069812Y-60705888D01*
X209051663Y-60765495D01*
X209012784Y-60826941D01*
X208961595Y-60870608D01*
X208895367Y-60897926D01*
X208811371Y-60910322D01*
X208772936Y-60911421D01*
X208684861Y-60907022D01*
X208682299Y-60906482D01*
X208682299Y-60780582D01*
X208690558Y-60777115D01*
X208695113Y-60762863D01*
X208697065Y-60733470D01*
X208697517Y-60684575D01*
X208697525Y-60665748D01*
X208696843Y-60608467D01*
X208694364Y-60572141D01*
X208689443Y-60552604D01*
X208681434Y-60545690D01*
X208678862Y-60545445D01*
X208658423Y-60553336D01*
X208629789Y-60573085D01*
X208619763Y-60581575D01*
X208591408Y-60613094D01*
X208580259Y-60645949D01*
X208579327Y-60663651D01*
X208590981Y-60711539D01*
X208622285Y-60751699D01*
X208667752Y-60777173D01*
X208669233Y-60777625D01*
X208682299Y-60780582D01*
X208682299Y-60906482D01*
X208615510Y-60892392D01*
X208560025Y-60866038D01*
X208520639Y-60833807D01*
X208477931Y-60774217D01*
X208455109Y-60704168D01*
X208453046Y-60629661D01*
X208472614Y-60556699D01*
G36*
X208456452Y-59185983D02*
X208465482Y-59138366D01*
X208484370Y-59088966D01*
X208486777Y-59083688D01*
X208506476Y-59046226D01*
X208524781Y-59020283D01*
X208536508Y-59011897D01*
X208555632Y-59019883D01*
X208583850Y-59039280D01*
X208594384Y-59047890D01*
X208635847Y-59083372D01*
X208608858Y-59129115D01*
X208590878Y-59172650D01*
X208581267Y-59222950D01*
X208580660Y-59271188D01*
X208589691Y-59308533D01*
X208595327Y-59317495D01*
X208621171Y-59334563D01*
X208650941Y-59336637D01*
X208674197Y-59323866D01*
X208678708Y-59316312D01*
X208684309Y-59293675D01*
X208690892Y-59253885D01*
X208697183Y-59204834D01*
X208698170Y-59195785D01*
X208711798Y-59117004D01*
X208734946Y-59059864D01*
X208769752Y-59021970D01*
X208818354Y-59000921D01*
X208877718Y-58994365D01*
X208945198Y-59003423D01*
X208998188Y-59032836D01*
X209036783Y-59082722D01*
X209061081Y-59153200D01*
X209070667Y-59231435D01*
X209070552Y-59295234D01*
X209061845Y-59346984D01*
X209049825Y-59382327D01*
X209028880Y-59426983D01*
X209004574Y-59468253D01*
X208993876Y-59482921D01*
X208963084Y-59520643D01*
X208917049Y-59475148D01*
X208871013Y-59429653D01*
X208905243Y-59377928D01*
X208930952Y-59326048D01*
X208944399Y-59270649D01*
X208945818Y-59217395D01*
X208935443Y-59171951D01*
X208913507Y-59139984D01*
X208894998Y-59129662D01*
X208865314Y-59131211D01*
X208842615Y-59156860D01*
X208826940Y-59206540D01*
X208819695Y-59260969D01*
X208805873Y-59344736D01*
X208779796Y-59406967D01*
X208740699Y-59448493D01*
X208687820Y-59470147D01*
X208625126Y-59473147D01*
X208559642Y-59458329D01*
X208510144Y-59424546D01*
X208476408Y-59371495D01*
X208458207Y-59298874D01*
X208454639Y-59245072D01*
X208456452Y-59185983D01*
X208456452Y-59185983D01*
G37*
X208456452Y-59185983D02*
X208465482Y-59138366D01*
X208484370Y-59088966D01*
X208486777Y-59083688D01*
X208506476Y-59046226D01*
X208524781Y-59020283D01*
X208536508Y-59011897D01*
X208555632Y-59019883D01*
X208583850Y-59039280D01*
X208594384Y-59047890D01*
X208635847Y-59083372D01*
X208608858Y-59129115D01*
X208590878Y-59172650D01*
X208581267Y-59222950D01*
X208580660Y-59271188D01*
X208589691Y-59308533D01*
X208595327Y-59317495D01*
X208621171Y-59334563D01*
X208650941Y-59336637D01*
X208674197Y-59323866D01*
X208678708Y-59316312D01*
X208684309Y-59293675D01*
X208690892Y-59253885D01*
X208697183Y-59204834D01*
X208698170Y-59195785D01*
X208711798Y-59117004D01*
X208734946Y-59059864D01*
X208769752Y-59021970D01*
X208818354Y-59000921D01*
X208877718Y-58994365D01*
X208945198Y-59003423D01*
X208998188Y-59032836D01*
X209036783Y-59082722D01*
X209061081Y-59153200D01*
X209070667Y-59231435D01*
X209070552Y-59295234D01*
X209061845Y-59346984D01*
X209049825Y-59382327D01*
X209028880Y-59426983D01*
X209004574Y-59468253D01*
X208993876Y-59482921D01*
X208963084Y-59520643D01*
X208917049Y-59475148D01*
X208871013Y-59429653D01*
X208905243Y-59377928D01*
X208930952Y-59326048D01*
X208944399Y-59270649D01*
X208945818Y-59217395D01*
X208935443Y-59171951D01*
X208913507Y-59139984D01*
X208894998Y-59129662D01*
X208865314Y-59131211D01*
X208842615Y-59156860D01*
X208826940Y-59206540D01*
X208819695Y-59260969D01*
X208805873Y-59344736D01*
X208779796Y-59406967D01*
X208740699Y-59448493D01*
X208687820Y-59470147D01*
X208625126Y-59473147D01*
X208559642Y-59458329D01*
X208510144Y-59424546D01*
X208476408Y-59371495D01*
X208458207Y-59298874D01*
X208454639Y-59245072D01*
X208456452Y-59185983D01*
G36*
X208466055Y-58589238D02*
X208500692Y-58525637D01*
X208555372Y-58475877D01*
X208599842Y-58452432D01*
X208639121Y-58442366D01*
X208695116Y-58435844D01*
X208759621Y-58433049D01*
X208824429Y-58434164D01*
X208881334Y-58439374D01*
X208911727Y-58445459D01*
X208953306Y-58465986D01*
X208997468Y-58501537D01*
X209036087Y-58544381D01*
X209061034Y-58586789D01*
X209061430Y-58587823D01*
X209072331Y-58640447D01*
X209072601Y-58702812D01*
X209062676Y-58762076D01*
X209054722Y-58784960D01*
X209021300Y-58843898D01*
X208977511Y-58886110D01*
X208919538Y-58913844D01*
X208843565Y-58929349D01*
X208803771Y-58932857D01*
X208753766Y-58932410D01*
X208753766Y-58797624D01*
X208826732Y-58793083D01*
X208882334Y-58780014D01*
X208917861Y-58759244D01*
X208928020Y-58744448D01*
X208935104Y-58706536D01*
X208933007Y-58661473D01*
X208922812Y-58622513D01*
X208917204Y-58612296D01*
X208884538Y-58585341D01*
X208834545Y-58567549D01*
X208773705Y-58559976D01*
X208708497Y-58563675D01*
X208669253Y-58571943D01*
X208623805Y-58595680D01*
X208595396Y-58633151D01*
X208585573Y-58678280D01*
X208595887Y-58724989D01*
X208621112Y-58760868D01*
X208641925Y-58779723D01*
X208662439Y-58790728D01*
X208690203Y-58795974D01*
X208732762Y-58797551D01*
X208753766Y-58797624D01*
X208753766Y-58932410D01*
X208697580Y-58931906D01*
X208610501Y-58914612D01*
X208542530Y-58880971D01*
X208493664Y-58830982D01*
X208463899Y-58764644D01*
X208460448Y-58750399D01*
X208452345Y-58664790D01*
X208466055Y-58589238D01*
X208466055Y-58589238D01*
G37*
X208466055Y-58589238D02*
X208500692Y-58525637D01*
X208555372Y-58475877D01*
X208599842Y-58452432D01*
X208639121Y-58442366D01*
X208695116Y-58435844D01*
X208759621Y-58433049D01*
X208824429Y-58434164D01*
X208881334Y-58439374D01*
X208911727Y-58445459D01*
X208953306Y-58465986D01*
X208997468Y-58501537D01*
X209036087Y-58544381D01*
X209061034Y-58586789D01*
X209061430Y-58587823D01*
X209072331Y-58640447D01*
X209072601Y-58702812D01*
X209062676Y-58762076D01*
X209054722Y-58784960D01*
X209021300Y-58843898D01*
X208977511Y-58886110D01*
X208919538Y-58913844D01*
X208843565Y-58929349D01*
X208803771Y-58932857D01*
X208753766Y-58932410D01*
X208753766Y-58797624D01*
X208826732Y-58793083D01*
X208882334Y-58780014D01*
X208917861Y-58759244D01*
X208928020Y-58744448D01*
X208935104Y-58706536D01*
X208933007Y-58661473D01*
X208922812Y-58622513D01*
X208917204Y-58612296D01*
X208884538Y-58585341D01*
X208834545Y-58567549D01*
X208773705Y-58559976D01*
X208708497Y-58563675D01*
X208669253Y-58571943D01*
X208623805Y-58595680D01*
X208595396Y-58633151D01*
X208585573Y-58678280D01*
X208595887Y-58724989D01*
X208621112Y-58760868D01*
X208641925Y-58779723D01*
X208662439Y-58790728D01*
X208690203Y-58795974D01*
X208732762Y-58797551D01*
X208753766Y-58797624D01*
X208753766Y-58932410D01*
X208697580Y-58931906D01*
X208610501Y-58914612D01*
X208542530Y-58880971D01*
X208493664Y-58830982D01*
X208463899Y-58764644D01*
X208460448Y-58750399D01*
X208452345Y-58664790D01*
X208466055Y-58589238D01*
G36*
X208654342Y-58206633D02*
X208746563Y-58205445D01*
X208816610Y-58201103D01*
X208867381Y-58192442D01*
X208901772Y-58178296D01*
X208922679Y-58157500D01*
X208933000Y-58128890D01*
X208935636Y-58093465D01*
X208932682Y-58056364D01*
X208921889Y-58028182D01*
X208900360Y-58007757D01*
X208865199Y-57993921D01*
X208813510Y-57985509D01*
X208742394Y-57981357D01*
X208654342Y-57980297D01*
X208458614Y-57980297D01*
X208458614Y-57841980D01*
X209062179Y-57841980D01*
X209062179Y-57911138D01*
X209060489Y-57952830D01*
X209054556Y-57974299D01*
X209043293Y-57980297D01*
X209033261Y-57983909D01*
X209035383Y-57998286D01*
X209049580Y-58027264D01*
X209071480Y-58093681D01*
X209069928Y-58164125D01*
X209046147Y-58231623D01*
X209027362Y-58263767D01*
X209007022Y-58288285D01*
X208981573Y-58306196D01*
X208947458Y-58318521D01*
X208901121Y-58326277D01*
X208839007Y-58330484D01*
X208757561Y-58332160D01*
X208694578Y-58332376D01*
X208458614Y-58332376D01*
X208458614Y-58206633D01*
X208654342Y-58206633D01*
X208654342Y-58206633D01*
G37*
X208654342Y-58206633D02*
X208746563Y-58205445D01*
X208816610Y-58201103D01*
X208867381Y-58192442D01*
X208901772Y-58178296D01*
X208922679Y-58157500D01*
X208933000Y-58128890D01*
X208935636Y-58093465D01*
X208932682Y-58056364D01*
X208921889Y-58028182D01*
X208900360Y-58007757D01*
X208865199Y-57993921D01*
X208813510Y-57985509D01*
X208742394Y-57981357D01*
X208654342Y-57980297D01*
X208458614Y-57980297D01*
X208458614Y-57841980D01*
X209062179Y-57841980D01*
X209062179Y-57911138D01*
X209060489Y-57952830D01*
X209054556Y-57974299D01*
X209043293Y-57980297D01*
X209033261Y-57983909D01*
X209035383Y-57998286D01*
X209049580Y-58027264D01*
X209071480Y-58093681D01*
X209069928Y-58164125D01*
X209046147Y-58231623D01*
X209027362Y-58263767D01*
X209007022Y-58288285D01*
X208981573Y-58306196D01*
X208947458Y-58318521D01*
X208901121Y-58326277D01*
X208839007Y-58330484D01*
X208757561Y-58332160D01*
X208694578Y-58332376D01*
X208458614Y-58332376D01*
X208458614Y-58206633D01*
X208654342Y-58206633D01*
G36*
X208463880Y-56982774D02*
X208494830Y-56909920D01*
X208509895Y-56886973D01*
X208533048Y-56857646D01*
X208551253Y-56839236D01*
X208557183Y-56836039D01*
X208570340Y-56845065D01*
X208592667Y-56868163D01*
X208608250Y-56886656D01*
X208648926Y-56937272D01*
X208615295Y-56977240D01*
X208593584Y-57008126D01*
X208586090Y-57038241D01*
X208587920Y-57072708D01*
X208601528Y-57127439D01*
X208629772Y-57165114D01*
X208675433Y-57188009D01*
X208741289Y-57198403D01*
X208741331Y-57198405D01*
X208814939Y-57197506D01*
X208868946Y-57183537D01*
X208905716Y-57155672D01*
X208918168Y-57136675D01*
X208933673Y-57086224D01*
X208933683Y-57032337D01*
X208918638Y-56985454D01*
X208911287Y-56974356D01*
X208892511Y-56946524D01*
X208889434Y-56924764D01*
X208903409Y-56901296D01*
X208928510Y-56875351D01*
X208970880Y-56834284D01*
X209008464Y-56879879D01*
X209050882Y-56950326D01*
X209071785Y-57029767D01*
X209070272Y-57112785D01*
X209056411Y-57167306D01*
X209022135Y-57231030D01*
X208968212Y-57281995D01*
X208930149Y-57305149D01*
X208875536Y-57323901D01*
X208806369Y-57333285D01*
X208731407Y-57333357D01*
X208659409Y-57324176D01*
X208599137Y-57305801D01*
X208592958Y-57302907D01*
X208532351Y-57260048D01*
X208488224Y-57202021D01*
X208461493Y-57133409D01*
X208453073Y-57058799D01*
X208463880Y-56982774D01*
X208463880Y-56982774D01*
G37*
X208463880Y-56982774D02*
X208494830Y-56909920D01*
X208509895Y-56886973D01*
X208533048Y-56857646D01*
X208551253Y-56839236D01*
X208557183Y-56836039D01*
X208570340Y-56845065D01*
X208592667Y-56868163D01*
X208608250Y-56886656D01*
X208648926Y-56937272D01*
X208615295Y-56977240D01*
X208593584Y-57008126D01*
X208586090Y-57038241D01*
X208587920Y-57072708D01*
X208601528Y-57127439D01*
X208629772Y-57165114D01*
X208675433Y-57188009D01*
X208741289Y-57198403D01*
X208741331Y-57198405D01*
X208814939Y-57197506D01*
X208868946Y-57183537D01*
X208905716Y-57155672D01*
X208918168Y-57136675D01*
X208933673Y-57086224D01*
X208933683Y-57032337D01*
X208918638Y-56985454D01*
X208911287Y-56974356D01*
X208892511Y-56946524D01*
X208889434Y-56924764D01*
X208903409Y-56901296D01*
X208928510Y-56875351D01*
X208970880Y-56834284D01*
X209008464Y-56879879D01*
X209050882Y-56950326D01*
X209071785Y-57029767D01*
X209070272Y-57112785D01*
X209056411Y-57167306D01*
X209022135Y-57231030D01*
X208968212Y-57281995D01*
X208930149Y-57305149D01*
X208875536Y-57323901D01*
X208806369Y-57333285D01*
X208731407Y-57333357D01*
X208659409Y-57324176D01*
X208599137Y-57305801D01*
X208592958Y-57302907D01*
X208532351Y-57260048D01*
X208488224Y-57202021D01*
X208461493Y-57133409D01*
X208453073Y-57058799D01*
X208463880Y-56982774D01*
G36*
X208456457Y-56522102D02*
X208464279Y-56489904D01*
X208492921Y-56428175D01*
X208536667Y-56375390D01*
X208589117Y-56338859D01*
X208600893Y-56333840D01*
X208631740Y-56326955D01*
X208677371Y-56322136D01*
X208723492Y-56320495D01*
X208810693Y-56320495D01*
X208810693Y-56502822D01*
X208810978Y-56578021D01*
X208812704Y-56630997D01*
X208817181Y-56664675D01*
X208825720Y-56681980D01*
X208839630Y-56685837D01*
X208860222Y-56679171D01*
X208884315Y-56667230D01*
X208924525Y-56633920D01*
X208944558Y-56587632D01*
X208943905Y-56531056D01*
X208922101Y-56466969D01*
X208895193Y-56411583D01*
X208931532Y-56365625D01*
X208967872Y-56319667D01*
X209007819Y-56362904D01*
X209045563Y-56420626D01*
X209068320Y-56491614D01*
X209074688Y-56567971D01*
X209063268Y-56641801D01*
X209059393Y-56653713D01*
X209025506Y-56718601D01*
X208974986Y-56766870D01*
X208906325Y-56799535D01*
X208818014Y-56817615D01*
X208816121Y-56817825D01*
X208719878Y-56819444D01*
X208685542Y-56812900D01*
X208685542Y-56685148D01*
X208690822Y-56673416D01*
X208694867Y-56641562D01*
X208697176Y-56594603D01*
X208697525Y-56564846D01*
X208697306Y-56509352D01*
X208695916Y-56474654D01*
X208692251Y-56456399D01*
X208685210Y-56450234D01*
X208673690Y-56451805D01*
X208669233Y-56453122D01*
X208627355Y-56475618D01*
X208593604Y-56510997D01*
X208578773Y-56542220D01*
X208579668Y-56583699D01*
X208598164Y-56625731D01*
X208628786Y-56660988D01*
X208666062Y-56682146D01*
X208685542Y-56685148D01*
X208685542Y-56812900D01*
X208635229Y-56803310D01*
X208564191Y-56771302D01*
X208508779Y-56725299D01*
X208471009Y-56667179D01*
X208452896Y-56598820D01*
X208456457Y-56522102D01*
X208456457Y-56522102D01*
G37*
X208456457Y-56522102D02*
X208464279Y-56489904D01*
X208492921Y-56428175D01*
X208536667Y-56375390D01*
X208589117Y-56338859D01*
X208600893Y-56333840D01*
X208631740Y-56326955D01*
X208677371Y-56322136D01*
X208723492Y-56320495D01*
X208810693Y-56320495D01*
X208810693Y-56502822D01*
X208810978Y-56578021D01*
X208812704Y-56630997D01*
X208817181Y-56664675D01*
X208825720Y-56681980D01*
X208839630Y-56685837D01*
X208860222Y-56679171D01*
X208884315Y-56667230D01*
X208924525Y-56633920D01*
X208944558Y-56587632D01*
X208943905Y-56531056D01*
X208922101Y-56466969D01*
X208895193Y-56411583D01*
X208931532Y-56365625D01*
X208967872Y-56319667D01*
X209007819Y-56362904D01*
X209045563Y-56420626D01*
X209068320Y-56491614D01*
X209074688Y-56567971D01*
X209063268Y-56641801D01*
X209059393Y-56653713D01*
X209025506Y-56718601D01*
X208974986Y-56766870D01*
X208906325Y-56799535D01*
X208818014Y-56817615D01*
X208816121Y-56817825D01*
X208719878Y-56819444D01*
X208685542Y-56812900D01*
X208685542Y-56685148D01*
X208690822Y-56673416D01*
X208694867Y-56641562D01*
X208697176Y-56594603D01*
X208697525Y-56564846D01*
X208697306Y-56509352D01*
X208695916Y-56474654D01*
X208692251Y-56456399D01*
X208685210Y-56450234D01*
X208673690Y-56451805D01*
X208669233Y-56453122D01*
X208627355Y-56475618D01*
X208593604Y-56510997D01*
X208578773Y-56542220D01*
X208579668Y-56583699D01*
X208598164Y-56625731D01*
X208628786Y-56660988D01*
X208666062Y-56682146D01*
X208685542Y-56685148D01*
X208685542Y-56812900D01*
X208635229Y-56803310D01*
X208564191Y-56771302D01*
X208508779Y-56725299D01*
X208471009Y-56667179D01*
X208452896Y-56598820D01*
X208456457Y-56522102D01*
G36*
X208469002Y-59954012D02*
X208483950Y-59922717D01*
X208505541Y-59892409D01*
X208530391Y-59869318D01*
X208562087Y-59852500D01*
X208604214Y-59841006D01*
X208660358Y-59833891D01*
X208734106Y-59830207D01*
X208829044Y-59829008D01*
X208838985Y-59828989D01*
X209062179Y-59828713D01*
X209062179Y-59967030D01*
X208856418Y-59967030D01*
X208780189Y-59967128D01*
X208724939Y-59967809D01*
X208686501Y-59969651D01*
X208660706Y-59973233D01*
X208643384Y-59979132D01*
X208630368Y-59987927D01*
X208617507Y-60000180D01*
X208589873Y-60043047D01*
X208584745Y-60089843D01*
X208602217Y-60134424D01*
X208615221Y-60149928D01*
X208627447Y-60161310D01*
X208640540Y-60169481D01*
X208658615Y-60174974D01*
X208685787Y-60178320D01*
X208726170Y-60180051D01*
X208783879Y-60180697D01*
X208854132Y-60180792D01*
X209062179Y-60180792D01*
X209062179Y-60319109D01*
X208458614Y-60319109D01*
X208458614Y-60249950D01*
X208460256Y-60208428D01*
X208466087Y-60187006D01*
X208477461Y-60180795D01*
X208477798Y-60180792D01*
X208488938Y-60177910D01*
X208487674Y-60165199D01*
X208475434Y-60139926D01*
X208457424Y-60082605D01*
X208455421Y-60017037D01*
X208469002Y-59954012D01*
X208469002Y-59954012D01*
G37*
X208469002Y-59954012D02*
X208483950Y-59922717D01*
X208505541Y-59892409D01*
X208530391Y-59869318D01*
X208562087Y-59852500D01*
X208604214Y-59841006D01*
X208660358Y-59833891D01*
X208734106Y-59830207D01*
X208829044Y-59829008D01*
X208838985Y-59828989D01*
X209062179Y-59828713D01*
X209062179Y-59967030D01*
X208856418Y-59967030D01*
X208780189Y-59967128D01*
X208724939Y-59967809D01*
X208686501Y-59969651D01*
X208660706Y-59973233D01*
X208643384Y-59979132D01*
X208630368Y-59987927D01*
X208617507Y-60000180D01*
X208589873Y-60043047D01*
X208584745Y-60089843D01*
X208602217Y-60134424D01*
X208615221Y-60149928D01*
X208627447Y-60161310D01*
X208640540Y-60169481D01*
X208658615Y-60174974D01*
X208685787Y-60178320D01*
X208726170Y-60180051D01*
X208783879Y-60180697D01*
X208854132Y-60180792D01*
X209062179Y-60180792D01*
X209062179Y-60319109D01*
X208458614Y-60319109D01*
X208458614Y-60249950D01*
X208460256Y-60208428D01*
X208466087Y-60187006D01*
X208477461Y-60180795D01*
X208477798Y-60180792D01*
X208488938Y-60177910D01*
X208487674Y-60165199D01*
X208475434Y-60139926D01*
X208457424Y-60082605D01*
X208455421Y-60017037D01*
X208469002Y-59954012D01*
G36*
X208458030Y-57400540D02*
X208471245Y-57357289D01*
X208487941Y-57329442D01*
X208501145Y-57320371D01*
X208516797Y-57322868D01*
X208541385Y-57339069D01*
X208558800Y-57352768D01*
X208590283Y-57381008D01*
X208603529Y-57402225D01*
X208602664Y-57420312D01*
X208589010Y-57473965D01*
X208589630Y-57513370D01*
X208605104Y-57545368D01*
X208614161Y-57556110D01*
X208646027Y-57590495D01*
X209062179Y-57590495D01*
X209062179Y-57728812D01*
X208458614Y-57728812D01*
X208458614Y-57659653D01*
X208460256Y-57618131D01*
X208466087Y-57596709D01*
X208477461Y-57590498D01*
X208477798Y-57590495D01*
X208489713Y-57587561D01*
X208488159Y-57574296D01*
X208479563Y-57555916D01*
X208463568Y-57517954D01*
X208453945Y-57487128D01*
X208451478Y-57447464D01*
X208458030Y-57400540D01*
X208458030Y-57400540D01*
G37*
X208458030Y-57400540D02*
X208471245Y-57357289D01*
X208487941Y-57329442D01*
X208501145Y-57320371D01*
X208516797Y-57322868D01*
X208541385Y-57339069D01*
X208558800Y-57352768D01*
X208590283Y-57381008D01*
X208603529Y-57402225D01*
X208602664Y-57420312D01*
X208589010Y-57473965D01*
X208589630Y-57513370D01*
X208605104Y-57545368D01*
X208614161Y-57556110D01*
X208646027Y-57590495D01*
X209062179Y-57590495D01*
X209062179Y-57728812D01*
X208458614Y-57728812D01*
X208458614Y-57659653D01*
X208460256Y-57618131D01*
X208466087Y-57596709D01*
X208477461Y-57590498D01*
X208477798Y-57590495D01*
X208489713Y-57587561D01*
X208488159Y-57574296D01*
X208479563Y-57555916D01*
X208463568Y-57517954D01*
X208453945Y-57487128D01*
X208451478Y-57447464D01*
X208458030Y-57400540D01*
G36*
X204290018Y-58823036D02*
X204591570Y-58766188D01*
X204764512Y-58346662D01*
X204593395Y-58095016D01*
X204545750Y-58024542D01*
X204503210Y-57960837D01*
X204467715Y-57906874D01*
X204441210Y-57865627D01*
X204425636Y-57840066D01*
X204422278Y-57833105D01*
X204430914Y-57820565D01*
X204454792Y-57793769D01*
X204490859Y-57755720D01*
X204536067Y-57709421D01*
X204587364Y-57657877D01*
X204641701Y-57604091D01*
X204696028Y-57551065D01*
X204747295Y-57501805D01*
X204792451Y-57459313D01*
X204828446Y-57426593D01*
X204852230Y-57406649D01*
X204860190Y-57401881D01*
X204874865Y-57408743D01*
X204907014Y-57427980D01*
X204953492Y-57457570D01*
X205011156Y-57495490D01*
X205076860Y-57539718D01*
X205114336Y-57565346D01*
X205182768Y-57612059D01*
X205244520Y-57653568D01*
X205296519Y-57687860D01*
X205335692Y-57712920D01*
X205358965Y-57726736D01*
X205363855Y-57728812D01*
X205377755Y-57724105D01*
X205410150Y-57711277D01*
X205456485Y-57692262D01*
X205512206Y-57668997D01*
X205572758Y-57643416D01*
X205633586Y-57617455D01*
X205690136Y-57593050D01*
X205737852Y-57572137D01*
X205772181Y-57556651D01*
X205788568Y-57548528D01*
X205789212Y-57548048D01*
X205792341Y-57535293D01*
X205799321Y-57501323D01*
X205809467Y-57449660D01*
X205822092Y-57383824D01*
X205836509Y-57307336D01*
X205844823Y-57262710D01*
X205860384Y-57180979D01*
X205875192Y-57107157D01*
X205888436Y-57044979D01*
X205899305Y-56998178D01*
X205906989Y-56970491D01*
X205909427Y-56964926D01*
X205925930Y-56959474D01*
X205963200Y-56955076D01*
X206016880Y-56951728D01*
X206082612Y-56949426D01*
X206156037Y-56948168D01*
X206232796Y-56947952D01*
X206308532Y-56948773D01*
X206378886Y-56950629D01*
X206439500Y-56953518D01*
X206486016Y-56957435D01*
X206514075Y-56962378D01*
X206519916Y-56965343D01*
X206526917Y-56983066D01*
X206536927Y-57020619D01*
X206548769Y-57073036D01*
X206561267Y-57135348D01*
X206565310Y-57157100D01*
X206584520Y-57261976D01*
X206599991Y-57344820D01*
X206612337Y-57408370D01*
X206622173Y-57455363D01*
X206630114Y-57488537D01*
X206636776Y-57510629D01*
X206642773Y-57524376D01*
X206648719Y-57532516D01*
X206649894Y-57533655D01*
X206668826Y-57545023D01*
X206705669Y-57562365D01*
X206755913Y-57583950D01*
X206815046Y-57608046D01*
X206878556Y-57632921D01*
X206941932Y-57656843D01*
X207000662Y-57678081D01*
X207050235Y-57694903D01*
X207086139Y-57705578D01*
X207103862Y-57708373D01*
X207104483Y-57708140D01*
X207118970Y-57698669D01*
X207150844Y-57677182D01*
X207196789Y-57645937D01*
X207253485Y-57607193D01*
X207317617Y-57563207D01*
X207335842Y-57550681D01*
X207401914Y-57506016D01*
X207462200Y-57466712D01*
X207513235Y-57434912D01*
X207551560Y-57412755D01*
X207573711Y-57402383D01*
X207576432Y-57401881D01*
X207590736Y-57410595D01*
X207619072Y-57434675D01*
X207658396Y-57471024D01*
X207705661Y-57516547D01*
X207757823Y-57568148D01*
X207811835Y-57622733D01*
X207864653Y-57677206D01*
X207913231Y-57728471D01*
X207954523Y-57773433D01*
X207985485Y-57808996D01*
X208003070Y-57832065D01*
X208005941Y-57838446D01*
X207999178Y-57853301D01*
X207980939Y-57883714D01*
X207954297Y-57924732D01*
X207932852Y-57956291D01*
X207893503Y-58013475D01*
X207847171Y-58081194D01*
X207800913Y-58149120D01*
X207776155Y-58185639D01*
X207692547Y-58309248D01*
X207748650Y-58413009D01*
X207773228Y-58460280D01*
X207792331Y-58500477D01*
X207803227Y-58527674D01*
X207804743Y-58534598D01*
X207793549Y-58542923D01*
X207761917Y-58559346D01*
X207712765Y-58582643D01*
X207649010Y-58611586D01*
X207573571Y-58644950D01*
X207489364Y-58681509D01*
X207399308Y-58720036D01*
X207306321Y-58759306D01*
X207213320Y-58798092D01*
X207123223Y-58835170D01*
X207038948Y-58869311D01*
X206963413Y-58899292D01*
X206899534Y-58923884D01*
X206850231Y-58941864D01*
X206818421Y-58952003D01*
X206807496Y-58953634D01*
X206793561Y-58940709D01*
X206770940Y-58912411D01*
X206744333Y-58874654D01*
X206742228Y-58871485D01*
X206664114Y-58773900D01*
X206572982Y-58695214D01*
X206471745Y-58636109D01*
X206363318Y-58597268D01*
X206250614Y-58579372D01*
X206136548Y-58583103D01*
X206024034Y-58609143D01*
X205915985Y-58658175D01*
X205892345Y-58672600D01*
X205796887Y-58747631D01*
X205720232Y-58836270D01*
X205662780Y-58935451D01*
X205624929Y-59042105D01*
X205607078Y-59153164D01*
X205609625Y-59265561D01*
X205632970Y-59376227D01*
X205677510Y-59482094D01*
X205743645Y-59580095D01*
X205770487Y-59610410D01*
X205854512Y-59687562D01*
X205942966Y-59743782D01*
X206042115Y-59782347D01*
X206140303Y-59803826D01*
X206250697Y-59809128D01*
X206361640Y-59791448D01*
X206469381Y-59752581D01*
X206570169Y-59694323D01*
X206660256Y-59618469D01*
X206735892Y-59526817D01*
X206743864Y-59514772D01*
X206769974Y-59476611D01*
X206792595Y-59447601D01*
X206807039Y-59433732D01*
X206807496Y-59433531D01*
X206823121Y-59436508D01*
X206858582Y-59448311D01*
X206910962Y-59467714D01*
X206977345Y-59493488D01*
X207054814Y-59524409D01*
X207140450Y-59559249D01*
X207231337Y-59596783D01*
X207324559Y-59635783D01*
X207417197Y-59675023D01*
X207506335Y-59713276D01*
X207589055Y-59749317D01*
X207662441Y-59781917D01*
X207723575Y-59809852D01*
X207769541Y-59831895D01*
X207797421Y-59846818D01*
X207804743Y-59852828D01*
X207799041Y-59871191D01*
X207783749Y-59905552D01*
X207761599Y-59949984D01*
X207748650Y-59974417D01*
X207692547Y-60078178D01*
X207776155Y-60201787D01*
X207818987Y-60264886D01*
X207866122Y-60333970D01*
X207910503Y-60398707D01*
X207932852Y-60431134D01*
X207963477Y-60476741D01*
X207987747Y-60515360D01*
X208002587Y-60541952D01*
X208005724Y-60550590D01*
X207997261Y-60563161D01*
X207973636Y-60590984D01*
X207937302Y-60631361D01*
X207890711Y-60681595D01*
X207836317Y-60738988D01*
X207801392Y-60775286D01*
X207738996Y-60838790D01*
X207683188Y-60893673D01*
X207636354Y-60937714D01*
X207600882Y-60968695D01*
X207579161Y-60984398D01*
X207574752Y-60985905D01*
X207557985Y-60978914D01*
X207524082Y-60959594D01*
X207476476Y-60930091D01*
X207418599Y-60892545D01*
X207353884Y-60849100D01*
X207335842Y-60836745D01*
X207270267Y-60791727D01*
X207211228Y-60751340D01*
X207162042Y-60717840D01*
X207126028Y-60693486D01*
X207106502Y-60680536D01*
X207104483Y-60679285D01*
X207088922Y-60681156D01*
X207054709Y-60691087D01*
X207006355Y-60707347D01*
X206948371Y-60728205D01*
X206885270Y-60751927D01*
X206821563Y-60776784D01*
X206761761Y-60801042D01*
X206710376Y-60822971D01*
X206671919Y-60840838D01*
X206650902Y-60852913D01*
X206649894Y-60853771D01*
X206643888Y-60861154D01*
X206637948Y-60873625D01*
X206631460Y-60893920D01*
X206623809Y-60924778D01*
X206614380Y-60968934D01*
X206602559Y-61029126D01*
X206587729Y-61108093D01*
X206569277Y-61208570D01*
X206565310Y-61230325D01*
X206552853Y-61294802D01*
X206540666Y-61351011D01*
X206529926Y-61393987D01*
X206521809Y-61418760D01*
X206519916Y-61422082D01*
X206503138Y-61427556D01*
X206465645Y-61432006D01*
X206411794Y-61435428D01*
X206345944Y-61437819D01*
X206272453Y-61439177D01*
X206195680Y-61439499D01*
X206119983Y-61438781D01*
X206049720Y-61437021D01*
X205989250Y-61434216D01*
X205942930Y-61430362D01*
X205915119Y-61425457D01*
X205909427Y-61422500D01*
X205903686Y-61406037D01*
X205894345Y-61368551D01*
X205882215Y-61313775D01*
X205868107Y-61245445D01*
X205852830Y-61167294D01*
X205844823Y-61124716D01*
X205829721Y-61043929D01*
X205816040Y-60971887D01*
X205804467Y-60912111D01*
X205795687Y-60868121D01*
X205790387Y-60843439D01*
X205789212Y-60839377D01*
X205775965Y-60832511D01*
X205744057Y-60817998D01*
X205698047Y-60797771D01*
X205642492Y-60773766D01*
X205581953Y-60747918D01*
X205520986Y-60722160D01*
X205464151Y-60698427D01*
X205416006Y-60678654D01*
X205381110Y-60664776D01*
X205364021Y-60658726D01*
X205363274Y-60658614D01*
X205349793Y-60665472D01*
X205318770Y-60684698D01*
X205273289Y-60714272D01*
X205216432Y-60752173D01*
X205151283Y-60796380D01*
X205113862Y-60822079D01*
X205045247Y-60868907D01*
X204982952Y-60910499D01*
X204930129Y-60944825D01*
X204889927Y-60969857D01*
X204865500Y-60983565D01*
X204860024Y-60985544D01*
X204847278Y-60977034D01*
X204820063Y-60953507D01*
X204781428Y-60917968D01*
X204734423Y-60873423D01*
X204682095Y-60822877D01*
X204627495Y-60769336D01*
X204573670Y-60715805D01*
X204523670Y-60665289D01*
X204480543Y-60620794D01*
X204447339Y-60585325D01*
X204427106Y-60561887D01*
X204422278Y-60554046D01*
X204429067Y-60541280D01*
X204448142Y-60510744D01*
X204477561Y-60465410D01*
X204515381Y-60408244D01*
X204559661Y-60342216D01*
X204593395Y-60292410D01*
X204764512Y-60040764D01*
X204678041Y-59831001D01*
X204591570Y-59621237D01*
X204290018Y-59564389D01*
X203988466Y-59507540D01*
X203988466Y-58879885D01*
X204290018Y-58823036D01*
X204290018Y-58823036D01*
G37*
X204290018Y-58823036D02*
X204591570Y-58766188D01*
X204764512Y-58346662D01*
X204593395Y-58095016D01*
X204545750Y-58024542D01*
X204503210Y-57960837D01*
X204467715Y-57906874D01*
X204441210Y-57865627D01*
X204425636Y-57840066D01*
X204422278Y-57833105D01*
X204430914Y-57820565D01*
X204454792Y-57793769D01*
X204490859Y-57755720D01*
X204536067Y-57709421D01*
X204587364Y-57657877D01*
X204641701Y-57604091D01*
X204696028Y-57551065D01*
X204747295Y-57501805D01*
X204792451Y-57459313D01*
X204828446Y-57426593D01*
X204852230Y-57406649D01*
X204860190Y-57401881D01*
X204874865Y-57408743D01*
X204907014Y-57427980D01*
X204953492Y-57457570D01*
X205011156Y-57495490D01*
X205076860Y-57539718D01*
X205114336Y-57565346D01*
X205182768Y-57612059D01*
X205244520Y-57653568D01*
X205296519Y-57687860D01*
X205335692Y-57712920D01*
X205358965Y-57726736D01*
X205363855Y-57728812D01*
X205377755Y-57724105D01*
X205410150Y-57711277D01*
X205456485Y-57692262D01*
X205512206Y-57668997D01*
X205572758Y-57643416D01*
X205633586Y-57617455D01*
X205690136Y-57593050D01*
X205737852Y-57572137D01*
X205772181Y-57556651D01*
X205788568Y-57548528D01*
X205789212Y-57548048D01*
X205792341Y-57535293D01*
X205799321Y-57501323D01*
X205809467Y-57449660D01*
X205822092Y-57383824D01*
X205836509Y-57307336D01*
X205844823Y-57262710D01*
X205860384Y-57180979D01*
X205875192Y-57107157D01*
X205888436Y-57044979D01*
X205899305Y-56998178D01*
X205906989Y-56970491D01*
X205909427Y-56964926D01*
X205925930Y-56959474D01*
X205963200Y-56955076D01*
X206016880Y-56951728D01*
X206082612Y-56949426D01*
X206156037Y-56948168D01*
X206232796Y-56947952D01*
X206308532Y-56948773D01*
X206378886Y-56950629D01*
X206439500Y-56953518D01*
X206486016Y-56957435D01*
X206514075Y-56962378D01*
X206519916Y-56965343D01*
X206526917Y-56983066D01*
X206536927Y-57020619D01*
X206548769Y-57073036D01*
X206561267Y-57135348D01*
X206565310Y-57157100D01*
X206584520Y-57261976D01*
X206599991Y-57344820D01*
X206612337Y-57408370D01*
X206622173Y-57455363D01*
X206630114Y-57488537D01*
X206636776Y-57510629D01*
X206642773Y-57524376D01*
X206648719Y-57532516D01*
X206649894Y-57533655D01*
X206668826Y-57545023D01*
X206705669Y-57562365D01*
X206755913Y-57583950D01*
X206815046Y-57608046D01*
X206878556Y-57632921D01*
X206941932Y-57656843D01*
X207000662Y-57678081D01*
X207050235Y-57694903D01*
X207086139Y-57705578D01*
X207103862Y-57708373D01*
X207104483Y-57708140D01*
X207118970Y-57698669D01*
X207150844Y-57677182D01*
X207196789Y-57645937D01*
X207253485Y-57607193D01*
X207317617Y-57563207D01*
X207335842Y-57550681D01*
X207401914Y-57506016D01*
X207462200Y-57466712D01*
X207513235Y-57434912D01*
X207551560Y-57412755D01*
X207573711Y-57402383D01*
X207576432Y-57401881D01*
X207590736Y-57410595D01*
X207619072Y-57434675D01*
X207658396Y-57471024D01*
X207705661Y-57516547D01*
X207757823Y-57568148D01*
X207811835Y-57622733D01*
X207864653Y-57677206D01*
X207913231Y-57728471D01*
X207954523Y-57773433D01*
X207985485Y-57808996D01*
X208003070Y-57832065D01*
X208005941Y-57838446D01*
X207999178Y-57853301D01*
X207980939Y-57883714D01*
X207954297Y-57924732D01*
X207932852Y-57956291D01*
X207893503Y-58013475D01*
X207847171Y-58081194D01*
X207800913Y-58149120D01*
X207776155Y-58185639D01*
X207692547Y-58309248D01*
X207748650Y-58413009D01*
X207773228Y-58460280D01*
X207792331Y-58500477D01*
X207803227Y-58527674D01*
X207804743Y-58534598D01*
X207793549Y-58542923D01*
X207761917Y-58559346D01*
X207712765Y-58582643D01*
X207649010Y-58611586D01*
X207573571Y-58644950D01*
X207489364Y-58681509D01*
X207399308Y-58720036D01*
X207306321Y-58759306D01*
X207213320Y-58798092D01*
X207123223Y-58835170D01*
X207038948Y-58869311D01*
X206963413Y-58899292D01*
X206899534Y-58923884D01*
X206850231Y-58941864D01*
X206818421Y-58952003D01*
X206807496Y-58953634D01*
X206793561Y-58940709D01*
X206770940Y-58912411D01*
X206744333Y-58874654D01*
X206742228Y-58871485D01*
X206664114Y-58773900D01*
X206572982Y-58695214D01*
X206471745Y-58636109D01*
X206363318Y-58597268D01*
X206250614Y-58579372D01*
X206136548Y-58583103D01*
X206024034Y-58609143D01*
X205915985Y-58658175D01*
X205892345Y-58672600D01*
X205796887Y-58747631D01*
X205720232Y-58836270D01*
X205662780Y-58935451D01*
X205624929Y-59042105D01*
X205607078Y-59153164D01*
X205609625Y-59265561D01*
X205632970Y-59376227D01*
X205677510Y-59482094D01*
X205743645Y-59580095D01*
X205770487Y-59610410D01*
X205854512Y-59687562D01*
X205942966Y-59743782D01*
X206042115Y-59782347D01*
X206140303Y-59803826D01*
X206250697Y-59809128D01*
X206361640Y-59791448D01*
X206469381Y-59752581D01*
X206570169Y-59694323D01*
X206660256Y-59618469D01*
X206735892Y-59526817D01*
X206743864Y-59514772D01*
X206769974Y-59476611D01*
X206792595Y-59447601D01*
X206807039Y-59433732D01*
X206807496Y-59433531D01*
X206823121Y-59436508D01*
X206858582Y-59448311D01*
X206910962Y-59467714D01*
X206977345Y-59493488D01*
X207054814Y-59524409D01*
X207140450Y-59559249D01*
X207231337Y-59596783D01*
X207324559Y-59635783D01*
X207417197Y-59675023D01*
X207506335Y-59713276D01*
X207589055Y-59749317D01*
X207662441Y-59781917D01*
X207723575Y-59809852D01*
X207769541Y-59831895D01*
X207797421Y-59846818D01*
X207804743Y-59852828D01*
X207799041Y-59871191D01*
X207783749Y-59905552D01*
X207761599Y-59949984D01*
X207748650Y-59974417D01*
X207692547Y-60078178D01*
X207776155Y-60201787D01*
X207818987Y-60264886D01*
X207866122Y-60333970D01*
X207910503Y-60398707D01*
X207932852Y-60431134D01*
X207963477Y-60476741D01*
X207987747Y-60515360D01*
X208002587Y-60541952D01*
X208005724Y-60550590D01*
X207997261Y-60563161D01*
X207973636Y-60590984D01*
X207937302Y-60631361D01*
X207890711Y-60681595D01*
X207836317Y-60738988D01*
X207801392Y-60775286D01*
X207738996Y-60838790D01*
X207683188Y-60893673D01*
X207636354Y-60937714D01*
X207600882Y-60968695D01*
X207579161Y-60984398D01*
X207574752Y-60985905D01*
X207557985Y-60978914D01*
X207524082Y-60959594D01*
X207476476Y-60930091D01*
X207418599Y-60892545D01*
X207353884Y-60849100D01*
X207335842Y-60836745D01*
X207270267Y-60791727D01*
X207211228Y-60751340D01*
X207162042Y-60717840D01*
X207126028Y-60693486D01*
X207106502Y-60680536D01*
X207104483Y-60679285D01*
X207088922Y-60681156D01*
X207054709Y-60691087D01*
X207006355Y-60707347D01*
X206948371Y-60728205D01*
X206885270Y-60751927D01*
X206821563Y-60776784D01*
X206761761Y-60801042D01*
X206710376Y-60822971D01*
X206671919Y-60840838D01*
X206650902Y-60852913D01*
X206649894Y-60853771D01*
X206643888Y-60861154D01*
X206637948Y-60873625D01*
X206631460Y-60893920D01*
X206623809Y-60924778D01*
X206614380Y-60968934D01*
X206602559Y-61029126D01*
X206587729Y-61108093D01*
X206569277Y-61208570D01*
X206565310Y-61230325D01*
X206552853Y-61294802D01*
X206540666Y-61351011D01*
X206529926Y-61393987D01*
X206521809Y-61418760D01*
X206519916Y-61422082D01*
X206503138Y-61427556D01*
X206465645Y-61432006D01*
X206411794Y-61435428D01*
X206345944Y-61437819D01*
X206272453Y-61439177D01*
X206195680Y-61439499D01*
X206119983Y-61438781D01*
X206049720Y-61437021D01*
X205989250Y-61434216D01*
X205942930Y-61430362D01*
X205915119Y-61425457D01*
X205909427Y-61422500D01*
X205903686Y-61406037D01*
X205894345Y-61368551D01*
X205882215Y-61313775D01*
X205868107Y-61245445D01*
X205852830Y-61167294D01*
X205844823Y-61124716D01*
X205829721Y-61043929D01*
X205816040Y-60971887D01*
X205804467Y-60912111D01*
X205795687Y-60868121D01*
X205790387Y-60843439D01*
X205789212Y-60839377D01*
X205775965Y-60832511D01*
X205744057Y-60817998D01*
X205698047Y-60797771D01*
X205642492Y-60773766D01*
X205581953Y-60747918D01*
X205520986Y-60722160D01*
X205464151Y-60698427D01*
X205416006Y-60678654D01*
X205381110Y-60664776D01*
X205364021Y-60658726D01*
X205363274Y-60658614D01*
X205349793Y-60665472D01*
X205318770Y-60684698D01*
X205273289Y-60714272D01*
X205216432Y-60752173D01*
X205151283Y-60796380D01*
X205113862Y-60822079D01*
X205045247Y-60868907D01*
X204982952Y-60910499D01*
X204930129Y-60944825D01*
X204889927Y-60969857D01*
X204865500Y-60983565D01*
X204860024Y-60985544D01*
X204847278Y-60977034D01*
X204820063Y-60953507D01*
X204781428Y-60917968D01*
X204734423Y-60873423D01*
X204682095Y-60822877D01*
X204627495Y-60769336D01*
X204573670Y-60715805D01*
X204523670Y-60665289D01*
X204480543Y-60620794D01*
X204447339Y-60585325D01*
X204427106Y-60561887D01*
X204422278Y-60554046D01*
X204429067Y-60541280D01*
X204448142Y-60510744D01*
X204477561Y-60465410D01*
X204515381Y-60408244D01*
X204559661Y-60342216D01*
X204593395Y-60292410D01*
X204764512Y-60040764D01*
X204678041Y-59831001D01*
X204591570Y-59621237D01*
X204290018Y-59564389D01*
X203988466Y-59507540D01*
X203988466Y-58879885D01*
X204290018Y-58823036D01*
D14*
X87150000Y-82925000D02*
X91650000Y-82925000D01*
X86025000Y-77375000D02*
X91650000Y-77375000D01*
D13*
X128100000Y-81280000D02*
X127100000Y-81280000D01*
X127100000Y-79920000D02*
X128100000Y-79920000D01*
D15*
X132450000Y-95713000D02*
X133085000Y-95078000D01*
X144515000Y-95078000D02*
X145150000Y-95713000D01*
X133085000Y-95078000D02*
X144515000Y-95078000D01*
X132450000Y-107143000D02*
X132450000Y-95713000D01*
X133085000Y-107778000D02*
X132450000Y-107143000D01*
X144515000Y-107778000D02*
X133085000Y-107778000D01*
X145150000Y-107143000D02*
X144515000Y-107778000D01*
X145150000Y-95713000D02*
X145150000Y-107143000D01*
D14*
X150400000Y-104125000D02*
X154800000Y-104125000D01*
X148825000Y-98600000D02*
X154800000Y-98600000D01*
D13*
X148400000Y-52050000D02*
X139600000Y-52050000D01*
X139600000Y-55850000D02*
X139600000Y-48150000D01*
X139600000Y-48150000D02*
X148400000Y-48150000D01*
X148400000Y-48150000D02*
X148400000Y-48350000D01*
X141450000Y-61750000D02*
X139600000Y-61750000D01*
X139600000Y-61750000D02*
X139600000Y-60900000D01*
X148400000Y-48250000D02*
X148400000Y-61750000D01*
X148400000Y-61750000D02*
X146550000Y-61750000D01*
D14*
X164925000Y-57905555D02*
X164925000Y-54905555D01*
X161100000Y-57830555D02*
X161100000Y-54830555D01*
X202925000Y-51750000D02*
X202925000Y-48750000D01*
X199100000Y-51675000D02*
X199100000Y-48675000D01*
X193225000Y-51700000D02*
X193225000Y-48700000D01*
X189400000Y-51625000D02*
X189400000Y-48625000D01*
X183925000Y-51750000D02*
X183925000Y-48750000D01*
X180100000Y-51675000D02*
X180100000Y-48675000D01*
X174425000Y-51750000D02*
X174425000Y-48750000D01*
X170600000Y-51675000D02*
X170600000Y-48675000D01*
X164925000Y-51750000D02*
X164925000Y-48750000D01*
X161100000Y-51675000D02*
X161100000Y-48675000D01*
D13*
X146880000Y-78100000D02*
X146880000Y-79100000D01*
X145520000Y-79100000D02*
X145520000Y-78100000D01*
X128000000Y-91930000D02*
X130000000Y-91930000D01*
X130000000Y-94070000D02*
X128000000Y-94070000D01*
X89560000Y-60550000D02*
X87810000Y-60550000D01*
X87810000Y-65050000D02*
X89560000Y-65050000D01*
X87810000Y-64700000D02*
X87810000Y-65050000D01*
X87810000Y-60550000D02*
X87810000Y-60900000D01*
X140300000Y-89120000D02*
X141300000Y-89120000D01*
X141300000Y-90480000D02*
X140300000Y-90480000D01*
X134700000Y-87720000D02*
X135700000Y-87720000D01*
X135700000Y-89080000D02*
X134700000Y-89080000D01*
X127800000Y-86530000D02*
X129800000Y-86530000D01*
X129800000Y-88670000D02*
X127800000Y-88670000D01*
X142100000Y-85050000D02*
X142100000Y-84350000D01*
X143300000Y-84350000D02*
X143300000Y-85050000D01*
X134500000Y-84450000D02*
X134500000Y-83750000D01*
X135700000Y-83750000D02*
X135700000Y-84450000D01*
X127860000Y-65860000D02*
X127860000Y-66805000D01*
X133140000Y-65860000D02*
X127860000Y-65860000D01*
X133140000Y-66805000D02*
X133140000Y-65860000D01*
X127860000Y-71140000D02*
X127860000Y-70195000D01*
X133140000Y-71140000D02*
X127860000Y-71140000D01*
X133140000Y-70195000D02*
X133140000Y-71140000D01*
X154140000Y-82340000D02*
X154140000Y-81395000D01*
X148860000Y-82340000D02*
X154140000Y-82340000D01*
X148860000Y-81395000D02*
X148860000Y-82340000D01*
X154140000Y-77060000D02*
X154140000Y-78005000D01*
X148860000Y-77060000D02*
X154140000Y-77060000D01*
X148860000Y-78005000D02*
X148860000Y-77060000D01*
X114075000Y-69275000D02*
X114075000Y-68014500D01*
X107525000Y-69275000D02*
X114075000Y-69275000D01*
X107525000Y-68014500D02*
X107525000Y-69275000D01*
X114075000Y-62725000D02*
X114075000Y-63985500D01*
X107525000Y-62725000D02*
X114075000Y-62725000D01*
X107525000Y-63985500D02*
X107525000Y-62725000D01*
X132980000Y-79300000D02*
X132980000Y-80300000D01*
X131620000Y-80300000D02*
X131620000Y-79300000D01*
X138600000Y-82820000D02*
X139600000Y-82820000D01*
X139600000Y-84180000D02*
X138600000Y-84180000D01*
X128300000Y-76080000D02*
X127300000Y-76080000D01*
X127300000Y-74720000D02*
X128300000Y-74720000D01*
X132700000Y-76080000D02*
X131700000Y-76080000D01*
X131700000Y-74720000D02*
X132700000Y-74720000D01*
X112500000Y-82590000D02*
X118510000Y-82590000D01*
X114750000Y-89410000D02*
X118510000Y-89410000D01*
X118510000Y-82590000D02*
X118510000Y-83850000D01*
X118510000Y-89410000D02*
X118510000Y-88150000D01*
D14*
X183925000Y-61550000D02*
X183925000Y-58550000D01*
X180100000Y-61475000D02*
X180100000Y-58475000D01*
X202925000Y-94750000D02*
X202925000Y-91750000D01*
X199100000Y-94675000D02*
X199100000Y-91675000D01*
X202925000Y-82500000D02*
X202925000Y-79500000D01*
X199100000Y-82425000D02*
X199100000Y-79425000D01*
X202925000Y-76350000D02*
X202925000Y-73350000D01*
X199100000Y-76275000D02*
X199100000Y-73275000D01*
X202925000Y-70150000D02*
X202925000Y-67150000D01*
X199100000Y-70075000D02*
X199100000Y-67075000D01*
X202925000Y-64050000D02*
X202925000Y-61050000D01*
X199100000Y-63975000D02*
X199100000Y-60975000D01*
X202925000Y-57900000D02*
X202925000Y-54900000D01*
X199100000Y-57825000D02*
X199100000Y-54825000D01*
X193425000Y-107049982D02*
X193425000Y-104049982D01*
X189600000Y-106974982D02*
X189600000Y-103974982D01*
X193425000Y-100899984D02*
X193425000Y-97899984D01*
X189600000Y-100824984D02*
X189600000Y-97824984D01*
X193425000Y-94749986D02*
X193425000Y-91749986D01*
X189600000Y-94674986D02*
X189600000Y-91674986D01*
X193425000Y-88599988D02*
X193425000Y-85599988D01*
X189600000Y-88524988D02*
X189600000Y-85524988D01*
X193425000Y-76299992D02*
X193425000Y-73299992D01*
X189600000Y-76224992D02*
X189600000Y-73224992D01*
X193425000Y-70149994D02*
X193425000Y-67149994D01*
X189600000Y-70074994D02*
X189600000Y-67074994D01*
X193425000Y-63999996D02*
X193425000Y-60999996D01*
X189600000Y-63924996D02*
X189600000Y-60924996D01*
X193425000Y-57849998D02*
X193425000Y-54849998D01*
X189600000Y-57774998D02*
X189600000Y-54774998D01*
X183925000Y-107100000D02*
X183925000Y-104100000D01*
X180100000Y-107025000D02*
X180100000Y-104025000D01*
X183925000Y-102337500D02*
X183925000Y-99337500D01*
X180100000Y-102262500D02*
X180100000Y-99262500D01*
X183925000Y-97575000D02*
X183925000Y-94575000D01*
X180100000Y-97500000D02*
X180100000Y-94500000D01*
X183925000Y-92812500D02*
X183925000Y-89812500D01*
X180100000Y-92737500D02*
X180100000Y-89737500D01*
X183925000Y-88050000D02*
X183925000Y-85050000D01*
X180100000Y-87975000D02*
X180100000Y-84975000D01*
X183925000Y-71350000D02*
X183925000Y-68350000D01*
X180100000Y-71275000D02*
X180100000Y-68275000D01*
X193425000Y-82449990D02*
X193425000Y-79449990D01*
X189600000Y-82374990D02*
X189600000Y-79374990D01*
X202925000Y-88550000D02*
X202925000Y-85550000D01*
X199100000Y-88475000D02*
X199100000Y-85475000D01*
X183925000Y-56650000D02*
X183925000Y-53650000D01*
X180100000Y-56575000D02*
X180100000Y-53575000D01*
X174425000Y-107100000D02*
X174425000Y-104100000D01*
X170600000Y-107025000D02*
X170600000Y-104025000D01*
X174425000Y-100950000D02*
X174425000Y-97950000D01*
X170600000Y-100875000D02*
X170600000Y-97875000D01*
X174425000Y-94800000D02*
X174425000Y-91800000D01*
X170600000Y-94725000D02*
X170600000Y-91725000D01*
X174425000Y-88650000D02*
X174425000Y-85650000D01*
X170600000Y-88575000D02*
X170600000Y-85575000D01*
X174425000Y-82500000D02*
X174425000Y-79500000D01*
X170600000Y-82425000D02*
X170600000Y-79425000D01*
X174425000Y-76350000D02*
X174425000Y-73350000D01*
X170600000Y-76275000D02*
X170600000Y-73275000D01*
X174425000Y-70200000D02*
X174425000Y-67200000D01*
X170600000Y-70125000D02*
X170600000Y-67125000D01*
X174425000Y-64050000D02*
X174425000Y-61050000D01*
X170600000Y-63975000D02*
X170600000Y-60975000D01*
X174425000Y-57900000D02*
X174425000Y-54900000D01*
X170600000Y-57825000D02*
X170600000Y-54825000D01*
X183925000Y-66450000D02*
X183925000Y-63450000D01*
X180100000Y-66375000D02*
X180100000Y-63375000D01*
X202925000Y-100900000D02*
X202925000Y-97900000D01*
X199100000Y-100825000D02*
X199100000Y-97825000D01*
X202925000Y-107100000D02*
X202925000Y-104100000D01*
X199100000Y-107025000D02*
X199100000Y-104025000D01*
X164925000Y-107149995D02*
X164925000Y-104149995D01*
X161100000Y-107074995D02*
X161100000Y-104074995D01*
X164925000Y-100994440D02*
X164925000Y-97994440D01*
X161100000Y-100919440D02*
X161100000Y-97919440D01*
X164925000Y-94838885D02*
X164925000Y-91838885D01*
X161100000Y-94763885D02*
X161100000Y-91763885D01*
X164925000Y-88683330D02*
X164925000Y-85683330D01*
X161100000Y-88608330D02*
X161100000Y-85608330D01*
X164925000Y-82527775D02*
X164925000Y-79527775D01*
X161100000Y-82452775D02*
X161100000Y-79452775D01*
X164925000Y-76372220D02*
X164925000Y-73372220D01*
X161100000Y-76297220D02*
X161100000Y-73297220D01*
X164925000Y-70216665D02*
X164925000Y-67216665D01*
X161100000Y-70141665D02*
X161100000Y-67141665D01*
X164925000Y-64061110D02*
X164925000Y-61061110D01*
X161100000Y-63986110D02*
X161100000Y-60986110D01*
X109363885Y-98485627D02*
X109030552Y-98485627D01*
X109030552Y-99009436D02*
X109030552Y-98009436D01*
X109506742Y-98009436D01*
X110411504Y-99009436D02*
X109840076Y-99009436D01*
X110125790Y-99009436D02*
X110125790Y-98009436D01*
X110030552Y-98152294D01*
X109935314Y-98247532D01*
X109840076Y-98295151D01*
X88638095Y-76102380D02*
X88638095Y-76911904D01*
X88685714Y-77007142D01*
X88733333Y-77054761D01*
X88828571Y-77102380D01*
X89019047Y-77102380D01*
X89114285Y-77054761D01*
X89161904Y-77007142D01*
X89209523Y-76911904D01*
X89209523Y-76102380D01*
X90209523Y-77102380D02*
X89638095Y-77102380D01*
X89923809Y-77102380D02*
X89923809Y-76102380D01*
X89828571Y-76245238D01*
X89733333Y-76340476D01*
X89638095Y-76388095D01*
X126957142Y-79602380D02*
X126623809Y-79126190D01*
X126385714Y-79602380D02*
X126385714Y-78602380D01*
X126766666Y-78602380D01*
X126861904Y-78650000D01*
X126909523Y-78697619D01*
X126957142Y-78792857D01*
X126957142Y-78935714D01*
X126909523Y-79030952D01*
X126861904Y-79078571D01*
X126766666Y-79126190D01*
X126385714Y-79126190D01*
X127909523Y-79602380D02*
X127338095Y-79602380D01*
X127623809Y-79602380D02*
X127623809Y-78602380D01*
X127528571Y-78745238D01*
X127433333Y-78840476D01*
X127338095Y-78888095D01*
X128528571Y-78602380D02*
X128623809Y-78602380D01*
X128719047Y-78650000D01*
X128766666Y-78697619D01*
X128814285Y-78792857D01*
X128861904Y-78983333D01*
X128861904Y-79221428D01*
X128814285Y-79411904D01*
X128766666Y-79507142D01*
X128719047Y-79554761D01*
X128623809Y-79602380D01*
X128528571Y-79602380D01*
X128433333Y-79554761D01*
X128385714Y-79507142D01*
X128338095Y-79411904D01*
X128290476Y-79221428D01*
X128290476Y-78983333D01*
X128338095Y-78792857D01*
X128385714Y-78697619D01*
X128433333Y-78650000D01*
X128528571Y-78602380D01*
D16*
X138490958Y-100192107D02*
X138672387Y-100252583D01*
X138974768Y-100252583D01*
X139095720Y-100192107D01*
X139156196Y-100131631D01*
X139216672Y-100010679D01*
X139216672Y-99889726D01*
X139156196Y-99768774D01*
X139095720Y-99708298D01*
X138974768Y-99647821D01*
X138732863Y-99587345D01*
X138611911Y-99526869D01*
X138551434Y-99466393D01*
X138490958Y-99345440D01*
X138490958Y-99224488D01*
X138551434Y-99103536D01*
X138611911Y-99043060D01*
X138732863Y-98982583D01*
X139035244Y-98982583D01*
X139216672Y-99043060D01*
X139640006Y-98982583D02*
X139942387Y-100252583D01*
X140184292Y-99345440D01*
X140426196Y-100252583D01*
X140728577Y-98982583D01*
X141877625Y-100252583D02*
X141151911Y-100252583D01*
X141514768Y-100252583D02*
X141514768Y-98982583D01*
X141393815Y-99164012D01*
X141272863Y-99284964D01*
X141151911Y-99345440D01*
X134869047Y-103212047D02*
X135050476Y-103272523D01*
X135352857Y-103272523D01*
X135473809Y-103212047D01*
X135534285Y-103151571D01*
X135594761Y-103030619D01*
X135594761Y-102909666D01*
X135534285Y-102788714D01*
X135473809Y-102728238D01*
X135352857Y-102667761D01*
X135110952Y-102607285D01*
X134990000Y-102546809D01*
X134929523Y-102486333D01*
X134869047Y-102365380D01*
X134869047Y-102244428D01*
X134929523Y-102123476D01*
X134990000Y-102063000D01*
X135110952Y-102002523D01*
X135413333Y-102002523D01*
X135594761Y-102063000D01*
X136018095Y-102002523D02*
X136320476Y-103272523D01*
X136562380Y-102365380D01*
X136804285Y-103272523D01*
X137106666Y-102002523D01*
X137288095Y-103393476D02*
X138255714Y-103393476D01*
X138558095Y-103272523D02*
X138558095Y-102002523D01*
X138860476Y-102002523D01*
X139041904Y-102063000D01*
X139162857Y-102183952D01*
X139223333Y-102304904D01*
X139283809Y-102546809D01*
X139283809Y-102728238D01*
X139223333Y-102970142D01*
X139162857Y-103091095D01*
X139041904Y-103212047D01*
X138860476Y-103272523D01*
X138558095Y-103272523D01*
X139828095Y-103272523D02*
X139828095Y-102002523D01*
X140311904Y-102002523D01*
X140432857Y-102063000D01*
X140493333Y-102123476D01*
X140553809Y-102244428D01*
X140553809Y-102425857D01*
X140493333Y-102546809D01*
X140432857Y-102607285D01*
X140311904Y-102667761D01*
X139828095Y-102667761D01*
X141037619Y-103212047D02*
X141219047Y-103272523D01*
X141521428Y-103272523D01*
X141642380Y-103212047D01*
X141702857Y-103151571D01*
X141763333Y-103030619D01*
X141763333Y-102909666D01*
X141702857Y-102788714D01*
X141642380Y-102728238D01*
X141521428Y-102667761D01*
X141279523Y-102607285D01*
X141158571Y-102546809D01*
X141098095Y-102486333D01*
X141037619Y-102365380D01*
X141037619Y-102244428D01*
X141098095Y-102123476D01*
X141158571Y-102063000D01*
X141279523Y-102002523D01*
X141581904Y-102002523D01*
X141763333Y-102063000D01*
X142126190Y-102002523D02*
X142851904Y-102002523D01*
X142489047Y-103272523D02*
X142489047Y-102002523D01*
D14*
X151838095Y-97302380D02*
X151838095Y-98111904D01*
X151885714Y-98207142D01*
X151933333Y-98254761D01*
X152028571Y-98302380D01*
X152219047Y-98302380D01*
X152314285Y-98254761D01*
X152361904Y-98207142D01*
X152409523Y-98111904D01*
X152409523Y-97302380D01*
X152838095Y-97397619D02*
X152885714Y-97350000D01*
X152980952Y-97302380D01*
X153219047Y-97302380D01*
X153314285Y-97350000D01*
X153361904Y-97397619D01*
X153409523Y-97492857D01*
X153409523Y-97588095D01*
X153361904Y-97730952D01*
X152790476Y-98302380D01*
X153409523Y-98302380D01*
X149042380Y-56693333D02*
X149756666Y-56693333D01*
X149899523Y-56740952D01*
X149994761Y-56836190D01*
X150042380Y-56979047D01*
X150042380Y-57074285D01*
X149042380Y-55788571D02*
X149042380Y-55979047D01*
X149090000Y-56074285D01*
X149137619Y-56121904D01*
X149280476Y-56217142D01*
X149470952Y-56264761D01*
X149851904Y-56264761D01*
X149947142Y-56217142D01*
X149994761Y-56169523D01*
X150042380Y-56074285D01*
X150042380Y-55883809D01*
X149994761Y-55788571D01*
X149947142Y-55740952D01*
X149851904Y-55693333D01*
X149613809Y-55693333D01*
X149518571Y-55740952D01*
X149470952Y-55788571D01*
X149423333Y-55883809D01*
X149423333Y-56074285D01*
X149470952Y-56169523D01*
X149518571Y-56217142D01*
X149613809Y-56264761D01*
X181666666Y-70152380D02*
X181666666Y-70866666D01*
X181619047Y-71009523D01*
X181523809Y-71104761D01*
X181380952Y-71152380D01*
X181285714Y-71152380D01*
X182619047Y-70152380D02*
X182142857Y-70152380D01*
X182095238Y-70628571D01*
X182142857Y-70580952D01*
X182238095Y-70533333D01*
X182476190Y-70533333D01*
X182571428Y-70580952D01*
X182619047Y-70628571D01*
X182666666Y-70723809D01*
X182666666Y-70961904D01*
X182619047Y-71057142D01*
X182571428Y-71104761D01*
X182476190Y-71152380D01*
X182238095Y-71152380D01*
X182142857Y-71104761D01*
X182095238Y-71057142D01*
X160027380Y-57493650D02*
X159027380Y-57493650D01*
X159027380Y-57255555D01*
X159075000Y-57112697D01*
X159170238Y-57017459D01*
X159265476Y-56969840D01*
X159455952Y-56922221D01*
X159598809Y-56922221D01*
X159789285Y-56969840D01*
X159884523Y-57017459D01*
X159979761Y-57112697D01*
X160027380Y-57255555D01*
X160027380Y-57493650D01*
X159122619Y-56541269D02*
X159075000Y-56493650D01*
X159027380Y-56398412D01*
X159027380Y-56160316D01*
X159075000Y-56065078D01*
X159122619Y-56017459D01*
X159217857Y-55969840D01*
X159313095Y-55969840D01*
X159455952Y-56017459D01*
X160027380Y-56588888D01*
X160027380Y-55969840D01*
X198027380Y-51814285D02*
X197027380Y-51814285D01*
X197027380Y-51576190D01*
X197075000Y-51433333D01*
X197170238Y-51338095D01*
X197265476Y-51290476D01*
X197455952Y-51242857D01*
X197598809Y-51242857D01*
X197789285Y-51290476D01*
X197884523Y-51338095D01*
X197979761Y-51433333D01*
X198027380Y-51576190D01*
X198027380Y-51814285D01*
X197360714Y-50385714D02*
X198027380Y-50385714D01*
X196979761Y-50623809D02*
X197694047Y-50861904D01*
X197694047Y-50242857D01*
X198027380Y-49338095D02*
X198027380Y-49909523D01*
X198027380Y-49623809D02*
X197027380Y-49623809D01*
X197170238Y-49719047D01*
X197265476Y-49814285D01*
X197313095Y-49909523D01*
X188327380Y-51764285D02*
X187327380Y-51764285D01*
X187327380Y-51526190D01*
X187375000Y-51383333D01*
X187470238Y-51288095D01*
X187565476Y-51240476D01*
X187755952Y-51192857D01*
X187898809Y-51192857D01*
X188089285Y-51240476D01*
X188184523Y-51288095D01*
X188279761Y-51383333D01*
X188327380Y-51526190D01*
X188327380Y-51764285D01*
X187327380Y-50859523D02*
X187327380Y-50240476D01*
X187708333Y-50573809D01*
X187708333Y-50430952D01*
X187755952Y-50335714D01*
X187803571Y-50288095D01*
X187898809Y-50240476D01*
X188136904Y-50240476D01*
X188232142Y-50288095D01*
X188279761Y-50335714D01*
X188327380Y-50430952D01*
X188327380Y-50716666D01*
X188279761Y-50811904D01*
X188232142Y-50859523D01*
X188327380Y-49288095D02*
X188327380Y-49859523D01*
X188327380Y-49573809D02*
X187327380Y-49573809D01*
X187470238Y-49669047D01*
X187565476Y-49764285D01*
X187613095Y-49859523D01*
X179027380Y-51814285D02*
X178027380Y-51814285D01*
X178027380Y-51576190D01*
X178075000Y-51433333D01*
X178170238Y-51338095D01*
X178265476Y-51290476D01*
X178455952Y-51242857D01*
X178598809Y-51242857D01*
X178789285Y-51290476D01*
X178884523Y-51338095D01*
X178979761Y-51433333D01*
X179027380Y-51576190D01*
X179027380Y-51814285D01*
X178122619Y-50861904D02*
X178075000Y-50814285D01*
X178027380Y-50719047D01*
X178027380Y-50480952D01*
X178075000Y-50385714D01*
X178122619Y-50338095D01*
X178217857Y-50290476D01*
X178313095Y-50290476D01*
X178455952Y-50338095D01*
X179027380Y-50909523D01*
X179027380Y-50290476D01*
X179027380Y-49338095D02*
X179027380Y-49909523D01*
X179027380Y-49623809D02*
X178027380Y-49623809D01*
X178170238Y-49719047D01*
X178265476Y-49814285D01*
X178313095Y-49909523D01*
X169527380Y-51814285D02*
X168527380Y-51814285D01*
X168527380Y-51576190D01*
X168575000Y-51433333D01*
X168670238Y-51338095D01*
X168765476Y-51290476D01*
X168955952Y-51242857D01*
X169098809Y-51242857D01*
X169289285Y-51290476D01*
X169384523Y-51338095D01*
X169479761Y-51433333D01*
X169527380Y-51576190D01*
X169527380Y-51814285D01*
X169527380Y-50290476D02*
X169527380Y-50861904D01*
X169527380Y-50576190D02*
X168527380Y-50576190D01*
X168670238Y-50671428D01*
X168765476Y-50766666D01*
X168813095Y-50861904D01*
X169527380Y-49338095D02*
X169527380Y-49909523D01*
X169527380Y-49623809D02*
X168527380Y-49623809D01*
X168670238Y-49719047D01*
X168765476Y-49814285D01*
X168813095Y-49909523D01*
X160027380Y-51338095D02*
X159027380Y-51338095D01*
X159027380Y-51100000D01*
X159075000Y-50957142D01*
X159170238Y-50861904D01*
X159265476Y-50814285D01*
X159455952Y-50766666D01*
X159598809Y-50766666D01*
X159789285Y-50814285D01*
X159884523Y-50861904D01*
X159979761Y-50957142D01*
X160027380Y-51100000D01*
X160027380Y-51338095D01*
X160027380Y-49814285D02*
X160027380Y-50385714D01*
X160027380Y-50100000D02*
X159027380Y-50100000D01*
X159170238Y-50195238D01*
X159265476Y-50290476D01*
X159313095Y-50385714D01*
X148102380Y-78766666D02*
X147626190Y-79100000D01*
X148102380Y-79338095D02*
X147102380Y-79338095D01*
X147102380Y-78957142D01*
X147150000Y-78861904D01*
X147197619Y-78814285D01*
X147292857Y-78766666D01*
X147435714Y-78766666D01*
X147530952Y-78814285D01*
X147578571Y-78861904D01*
X147626190Y-78957142D01*
X147626190Y-79338095D01*
X147102380Y-77861904D02*
X147102380Y-78338095D01*
X147578571Y-78385714D01*
X147530952Y-78338095D01*
X147483333Y-78242857D01*
X147483333Y-78004761D01*
X147530952Y-77909523D01*
X147578571Y-77861904D01*
X147673809Y-77814285D01*
X147911904Y-77814285D01*
X148007142Y-77861904D01*
X148054761Y-77909523D01*
X148102380Y-78004761D01*
X148102380Y-78242857D01*
X148054761Y-78338095D01*
X148007142Y-78385714D01*
X128833333Y-91602380D02*
X128500000Y-91126190D01*
X128261904Y-91602380D02*
X128261904Y-90602380D01*
X128642857Y-90602380D01*
X128738095Y-90650000D01*
X128785714Y-90697619D01*
X128833333Y-90792857D01*
X128833333Y-90935714D01*
X128785714Y-91030952D01*
X128738095Y-91078571D01*
X128642857Y-91126190D01*
X128261904Y-91126190D01*
X129690476Y-90602380D02*
X129500000Y-90602380D01*
X129404761Y-90650000D01*
X129357142Y-90697619D01*
X129261904Y-90840476D01*
X129214285Y-91030952D01*
X129214285Y-91411904D01*
X129261904Y-91507142D01*
X129309523Y-91554761D01*
X129404761Y-91602380D01*
X129595238Y-91602380D01*
X129690476Y-91554761D01*
X129738095Y-91507142D01*
X129785714Y-91411904D01*
X129785714Y-91173809D01*
X129738095Y-91078571D01*
X129690476Y-91030952D01*
X129595238Y-90983333D01*
X129404761Y-90983333D01*
X129309523Y-91030952D01*
X129261904Y-91078571D01*
X129214285Y-91173809D01*
X86397619Y-61109523D02*
X87397619Y-61109523D01*
X87397619Y-61347619D01*
X87350000Y-61490476D01*
X87254761Y-61585714D01*
X87159523Y-61633333D01*
X86969047Y-61680952D01*
X86826190Y-61680952D01*
X86635714Y-61633333D01*
X86540476Y-61585714D01*
X86445238Y-61490476D01*
X86397619Y-61347619D01*
X86397619Y-61109523D01*
X86397619Y-62633333D02*
X86397619Y-62061904D01*
X86397619Y-62347619D02*
X87397619Y-62347619D01*
X87254761Y-62252380D01*
X87159523Y-62157142D01*
X87111904Y-62061904D01*
X87397619Y-63252380D02*
X87397619Y-63347619D01*
X87350000Y-63442857D01*
X87302380Y-63490476D01*
X87207142Y-63538095D01*
X87016666Y-63585714D01*
X86778571Y-63585714D01*
X86588095Y-63538095D01*
X86492857Y-63490476D01*
X86445238Y-63442857D01*
X86397619Y-63347619D01*
X86397619Y-63252380D01*
X86445238Y-63157142D01*
X86492857Y-63109523D01*
X86588095Y-63061904D01*
X86778571Y-63014285D01*
X87016666Y-63014285D01*
X87207142Y-63061904D01*
X87302380Y-63109523D01*
X87350000Y-63157142D01*
X87397619Y-63252380D01*
X87397619Y-64204761D02*
X87397619Y-64300000D01*
X87350000Y-64395238D01*
X87302380Y-64442857D01*
X87207142Y-64490476D01*
X87016666Y-64538095D01*
X86778571Y-64538095D01*
X86588095Y-64490476D01*
X86492857Y-64442857D01*
X86445238Y-64395238D01*
X86397619Y-64300000D01*
X86397619Y-64204761D01*
X86445238Y-64109523D01*
X86492857Y-64061904D01*
X86588095Y-64014285D01*
X86778571Y-63966666D01*
X87016666Y-63966666D01*
X87207142Y-64014285D01*
X87302380Y-64061904D01*
X87350000Y-64109523D01*
X87397619Y-64204761D01*
X140633333Y-88802380D02*
X140300000Y-88326190D01*
X140061904Y-88802380D02*
X140061904Y-87802380D01*
X140442857Y-87802380D01*
X140538095Y-87850000D01*
X140585714Y-87897619D01*
X140633333Y-87992857D01*
X140633333Y-88135714D01*
X140585714Y-88230952D01*
X140538095Y-88278571D01*
X140442857Y-88326190D01*
X140061904Y-88326190D01*
X140966666Y-87802380D02*
X141633333Y-87802380D01*
X141204761Y-88802380D01*
X135033333Y-87402380D02*
X134700000Y-86926190D01*
X134461904Y-87402380D02*
X134461904Y-86402380D01*
X134842857Y-86402380D01*
X134938095Y-86450000D01*
X134985714Y-86497619D01*
X135033333Y-86592857D01*
X135033333Y-86735714D01*
X134985714Y-86830952D01*
X134938095Y-86878571D01*
X134842857Y-86926190D01*
X134461904Y-86926190D01*
X135509523Y-87402380D02*
X135700000Y-87402380D01*
X135795238Y-87354761D01*
X135842857Y-87307142D01*
X135938095Y-87164285D01*
X135985714Y-86973809D01*
X135985714Y-86592857D01*
X135938095Y-86497619D01*
X135890476Y-86450000D01*
X135795238Y-86402380D01*
X135604761Y-86402380D01*
X135509523Y-86450000D01*
X135461904Y-86497619D01*
X135414285Y-86592857D01*
X135414285Y-86830952D01*
X135461904Y-86926190D01*
X135509523Y-86973809D01*
X135604761Y-87021428D01*
X135795238Y-87021428D01*
X135890476Y-86973809D01*
X135938095Y-86926190D01*
X135985714Y-86830952D01*
X128633333Y-86202380D02*
X128300000Y-85726190D01*
X128061904Y-86202380D02*
X128061904Y-85202380D01*
X128442857Y-85202380D01*
X128538095Y-85250000D01*
X128585714Y-85297619D01*
X128633333Y-85392857D01*
X128633333Y-85535714D01*
X128585714Y-85630952D01*
X128538095Y-85678571D01*
X128442857Y-85726190D01*
X128061904Y-85726190D01*
X129204761Y-85630952D02*
X129109523Y-85583333D01*
X129061904Y-85535714D01*
X129014285Y-85440476D01*
X129014285Y-85392857D01*
X129061904Y-85297619D01*
X129109523Y-85250000D01*
X129204761Y-85202380D01*
X129395238Y-85202380D01*
X129490476Y-85250000D01*
X129538095Y-85297619D01*
X129585714Y-85392857D01*
X129585714Y-85440476D01*
X129538095Y-85535714D01*
X129490476Y-85583333D01*
X129395238Y-85630952D01*
X129204761Y-85630952D01*
X129109523Y-85678571D01*
X129061904Y-85726190D01*
X129014285Y-85821428D01*
X129014285Y-86011904D01*
X129061904Y-86107142D01*
X129109523Y-86154761D01*
X129204761Y-86202380D01*
X129395238Y-86202380D01*
X129490476Y-86154761D01*
X129538095Y-86107142D01*
X129585714Y-86011904D01*
X129585714Y-85821428D01*
X129538095Y-85726190D01*
X129490476Y-85678571D01*
X129395238Y-85630952D01*
X144307142Y-84866666D02*
X144354761Y-84914285D01*
X144402380Y-85057142D01*
X144402380Y-85152380D01*
X144354761Y-85295238D01*
X144259523Y-85390476D01*
X144164285Y-85438095D01*
X143973809Y-85485714D01*
X143830952Y-85485714D01*
X143640476Y-85438095D01*
X143545238Y-85390476D01*
X143450000Y-85295238D01*
X143402380Y-85152380D01*
X143402380Y-85057142D01*
X143450000Y-84914285D01*
X143497619Y-84866666D01*
X143497619Y-84485714D02*
X143450000Y-84438095D01*
X143402380Y-84342857D01*
X143402380Y-84104761D01*
X143450000Y-84009523D01*
X143497619Y-83961904D01*
X143592857Y-83914285D01*
X143688095Y-83914285D01*
X143830952Y-83961904D01*
X144402380Y-84533333D01*
X144402380Y-83914285D01*
X136707142Y-84266666D02*
X136754761Y-84314285D01*
X136802380Y-84457142D01*
X136802380Y-84552380D01*
X136754761Y-84695238D01*
X136659523Y-84790476D01*
X136564285Y-84838095D01*
X136373809Y-84885714D01*
X136230952Y-84885714D01*
X136040476Y-84838095D01*
X135945238Y-84790476D01*
X135850000Y-84695238D01*
X135802380Y-84552380D01*
X135802380Y-84457142D01*
X135850000Y-84314285D01*
X135897619Y-84266666D01*
X135802380Y-83933333D02*
X135802380Y-83314285D01*
X136183333Y-83647619D01*
X136183333Y-83504761D01*
X136230952Y-83409523D01*
X136278571Y-83361904D01*
X136373809Y-83314285D01*
X136611904Y-83314285D01*
X136707142Y-83361904D01*
X136754761Y-83409523D01*
X136802380Y-83504761D01*
X136802380Y-83790476D01*
X136754761Y-83885714D01*
X136707142Y-83933333D01*
X130333333Y-72397142D02*
X130285714Y-72444761D01*
X130142857Y-72492380D01*
X130047619Y-72492380D01*
X129904761Y-72444761D01*
X129809523Y-72349523D01*
X129761904Y-72254285D01*
X129714285Y-72063809D01*
X129714285Y-71920952D01*
X129761904Y-71730476D01*
X129809523Y-71635238D01*
X129904761Y-71540000D01*
X130047619Y-71492380D01*
X130142857Y-71492380D01*
X130285714Y-71540000D01*
X130333333Y-71587619D01*
X131285714Y-72492380D02*
X130714285Y-72492380D01*
X131000000Y-72492380D02*
X131000000Y-71492380D01*
X130904761Y-71635238D01*
X130809523Y-71730476D01*
X130714285Y-71778095D01*
X151333333Y-76517142D02*
X151285714Y-76564761D01*
X151142857Y-76612380D01*
X151047619Y-76612380D01*
X150904761Y-76564761D01*
X150809523Y-76469523D01*
X150761904Y-76374285D01*
X150714285Y-76183809D01*
X150714285Y-76040952D01*
X150761904Y-75850476D01*
X150809523Y-75755238D01*
X150904761Y-75660000D01*
X151047619Y-75612380D01*
X151142857Y-75612380D01*
X151285714Y-75660000D01*
X151333333Y-75707619D01*
X152190476Y-75945714D02*
X152190476Y-76612380D01*
X151952380Y-75564761D02*
X151714285Y-76279047D01*
X152333333Y-76279047D01*
X112633333Y-62052380D02*
X112157142Y-62052380D01*
X112157142Y-61052380D01*
X113490476Y-62052380D02*
X112919047Y-62052380D01*
X113204761Y-62052380D02*
X113204761Y-61052380D01*
X113109523Y-61195238D01*
X113014285Y-61290476D01*
X112919047Y-61338095D01*
X134202380Y-79966666D02*
X133726190Y-80300000D01*
X134202380Y-80538095D02*
X133202380Y-80538095D01*
X133202380Y-80157142D01*
X133250000Y-80061904D01*
X133297619Y-80014285D01*
X133392857Y-79966666D01*
X133535714Y-79966666D01*
X133630952Y-80014285D01*
X133678571Y-80061904D01*
X133726190Y-80157142D01*
X133726190Y-80538095D01*
X133535714Y-79109523D02*
X134202380Y-79109523D01*
X133154761Y-79347619D02*
X133869047Y-79585714D01*
X133869047Y-78966666D01*
X138933333Y-82502380D02*
X138600000Y-82026190D01*
X138361904Y-82502380D02*
X138361904Y-81502380D01*
X138742857Y-81502380D01*
X138838095Y-81550000D01*
X138885714Y-81597619D01*
X138933333Y-81692857D01*
X138933333Y-81835714D01*
X138885714Y-81930952D01*
X138838095Y-81978571D01*
X138742857Y-82026190D01*
X138361904Y-82026190D01*
X139266666Y-81502380D02*
X139885714Y-81502380D01*
X139552380Y-81883333D01*
X139695238Y-81883333D01*
X139790476Y-81930952D01*
X139838095Y-81978571D01*
X139885714Y-82073809D01*
X139885714Y-82311904D01*
X139838095Y-82407142D01*
X139790476Y-82454761D01*
X139695238Y-82502380D01*
X139409523Y-82502380D01*
X139314285Y-82454761D01*
X139266666Y-82407142D01*
X127633333Y-77302380D02*
X127300000Y-76826190D01*
X127061904Y-77302380D02*
X127061904Y-76302380D01*
X127442857Y-76302380D01*
X127538095Y-76350000D01*
X127585714Y-76397619D01*
X127633333Y-76492857D01*
X127633333Y-76635714D01*
X127585714Y-76730952D01*
X127538095Y-76778571D01*
X127442857Y-76826190D01*
X127061904Y-76826190D01*
X128014285Y-76397619D02*
X128061904Y-76350000D01*
X128157142Y-76302380D01*
X128395238Y-76302380D01*
X128490476Y-76350000D01*
X128538095Y-76397619D01*
X128585714Y-76492857D01*
X128585714Y-76588095D01*
X128538095Y-76730952D01*
X127966666Y-77302380D01*
X128585714Y-77302380D01*
X132033333Y-77302380D02*
X131700000Y-76826190D01*
X131461904Y-77302380D02*
X131461904Y-76302380D01*
X131842857Y-76302380D01*
X131938095Y-76350000D01*
X131985714Y-76397619D01*
X132033333Y-76492857D01*
X132033333Y-76635714D01*
X131985714Y-76730952D01*
X131938095Y-76778571D01*
X131842857Y-76826190D01*
X131461904Y-76826190D01*
X132985714Y-77302380D02*
X132414285Y-77302380D01*
X132700000Y-77302380D02*
X132700000Y-76302380D01*
X132604761Y-76445238D01*
X132509523Y-76540476D01*
X132414285Y-76588095D01*
X116504761Y-82047619D02*
X116409523Y-82000000D01*
X116314285Y-81904761D01*
X116171428Y-81761904D01*
X116076190Y-81714285D01*
X115980952Y-81714285D01*
X116028571Y-81952380D02*
X115933333Y-81904761D01*
X115838095Y-81809523D01*
X115790476Y-81619047D01*
X115790476Y-81285714D01*
X115838095Y-81095238D01*
X115933333Y-81000000D01*
X116028571Y-80952380D01*
X116219047Y-80952380D01*
X116314285Y-81000000D01*
X116409523Y-81095238D01*
X116457142Y-81285714D01*
X116457142Y-81619047D01*
X116409523Y-81809523D01*
X116314285Y-81904761D01*
X116219047Y-81952380D01*
X116028571Y-81952380D01*
X117409523Y-81952380D02*
X116838095Y-81952380D01*
X117123809Y-81952380D02*
X117123809Y-80952380D01*
X117028571Y-81095238D01*
X116933333Y-81190476D01*
X116838095Y-81238095D01*
X179027380Y-61614285D02*
X178027380Y-61614285D01*
X178027380Y-61376190D01*
X178075000Y-61233333D01*
X178170238Y-61138095D01*
X178265476Y-61090476D01*
X178455952Y-61042857D01*
X178598809Y-61042857D01*
X178789285Y-61090476D01*
X178884523Y-61138095D01*
X178979761Y-61233333D01*
X179027380Y-61376190D01*
X179027380Y-61614285D01*
X178122619Y-60661904D02*
X178075000Y-60614285D01*
X178027380Y-60519047D01*
X178027380Y-60280952D01*
X178075000Y-60185714D01*
X178122619Y-60138095D01*
X178217857Y-60090476D01*
X178313095Y-60090476D01*
X178455952Y-60138095D01*
X179027380Y-60709523D01*
X179027380Y-60090476D01*
X178027380Y-59757142D02*
X178027380Y-59138095D01*
X178408333Y-59471428D01*
X178408333Y-59328571D01*
X178455952Y-59233333D01*
X178503571Y-59185714D01*
X178598809Y-59138095D01*
X178836904Y-59138095D01*
X178932142Y-59185714D01*
X178979761Y-59233333D01*
X179027380Y-59328571D01*
X179027380Y-59614285D01*
X178979761Y-59709523D01*
X178932142Y-59757142D01*
X198027380Y-94814285D02*
X197027380Y-94814285D01*
X197027380Y-94576190D01*
X197075000Y-94433333D01*
X197170238Y-94338095D01*
X197265476Y-94290476D01*
X197455952Y-94242857D01*
X197598809Y-94242857D01*
X197789285Y-94290476D01*
X197884523Y-94338095D01*
X197979761Y-94433333D01*
X198027380Y-94576190D01*
X198027380Y-94814285D01*
X197360714Y-93385714D02*
X198027380Y-93385714D01*
X196979761Y-93623809D02*
X197694047Y-93861904D01*
X197694047Y-93242857D01*
X197455952Y-92719047D02*
X197408333Y-92814285D01*
X197360714Y-92861904D01*
X197265476Y-92909523D01*
X197217857Y-92909523D01*
X197122619Y-92861904D01*
X197075000Y-92814285D01*
X197027380Y-92719047D01*
X197027380Y-92528571D01*
X197075000Y-92433333D01*
X197122619Y-92385714D01*
X197217857Y-92338095D01*
X197265476Y-92338095D01*
X197360714Y-92385714D01*
X197408333Y-92433333D01*
X197455952Y-92528571D01*
X197455952Y-92719047D01*
X197503571Y-92814285D01*
X197551190Y-92861904D01*
X197646428Y-92909523D01*
X197836904Y-92909523D01*
X197932142Y-92861904D01*
X197979761Y-92814285D01*
X198027380Y-92719047D01*
X198027380Y-92528571D01*
X197979761Y-92433333D01*
X197932142Y-92385714D01*
X197836904Y-92338095D01*
X197646428Y-92338095D01*
X197551190Y-92385714D01*
X197503571Y-92433333D01*
X197455952Y-92528571D01*
X198027380Y-82564285D02*
X197027380Y-82564285D01*
X197027380Y-82326190D01*
X197075000Y-82183333D01*
X197170238Y-82088095D01*
X197265476Y-82040476D01*
X197455952Y-81992857D01*
X197598809Y-81992857D01*
X197789285Y-82040476D01*
X197884523Y-82088095D01*
X197979761Y-82183333D01*
X198027380Y-82326190D01*
X198027380Y-82564285D01*
X197360714Y-81135714D02*
X198027380Y-81135714D01*
X196979761Y-81373809D02*
X197694047Y-81611904D01*
X197694047Y-80992857D01*
X197027380Y-80183333D02*
X197027380Y-80373809D01*
X197075000Y-80469047D01*
X197122619Y-80516666D01*
X197265476Y-80611904D01*
X197455952Y-80659523D01*
X197836904Y-80659523D01*
X197932142Y-80611904D01*
X197979761Y-80564285D01*
X198027380Y-80469047D01*
X198027380Y-80278571D01*
X197979761Y-80183333D01*
X197932142Y-80135714D01*
X197836904Y-80088095D01*
X197598809Y-80088095D01*
X197503571Y-80135714D01*
X197455952Y-80183333D01*
X197408333Y-80278571D01*
X197408333Y-80469047D01*
X197455952Y-80564285D01*
X197503571Y-80611904D01*
X197598809Y-80659523D01*
X198027380Y-76414285D02*
X197027380Y-76414285D01*
X197027380Y-76176190D01*
X197075000Y-76033333D01*
X197170238Y-75938095D01*
X197265476Y-75890476D01*
X197455952Y-75842857D01*
X197598809Y-75842857D01*
X197789285Y-75890476D01*
X197884523Y-75938095D01*
X197979761Y-76033333D01*
X198027380Y-76176190D01*
X198027380Y-76414285D01*
X197360714Y-74985714D02*
X198027380Y-74985714D01*
X196979761Y-75223809D02*
X197694047Y-75461904D01*
X197694047Y-74842857D01*
X197027380Y-73985714D02*
X197027380Y-74461904D01*
X197503571Y-74509523D01*
X197455952Y-74461904D01*
X197408333Y-74366666D01*
X197408333Y-74128571D01*
X197455952Y-74033333D01*
X197503571Y-73985714D01*
X197598809Y-73938095D01*
X197836904Y-73938095D01*
X197932142Y-73985714D01*
X197979761Y-74033333D01*
X198027380Y-74128571D01*
X198027380Y-74366666D01*
X197979761Y-74461904D01*
X197932142Y-74509523D01*
X198027380Y-70214285D02*
X197027380Y-70214285D01*
X197027380Y-69976190D01*
X197075000Y-69833333D01*
X197170238Y-69738095D01*
X197265476Y-69690476D01*
X197455952Y-69642857D01*
X197598809Y-69642857D01*
X197789285Y-69690476D01*
X197884523Y-69738095D01*
X197979761Y-69833333D01*
X198027380Y-69976190D01*
X198027380Y-70214285D01*
X197360714Y-68785714D02*
X198027380Y-68785714D01*
X196979761Y-69023809D02*
X197694047Y-69261904D01*
X197694047Y-68642857D01*
X197360714Y-67833333D02*
X198027380Y-67833333D01*
X196979761Y-68071428D02*
X197694047Y-68309523D01*
X197694047Y-67690476D01*
X198027380Y-64114285D02*
X197027380Y-64114285D01*
X197027380Y-63876190D01*
X197075000Y-63733333D01*
X197170238Y-63638095D01*
X197265476Y-63590476D01*
X197455952Y-63542857D01*
X197598809Y-63542857D01*
X197789285Y-63590476D01*
X197884523Y-63638095D01*
X197979761Y-63733333D01*
X198027380Y-63876190D01*
X198027380Y-64114285D01*
X197360714Y-62685714D02*
X198027380Y-62685714D01*
X196979761Y-62923809D02*
X197694047Y-63161904D01*
X197694047Y-62542857D01*
X197027380Y-62257142D02*
X197027380Y-61638095D01*
X197408333Y-61971428D01*
X197408333Y-61828571D01*
X197455952Y-61733333D01*
X197503571Y-61685714D01*
X197598809Y-61638095D01*
X197836904Y-61638095D01*
X197932142Y-61685714D01*
X197979761Y-61733333D01*
X198027380Y-61828571D01*
X198027380Y-62114285D01*
X197979761Y-62209523D01*
X197932142Y-62257142D01*
X198027380Y-57964285D02*
X197027380Y-57964285D01*
X197027380Y-57726190D01*
X197075000Y-57583333D01*
X197170238Y-57488095D01*
X197265476Y-57440476D01*
X197455952Y-57392857D01*
X197598809Y-57392857D01*
X197789285Y-57440476D01*
X197884523Y-57488095D01*
X197979761Y-57583333D01*
X198027380Y-57726190D01*
X198027380Y-57964285D01*
X197360714Y-56535714D02*
X198027380Y-56535714D01*
X196979761Y-56773809D02*
X197694047Y-57011904D01*
X197694047Y-56392857D01*
X197122619Y-56059523D02*
X197075000Y-56011904D01*
X197027380Y-55916666D01*
X197027380Y-55678571D01*
X197075000Y-55583333D01*
X197122619Y-55535714D01*
X197217857Y-55488095D01*
X197313095Y-55488095D01*
X197455952Y-55535714D01*
X198027380Y-56107142D01*
X198027380Y-55488095D01*
X188527380Y-107114267D02*
X187527380Y-107114267D01*
X187527380Y-106876172D01*
X187575000Y-106733315D01*
X187670238Y-106638077D01*
X187765476Y-106590458D01*
X187955952Y-106542839D01*
X188098809Y-106542839D01*
X188289285Y-106590458D01*
X188384523Y-106638077D01*
X188479761Y-106733315D01*
X188527380Y-106876172D01*
X188527380Y-107114267D01*
X187860714Y-105685696D02*
X188527380Y-105685696D01*
X187479761Y-105923791D02*
X188194047Y-106161886D01*
X188194047Y-105542839D01*
X187527380Y-104971410D02*
X187527380Y-104876172D01*
X187575000Y-104780934D01*
X187622619Y-104733315D01*
X187717857Y-104685696D01*
X187908333Y-104638077D01*
X188146428Y-104638077D01*
X188336904Y-104685696D01*
X188432142Y-104733315D01*
X188479761Y-104780934D01*
X188527380Y-104876172D01*
X188527380Y-104971410D01*
X188479761Y-105066648D01*
X188432142Y-105114267D01*
X188336904Y-105161886D01*
X188146428Y-105209505D01*
X187908333Y-105209505D01*
X187717857Y-105161886D01*
X187622619Y-105114267D01*
X187575000Y-105066648D01*
X187527380Y-104971410D01*
X188527380Y-100964269D02*
X187527380Y-100964269D01*
X187527380Y-100726174D01*
X187575000Y-100583317D01*
X187670238Y-100488079D01*
X187765476Y-100440460D01*
X187955952Y-100392841D01*
X188098809Y-100392841D01*
X188289285Y-100440460D01*
X188384523Y-100488079D01*
X188479761Y-100583317D01*
X188527380Y-100726174D01*
X188527380Y-100964269D01*
X187527380Y-100059507D02*
X187527380Y-99440460D01*
X187908333Y-99773793D01*
X187908333Y-99630936D01*
X187955952Y-99535698D01*
X188003571Y-99488079D01*
X188098809Y-99440460D01*
X188336904Y-99440460D01*
X188432142Y-99488079D01*
X188479761Y-99535698D01*
X188527380Y-99630936D01*
X188527380Y-99916650D01*
X188479761Y-100011888D01*
X188432142Y-100059507D01*
X188527380Y-98964269D02*
X188527380Y-98773793D01*
X188479761Y-98678555D01*
X188432142Y-98630936D01*
X188289285Y-98535698D01*
X188098809Y-98488079D01*
X187717857Y-98488079D01*
X187622619Y-98535698D01*
X187575000Y-98583317D01*
X187527380Y-98678555D01*
X187527380Y-98869031D01*
X187575000Y-98964269D01*
X187622619Y-99011888D01*
X187717857Y-99059507D01*
X187955952Y-99059507D01*
X188051190Y-99011888D01*
X188098809Y-98964269D01*
X188146428Y-98869031D01*
X188146428Y-98678555D01*
X188098809Y-98583317D01*
X188051190Y-98535698D01*
X187955952Y-98488079D01*
X188527380Y-94814271D02*
X187527380Y-94814271D01*
X187527380Y-94576176D01*
X187575000Y-94433319D01*
X187670238Y-94338081D01*
X187765476Y-94290462D01*
X187955952Y-94242843D01*
X188098809Y-94242843D01*
X188289285Y-94290462D01*
X188384523Y-94338081D01*
X188479761Y-94433319D01*
X188527380Y-94576176D01*
X188527380Y-94814271D01*
X187527380Y-93909509D02*
X187527380Y-93290462D01*
X187908333Y-93623795D01*
X187908333Y-93480938D01*
X187955952Y-93385700D01*
X188003571Y-93338081D01*
X188098809Y-93290462D01*
X188336904Y-93290462D01*
X188432142Y-93338081D01*
X188479761Y-93385700D01*
X188527380Y-93480938D01*
X188527380Y-93766652D01*
X188479761Y-93861890D01*
X188432142Y-93909509D01*
X187955952Y-92719033D02*
X187908333Y-92814271D01*
X187860714Y-92861890D01*
X187765476Y-92909509D01*
X187717857Y-92909509D01*
X187622619Y-92861890D01*
X187575000Y-92814271D01*
X187527380Y-92719033D01*
X187527380Y-92528557D01*
X187575000Y-92433319D01*
X187622619Y-92385700D01*
X187717857Y-92338081D01*
X187765476Y-92338081D01*
X187860714Y-92385700D01*
X187908333Y-92433319D01*
X187955952Y-92528557D01*
X187955952Y-92719033D01*
X188003571Y-92814271D01*
X188051190Y-92861890D01*
X188146428Y-92909509D01*
X188336904Y-92909509D01*
X188432142Y-92861890D01*
X188479761Y-92814271D01*
X188527380Y-92719033D01*
X188527380Y-92528557D01*
X188479761Y-92433319D01*
X188432142Y-92385700D01*
X188336904Y-92338081D01*
X188146428Y-92338081D01*
X188051190Y-92385700D01*
X188003571Y-92433319D01*
X187955952Y-92528557D01*
X188527380Y-88664273D02*
X187527380Y-88664273D01*
X187527380Y-88426178D01*
X187575000Y-88283321D01*
X187670238Y-88188083D01*
X187765476Y-88140464D01*
X187955952Y-88092845D01*
X188098809Y-88092845D01*
X188289285Y-88140464D01*
X188384523Y-88188083D01*
X188479761Y-88283321D01*
X188527380Y-88426178D01*
X188527380Y-88664273D01*
X187527380Y-87759511D02*
X187527380Y-87140464D01*
X187908333Y-87473797D01*
X187908333Y-87330940D01*
X187955952Y-87235702D01*
X188003571Y-87188083D01*
X188098809Y-87140464D01*
X188336904Y-87140464D01*
X188432142Y-87188083D01*
X188479761Y-87235702D01*
X188527380Y-87330940D01*
X188527380Y-87616654D01*
X188479761Y-87711892D01*
X188432142Y-87759511D01*
X187527380Y-86807130D02*
X187527380Y-86140464D01*
X188527380Y-86569035D01*
X188527380Y-76364277D02*
X187527380Y-76364277D01*
X187527380Y-76126182D01*
X187575000Y-75983325D01*
X187670238Y-75888087D01*
X187765476Y-75840468D01*
X187955952Y-75792849D01*
X188098809Y-75792849D01*
X188289285Y-75840468D01*
X188384523Y-75888087D01*
X188479761Y-75983325D01*
X188527380Y-76126182D01*
X188527380Y-76364277D01*
X187527380Y-75459515D02*
X187527380Y-74840468D01*
X187908333Y-75173801D01*
X187908333Y-75030944D01*
X187955952Y-74935706D01*
X188003571Y-74888087D01*
X188098809Y-74840468D01*
X188336904Y-74840468D01*
X188432142Y-74888087D01*
X188479761Y-74935706D01*
X188527380Y-75030944D01*
X188527380Y-75316658D01*
X188479761Y-75411896D01*
X188432142Y-75459515D01*
X187527380Y-73935706D02*
X187527380Y-74411896D01*
X188003571Y-74459515D01*
X187955952Y-74411896D01*
X187908333Y-74316658D01*
X187908333Y-74078563D01*
X187955952Y-73983325D01*
X188003571Y-73935706D01*
X188098809Y-73888087D01*
X188336904Y-73888087D01*
X188432142Y-73935706D01*
X188479761Y-73983325D01*
X188527380Y-74078563D01*
X188527380Y-74316658D01*
X188479761Y-74411896D01*
X188432142Y-74459515D01*
X188527380Y-70214279D02*
X187527380Y-70214279D01*
X187527380Y-69976184D01*
X187575000Y-69833327D01*
X187670238Y-69738089D01*
X187765476Y-69690470D01*
X187955952Y-69642851D01*
X188098809Y-69642851D01*
X188289285Y-69690470D01*
X188384523Y-69738089D01*
X188479761Y-69833327D01*
X188527380Y-69976184D01*
X188527380Y-70214279D01*
X187527380Y-69309517D02*
X187527380Y-68690470D01*
X187908333Y-69023803D01*
X187908333Y-68880946D01*
X187955952Y-68785708D01*
X188003571Y-68738089D01*
X188098809Y-68690470D01*
X188336904Y-68690470D01*
X188432142Y-68738089D01*
X188479761Y-68785708D01*
X188527380Y-68880946D01*
X188527380Y-69166660D01*
X188479761Y-69261898D01*
X188432142Y-69309517D01*
X187860714Y-67833327D02*
X188527380Y-67833327D01*
X187479761Y-68071422D02*
X188194047Y-68309517D01*
X188194047Y-67690470D01*
X188527380Y-64064281D02*
X187527380Y-64064281D01*
X187527380Y-63826186D01*
X187575000Y-63683329D01*
X187670238Y-63588091D01*
X187765476Y-63540472D01*
X187955952Y-63492853D01*
X188098809Y-63492853D01*
X188289285Y-63540472D01*
X188384523Y-63588091D01*
X188479761Y-63683329D01*
X188527380Y-63826186D01*
X188527380Y-64064281D01*
X187527380Y-63159519D02*
X187527380Y-62540472D01*
X187908333Y-62873805D01*
X187908333Y-62730948D01*
X187955952Y-62635710D01*
X188003571Y-62588091D01*
X188098809Y-62540472D01*
X188336904Y-62540472D01*
X188432142Y-62588091D01*
X188479761Y-62635710D01*
X188527380Y-62730948D01*
X188527380Y-63016662D01*
X188479761Y-63111900D01*
X188432142Y-63159519D01*
X187527380Y-62207138D02*
X187527380Y-61588091D01*
X187908333Y-61921424D01*
X187908333Y-61778567D01*
X187955952Y-61683329D01*
X188003571Y-61635710D01*
X188098809Y-61588091D01*
X188336904Y-61588091D01*
X188432142Y-61635710D01*
X188479761Y-61683329D01*
X188527380Y-61778567D01*
X188527380Y-62064281D01*
X188479761Y-62159519D01*
X188432142Y-62207138D01*
X188527380Y-57914283D02*
X187527380Y-57914283D01*
X187527380Y-57676188D01*
X187575000Y-57533331D01*
X187670238Y-57438093D01*
X187765476Y-57390474D01*
X187955952Y-57342855D01*
X188098809Y-57342855D01*
X188289285Y-57390474D01*
X188384523Y-57438093D01*
X188479761Y-57533331D01*
X188527380Y-57676188D01*
X188527380Y-57914283D01*
X187527380Y-57009521D02*
X187527380Y-56390474D01*
X187908333Y-56723807D01*
X187908333Y-56580950D01*
X187955952Y-56485712D01*
X188003571Y-56438093D01*
X188098809Y-56390474D01*
X188336904Y-56390474D01*
X188432142Y-56438093D01*
X188479761Y-56485712D01*
X188527380Y-56580950D01*
X188527380Y-56866664D01*
X188479761Y-56961902D01*
X188432142Y-57009521D01*
X187622619Y-56009521D02*
X187575000Y-55961902D01*
X187527380Y-55866664D01*
X187527380Y-55628569D01*
X187575000Y-55533331D01*
X187622619Y-55485712D01*
X187717857Y-55438093D01*
X187813095Y-55438093D01*
X187955952Y-55485712D01*
X188527380Y-56057140D01*
X188527380Y-55438093D01*
X179027380Y-107164285D02*
X178027380Y-107164285D01*
X178027380Y-106926190D01*
X178075000Y-106783333D01*
X178170238Y-106688095D01*
X178265476Y-106640476D01*
X178455952Y-106592857D01*
X178598809Y-106592857D01*
X178789285Y-106640476D01*
X178884523Y-106688095D01*
X178979761Y-106783333D01*
X179027380Y-106926190D01*
X179027380Y-107164285D01*
X178027380Y-106259523D02*
X178027380Y-105640476D01*
X178408333Y-105973809D01*
X178408333Y-105830952D01*
X178455952Y-105735714D01*
X178503571Y-105688095D01*
X178598809Y-105640476D01*
X178836904Y-105640476D01*
X178932142Y-105688095D01*
X178979761Y-105735714D01*
X179027380Y-105830952D01*
X179027380Y-106116666D01*
X178979761Y-106211904D01*
X178932142Y-106259523D01*
X178027380Y-105021428D02*
X178027380Y-104926190D01*
X178075000Y-104830952D01*
X178122619Y-104783333D01*
X178217857Y-104735714D01*
X178408333Y-104688095D01*
X178646428Y-104688095D01*
X178836904Y-104735714D01*
X178932142Y-104783333D01*
X178979761Y-104830952D01*
X179027380Y-104926190D01*
X179027380Y-105021428D01*
X178979761Y-105116666D01*
X178932142Y-105164285D01*
X178836904Y-105211904D01*
X178646428Y-105259523D01*
X178408333Y-105259523D01*
X178217857Y-105211904D01*
X178122619Y-105164285D01*
X178075000Y-105116666D01*
X178027380Y-105021428D01*
X179027380Y-102401785D02*
X178027380Y-102401785D01*
X178027380Y-102163690D01*
X178075000Y-102020833D01*
X178170238Y-101925595D01*
X178265476Y-101877976D01*
X178455952Y-101830357D01*
X178598809Y-101830357D01*
X178789285Y-101877976D01*
X178884523Y-101925595D01*
X178979761Y-102020833D01*
X179027380Y-102163690D01*
X179027380Y-102401785D01*
X178122619Y-101449404D02*
X178075000Y-101401785D01*
X178027380Y-101306547D01*
X178027380Y-101068452D01*
X178075000Y-100973214D01*
X178122619Y-100925595D01*
X178217857Y-100877976D01*
X178313095Y-100877976D01*
X178455952Y-100925595D01*
X179027380Y-101497023D01*
X179027380Y-100877976D01*
X179027380Y-100401785D02*
X179027380Y-100211309D01*
X178979761Y-100116071D01*
X178932142Y-100068452D01*
X178789285Y-99973214D01*
X178598809Y-99925595D01*
X178217857Y-99925595D01*
X178122619Y-99973214D01*
X178075000Y-100020833D01*
X178027380Y-100116071D01*
X178027380Y-100306547D01*
X178075000Y-100401785D01*
X178122619Y-100449404D01*
X178217857Y-100497023D01*
X178455952Y-100497023D01*
X178551190Y-100449404D01*
X178598809Y-100401785D01*
X178646428Y-100306547D01*
X178646428Y-100116071D01*
X178598809Y-100020833D01*
X178551190Y-99973214D01*
X178455952Y-99925595D01*
X179027380Y-97639285D02*
X178027380Y-97639285D01*
X178027380Y-97401190D01*
X178075000Y-97258333D01*
X178170238Y-97163095D01*
X178265476Y-97115476D01*
X178455952Y-97067857D01*
X178598809Y-97067857D01*
X178789285Y-97115476D01*
X178884523Y-97163095D01*
X178979761Y-97258333D01*
X179027380Y-97401190D01*
X179027380Y-97639285D01*
X178122619Y-96686904D02*
X178075000Y-96639285D01*
X178027380Y-96544047D01*
X178027380Y-96305952D01*
X178075000Y-96210714D01*
X178122619Y-96163095D01*
X178217857Y-96115476D01*
X178313095Y-96115476D01*
X178455952Y-96163095D01*
X179027380Y-96734523D01*
X179027380Y-96115476D01*
X178455952Y-95544047D02*
X178408333Y-95639285D01*
X178360714Y-95686904D01*
X178265476Y-95734523D01*
X178217857Y-95734523D01*
X178122619Y-95686904D01*
X178075000Y-95639285D01*
X178027380Y-95544047D01*
X178027380Y-95353571D01*
X178075000Y-95258333D01*
X178122619Y-95210714D01*
X178217857Y-95163095D01*
X178265476Y-95163095D01*
X178360714Y-95210714D01*
X178408333Y-95258333D01*
X178455952Y-95353571D01*
X178455952Y-95544047D01*
X178503571Y-95639285D01*
X178551190Y-95686904D01*
X178646428Y-95734523D01*
X178836904Y-95734523D01*
X178932142Y-95686904D01*
X178979761Y-95639285D01*
X179027380Y-95544047D01*
X179027380Y-95353571D01*
X178979761Y-95258333D01*
X178932142Y-95210714D01*
X178836904Y-95163095D01*
X178646428Y-95163095D01*
X178551190Y-95210714D01*
X178503571Y-95258333D01*
X178455952Y-95353571D01*
X179027380Y-92876785D02*
X178027380Y-92876785D01*
X178027380Y-92638690D01*
X178075000Y-92495833D01*
X178170238Y-92400595D01*
X178265476Y-92352976D01*
X178455952Y-92305357D01*
X178598809Y-92305357D01*
X178789285Y-92352976D01*
X178884523Y-92400595D01*
X178979761Y-92495833D01*
X179027380Y-92638690D01*
X179027380Y-92876785D01*
X178122619Y-91924404D02*
X178075000Y-91876785D01*
X178027380Y-91781547D01*
X178027380Y-91543452D01*
X178075000Y-91448214D01*
X178122619Y-91400595D01*
X178217857Y-91352976D01*
X178313095Y-91352976D01*
X178455952Y-91400595D01*
X179027380Y-91972023D01*
X179027380Y-91352976D01*
X178027380Y-91019642D02*
X178027380Y-90352976D01*
X179027380Y-90781547D01*
X179027380Y-88114285D02*
X178027380Y-88114285D01*
X178027380Y-87876190D01*
X178075000Y-87733333D01*
X178170238Y-87638095D01*
X178265476Y-87590476D01*
X178455952Y-87542857D01*
X178598809Y-87542857D01*
X178789285Y-87590476D01*
X178884523Y-87638095D01*
X178979761Y-87733333D01*
X179027380Y-87876190D01*
X179027380Y-88114285D01*
X178122619Y-87161904D02*
X178075000Y-87114285D01*
X178027380Y-87019047D01*
X178027380Y-86780952D01*
X178075000Y-86685714D01*
X178122619Y-86638095D01*
X178217857Y-86590476D01*
X178313095Y-86590476D01*
X178455952Y-86638095D01*
X179027380Y-87209523D01*
X179027380Y-86590476D01*
X178027380Y-85733333D02*
X178027380Y-85923809D01*
X178075000Y-86019047D01*
X178122619Y-86066666D01*
X178265476Y-86161904D01*
X178455952Y-86209523D01*
X178836904Y-86209523D01*
X178932142Y-86161904D01*
X178979761Y-86114285D01*
X179027380Y-86019047D01*
X179027380Y-85828571D01*
X178979761Y-85733333D01*
X178932142Y-85685714D01*
X178836904Y-85638095D01*
X178598809Y-85638095D01*
X178503571Y-85685714D01*
X178455952Y-85733333D01*
X178408333Y-85828571D01*
X178408333Y-86019047D01*
X178455952Y-86114285D01*
X178503571Y-86161904D01*
X178598809Y-86209523D01*
X179027380Y-71414285D02*
X178027380Y-71414285D01*
X178027380Y-71176190D01*
X178075000Y-71033333D01*
X178170238Y-70938095D01*
X178265476Y-70890476D01*
X178455952Y-70842857D01*
X178598809Y-70842857D01*
X178789285Y-70890476D01*
X178884523Y-70938095D01*
X178979761Y-71033333D01*
X179027380Y-71176190D01*
X179027380Y-71414285D01*
X178122619Y-70461904D02*
X178075000Y-70414285D01*
X178027380Y-70319047D01*
X178027380Y-70080952D01*
X178075000Y-69985714D01*
X178122619Y-69938095D01*
X178217857Y-69890476D01*
X178313095Y-69890476D01*
X178455952Y-69938095D01*
X179027380Y-70509523D01*
X179027380Y-69890476D01*
X178027380Y-68985714D02*
X178027380Y-69461904D01*
X178503571Y-69509523D01*
X178455952Y-69461904D01*
X178408333Y-69366666D01*
X178408333Y-69128571D01*
X178455952Y-69033333D01*
X178503571Y-68985714D01*
X178598809Y-68938095D01*
X178836904Y-68938095D01*
X178932142Y-68985714D01*
X178979761Y-69033333D01*
X179027380Y-69128571D01*
X179027380Y-69366666D01*
X178979761Y-69461904D01*
X178932142Y-69509523D01*
X188527380Y-82514275D02*
X187527380Y-82514275D01*
X187527380Y-82276180D01*
X187575000Y-82133323D01*
X187670238Y-82038085D01*
X187765476Y-81990466D01*
X187955952Y-81942847D01*
X188098809Y-81942847D01*
X188289285Y-81990466D01*
X188384523Y-82038085D01*
X188479761Y-82133323D01*
X188527380Y-82276180D01*
X188527380Y-82514275D01*
X187527380Y-81609513D02*
X187527380Y-80990466D01*
X187908333Y-81323799D01*
X187908333Y-81180942D01*
X187955952Y-81085704D01*
X188003571Y-81038085D01*
X188098809Y-80990466D01*
X188336904Y-80990466D01*
X188432142Y-81038085D01*
X188479761Y-81085704D01*
X188527380Y-81180942D01*
X188527380Y-81466656D01*
X188479761Y-81561894D01*
X188432142Y-81609513D01*
X187527380Y-80133323D02*
X187527380Y-80323799D01*
X187575000Y-80419037D01*
X187622619Y-80466656D01*
X187765476Y-80561894D01*
X187955952Y-80609513D01*
X188336904Y-80609513D01*
X188432142Y-80561894D01*
X188479761Y-80514275D01*
X188527380Y-80419037D01*
X188527380Y-80228561D01*
X188479761Y-80133323D01*
X188432142Y-80085704D01*
X188336904Y-80038085D01*
X188098809Y-80038085D01*
X188003571Y-80085704D01*
X187955952Y-80133323D01*
X187908333Y-80228561D01*
X187908333Y-80419037D01*
X187955952Y-80514275D01*
X188003571Y-80561894D01*
X188098809Y-80609513D01*
X198027380Y-88614285D02*
X197027380Y-88614285D01*
X197027380Y-88376190D01*
X197075000Y-88233333D01*
X197170238Y-88138095D01*
X197265476Y-88090476D01*
X197455952Y-88042857D01*
X197598809Y-88042857D01*
X197789285Y-88090476D01*
X197884523Y-88138095D01*
X197979761Y-88233333D01*
X198027380Y-88376190D01*
X198027380Y-88614285D01*
X197360714Y-87185714D02*
X198027380Y-87185714D01*
X196979761Y-87423809D02*
X197694047Y-87661904D01*
X197694047Y-87042857D01*
X197027380Y-86757142D02*
X197027380Y-86090476D01*
X198027380Y-86519047D01*
X179027380Y-56714285D02*
X178027380Y-56714285D01*
X178027380Y-56476190D01*
X178075000Y-56333333D01*
X178170238Y-56238095D01*
X178265476Y-56190476D01*
X178455952Y-56142857D01*
X178598809Y-56142857D01*
X178789285Y-56190476D01*
X178884523Y-56238095D01*
X178979761Y-56333333D01*
X179027380Y-56476190D01*
X179027380Y-56714285D01*
X178122619Y-55761904D02*
X178075000Y-55714285D01*
X178027380Y-55619047D01*
X178027380Y-55380952D01*
X178075000Y-55285714D01*
X178122619Y-55238095D01*
X178217857Y-55190476D01*
X178313095Y-55190476D01*
X178455952Y-55238095D01*
X179027380Y-55809523D01*
X179027380Y-55190476D01*
X178122619Y-54809523D02*
X178075000Y-54761904D01*
X178027380Y-54666666D01*
X178027380Y-54428571D01*
X178075000Y-54333333D01*
X178122619Y-54285714D01*
X178217857Y-54238095D01*
X178313095Y-54238095D01*
X178455952Y-54285714D01*
X179027380Y-54857142D01*
X179027380Y-54238095D01*
X169527380Y-107164285D02*
X168527380Y-107164285D01*
X168527380Y-106926190D01*
X168575000Y-106783333D01*
X168670238Y-106688095D01*
X168765476Y-106640476D01*
X168955952Y-106592857D01*
X169098809Y-106592857D01*
X169289285Y-106640476D01*
X169384523Y-106688095D01*
X169479761Y-106783333D01*
X169527380Y-106926190D01*
X169527380Y-107164285D01*
X168622619Y-106211904D02*
X168575000Y-106164285D01*
X168527380Y-106069047D01*
X168527380Y-105830952D01*
X168575000Y-105735714D01*
X168622619Y-105688095D01*
X168717857Y-105640476D01*
X168813095Y-105640476D01*
X168955952Y-105688095D01*
X169527380Y-106259523D01*
X169527380Y-105640476D01*
X168527380Y-105021428D02*
X168527380Y-104926190D01*
X168575000Y-104830952D01*
X168622619Y-104783333D01*
X168717857Y-104735714D01*
X168908333Y-104688095D01*
X169146428Y-104688095D01*
X169336904Y-104735714D01*
X169432142Y-104783333D01*
X169479761Y-104830952D01*
X169527380Y-104926190D01*
X169527380Y-105021428D01*
X169479761Y-105116666D01*
X169432142Y-105164285D01*
X169336904Y-105211904D01*
X169146428Y-105259523D01*
X168908333Y-105259523D01*
X168717857Y-105211904D01*
X168622619Y-105164285D01*
X168575000Y-105116666D01*
X168527380Y-105021428D01*
X169527380Y-101014285D02*
X168527380Y-101014285D01*
X168527380Y-100776190D01*
X168575000Y-100633333D01*
X168670238Y-100538095D01*
X168765476Y-100490476D01*
X168955952Y-100442857D01*
X169098809Y-100442857D01*
X169289285Y-100490476D01*
X169384523Y-100538095D01*
X169479761Y-100633333D01*
X169527380Y-100776190D01*
X169527380Y-101014285D01*
X169527380Y-99490476D02*
X169527380Y-100061904D01*
X169527380Y-99776190D02*
X168527380Y-99776190D01*
X168670238Y-99871428D01*
X168765476Y-99966666D01*
X168813095Y-100061904D01*
X169527380Y-99014285D02*
X169527380Y-98823809D01*
X169479761Y-98728571D01*
X169432142Y-98680952D01*
X169289285Y-98585714D01*
X169098809Y-98538095D01*
X168717857Y-98538095D01*
X168622619Y-98585714D01*
X168575000Y-98633333D01*
X168527380Y-98728571D01*
X168527380Y-98919047D01*
X168575000Y-99014285D01*
X168622619Y-99061904D01*
X168717857Y-99109523D01*
X168955952Y-99109523D01*
X169051190Y-99061904D01*
X169098809Y-99014285D01*
X169146428Y-98919047D01*
X169146428Y-98728571D01*
X169098809Y-98633333D01*
X169051190Y-98585714D01*
X168955952Y-98538095D01*
X169527380Y-94864285D02*
X168527380Y-94864285D01*
X168527380Y-94626190D01*
X168575000Y-94483333D01*
X168670238Y-94388095D01*
X168765476Y-94340476D01*
X168955952Y-94292857D01*
X169098809Y-94292857D01*
X169289285Y-94340476D01*
X169384523Y-94388095D01*
X169479761Y-94483333D01*
X169527380Y-94626190D01*
X169527380Y-94864285D01*
X169527380Y-93340476D02*
X169527380Y-93911904D01*
X169527380Y-93626190D02*
X168527380Y-93626190D01*
X168670238Y-93721428D01*
X168765476Y-93816666D01*
X168813095Y-93911904D01*
X168955952Y-92769047D02*
X168908333Y-92864285D01*
X168860714Y-92911904D01*
X168765476Y-92959523D01*
X168717857Y-92959523D01*
X168622619Y-92911904D01*
X168575000Y-92864285D01*
X168527380Y-92769047D01*
X168527380Y-92578571D01*
X168575000Y-92483333D01*
X168622619Y-92435714D01*
X168717857Y-92388095D01*
X168765476Y-92388095D01*
X168860714Y-92435714D01*
X168908333Y-92483333D01*
X168955952Y-92578571D01*
X168955952Y-92769047D01*
X169003571Y-92864285D01*
X169051190Y-92911904D01*
X169146428Y-92959523D01*
X169336904Y-92959523D01*
X169432142Y-92911904D01*
X169479761Y-92864285D01*
X169527380Y-92769047D01*
X169527380Y-92578571D01*
X169479761Y-92483333D01*
X169432142Y-92435714D01*
X169336904Y-92388095D01*
X169146428Y-92388095D01*
X169051190Y-92435714D01*
X169003571Y-92483333D01*
X168955952Y-92578571D01*
X169527380Y-88714285D02*
X168527380Y-88714285D01*
X168527380Y-88476190D01*
X168575000Y-88333333D01*
X168670238Y-88238095D01*
X168765476Y-88190476D01*
X168955952Y-88142857D01*
X169098809Y-88142857D01*
X169289285Y-88190476D01*
X169384523Y-88238095D01*
X169479761Y-88333333D01*
X169527380Y-88476190D01*
X169527380Y-88714285D01*
X169527380Y-87190476D02*
X169527380Y-87761904D01*
X169527380Y-87476190D02*
X168527380Y-87476190D01*
X168670238Y-87571428D01*
X168765476Y-87666666D01*
X168813095Y-87761904D01*
X168527380Y-86857142D02*
X168527380Y-86190476D01*
X169527380Y-86619047D01*
X169527380Y-82564285D02*
X168527380Y-82564285D01*
X168527380Y-82326190D01*
X168575000Y-82183333D01*
X168670238Y-82088095D01*
X168765476Y-82040476D01*
X168955952Y-81992857D01*
X169098809Y-81992857D01*
X169289285Y-82040476D01*
X169384523Y-82088095D01*
X169479761Y-82183333D01*
X169527380Y-82326190D01*
X169527380Y-82564285D01*
X169527380Y-81040476D02*
X169527380Y-81611904D01*
X169527380Y-81326190D02*
X168527380Y-81326190D01*
X168670238Y-81421428D01*
X168765476Y-81516666D01*
X168813095Y-81611904D01*
X168527380Y-80183333D02*
X168527380Y-80373809D01*
X168575000Y-80469047D01*
X168622619Y-80516666D01*
X168765476Y-80611904D01*
X168955952Y-80659523D01*
X169336904Y-80659523D01*
X169432142Y-80611904D01*
X169479761Y-80564285D01*
X169527380Y-80469047D01*
X169527380Y-80278571D01*
X169479761Y-80183333D01*
X169432142Y-80135714D01*
X169336904Y-80088095D01*
X169098809Y-80088095D01*
X169003571Y-80135714D01*
X168955952Y-80183333D01*
X168908333Y-80278571D01*
X168908333Y-80469047D01*
X168955952Y-80564285D01*
X169003571Y-80611904D01*
X169098809Y-80659523D01*
X169527380Y-76414285D02*
X168527380Y-76414285D01*
X168527380Y-76176190D01*
X168575000Y-76033333D01*
X168670238Y-75938095D01*
X168765476Y-75890476D01*
X168955952Y-75842857D01*
X169098809Y-75842857D01*
X169289285Y-75890476D01*
X169384523Y-75938095D01*
X169479761Y-76033333D01*
X169527380Y-76176190D01*
X169527380Y-76414285D01*
X169527380Y-74890476D02*
X169527380Y-75461904D01*
X169527380Y-75176190D02*
X168527380Y-75176190D01*
X168670238Y-75271428D01*
X168765476Y-75366666D01*
X168813095Y-75461904D01*
X168527380Y-73985714D02*
X168527380Y-74461904D01*
X169003571Y-74509523D01*
X168955952Y-74461904D01*
X168908333Y-74366666D01*
X168908333Y-74128571D01*
X168955952Y-74033333D01*
X169003571Y-73985714D01*
X169098809Y-73938095D01*
X169336904Y-73938095D01*
X169432142Y-73985714D01*
X169479761Y-74033333D01*
X169527380Y-74128571D01*
X169527380Y-74366666D01*
X169479761Y-74461904D01*
X169432142Y-74509523D01*
X169527380Y-70264285D02*
X168527380Y-70264285D01*
X168527380Y-70026190D01*
X168575000Y-69883333D01*
X168670238Y-69788095D01*
X168765476Y-69740476D01*
X168955952Y-69692857D01*
X169098809Y-69692857D01*
X169289285Y-69740476D01*
X169384523Y-69788095D01*
X169479761Y-69883333D01*
X169527380Y-70026190D01*
X169527380Y-70264285D01*
X169527380Y-68740476D02*
X169527380Y-69311904D01*
X169527380Y-69026190D02*
X168527380Y-69026190D01*
X168670238Y-69121428D01*
X168765476Y-69216666D01*
X168813095Y-69311904D01*
X168860714Y-67883333D02*
X169527380Y-67883333D01*
X168479761Y-68121428D02*
X169194047Y-68359523D01*
X169194047Y-67740476D01*
X169527380Y-64114285D02*
X168527380Y-64114285D01*
X168527380Y-63876190D01*
X168575000Y-63733333D01*
X168670238Y-63638095D01*
X168765476Y-63590476D01*
X168955952Y-63542857D01*
X169098809Y-63542857D01*
X169289285Y-63590476D01*
X169384523Y-63638095D01*
X169479761Y-63733333D01*
X169527380Y-63876190D01*
X169527380Y-64114285D01*
X169527380Y-62590476D02*
X169527380Y-63161904D01*
X169527380Y-62876190D02*
X168527380Y-62876190D01*
X168670238Y-62971428D01*
X168765476Y-63066666D01*
X168813095Y-63161904D01*
X168527380Y-62257142D02*
X168527380Y-61638095D01*
X168908333Y-61971428D01*
X168908333Y-61828571D01*
X168955952Y-61733333D01*
X169003571Y-61685714D01*
X169098809Y-61638095D01*
X169336904Y-61638095D01*
X169432142Y-61685714D01*
X169479761Y-61733333D01*
X169527380Y-61828571D01*
X169527380Y-62114285D01*
X169479761Y-62209523D01*
X169432142Y-62257142D01*
X169527380Y-57964285D02*
X168527380Y-57964285D01*
X168527380Y-57726190D01*
X168575000Y-57583333D01*
X168670238Y-57488095D01*
X168765476Y-57440476D01*
X168955952Y-57392857D01*
X169098809Y-57392857D01*
X169289285Y-57440476D01*
X169384523Y-57488095D01*
X169479761Y-57583333D01*
X169527380Y-57726190D01*
X169527380Y-57964285D01*
X169527380Y-56440476D02*
X169527380Y-57011904D01*
X169527380Y-56726190D02*
X168527380Y-56726190D01*
X168670238Y-56821428D01*
X168765476Y-56916666D01*
X168813095Y-57011904D01*
X168622619Y-56059523D02*
X168575000Y-56011904D01*
X168527380Y-55916666D01*
X168527380Y-55678571D01*
X168575000Y-55583333D01*
X168622619Y-55535714D01*
X168717857Y-55488095D01*
X168813095Y-55488095D01*
X168955952Y-55535714D01*
X169527380Y-56107142D01*
X169527380Y-55488095D01*
X179027380Y-66514285D02*
X178027380Y-66514285D01*
X178027380Y-66276190D01*
X178075000Y-66133333D01*
X178170238Y-66038095D01*
X178265476Y-65990476D01*
X178455952Y-65942857D01*
X178598809Y-65942857D01*
X178789285Y-65990476D01*
X178884523Y-66038095D01*
X178979761Y-66133333D01*
X179027380Y-66276190D01*
X179027380Y-66514285D01*
X178122619Y-65561904D02*
X178075000Y-65514285D01*
X178027380Y-65419047D01*
X178027380Y-65180952D01*
X178075000Y-65085714D01*
X178122619Y-65038095D01*
X178217857Y-64990476D01*
X178313095Y-64990476D01*
X178455952Y-65038095D01*
X179027380Y-65609523D01*
X179027380Y-64990476D01*
X178360714Y-64133333D02*
X179027380Y-64133333D01*
X177979761Y-64371428D02*
X178694047Y-64609523D01*
X178694047Y-63990476D01*
X198027380Y-100964285D02*
X197027380Y-100964285D01*
X197027380Y-100726190D01*
X197075000Y-100583333D01*
X197170238Y-100488095D01*
X197265476Y-100440476D01*
X197455952Y-100392857D01*
X197598809Y-100392857D01*
X197789285Y-100440476D01*
X197884523Y-100488095D01*
X197979761Y-100583333D01*
X198027380Y-100726190D01*
X198027380Y-100964285D01*
X197360714Y-99535714D02*
X198027380Y-99535714D01*
X196979761Y-99773809D02*
X197694047Y-100011904D01*
X197694047Y-99392857D01*
X198027380Y-98964285D02*
X198027380Y-98773809D01*
X197979761Y-98678571D01*
X197932142Y-98630952D01*
X197789285Y-98535714D01*
X197598809Y-98488095D01*
X197217857Y-98488095D01*
X197122619Y-98535714D01*
X197075000Y-98583333D01*
X197027380Y-98678571D01*
X197027380Y-98869047D01*
X197075000Y-98964285D01*
X197122619Y-99011904D01*
X197217857Y-99059523D01*
X197455952Y-99059523D01*
X197551190Y-99011904D01*
X197598809Y-98964285D01*
X197646428Y-98869047D01*
X197646428Y-98678571D01*
X197598809Y-98583333D01*
X197551190Y-98535714D01*
X197455952Y-98488095D01*
X198027380Y-107164285D02*
X197027380Y-107164285D01*
X197027380Y-106926190D01*
X197075000Y-106783333D01*
X197170238Y-106688095D01*
X197265476Y-106640476D01*
X197455952Y-106592857D01*
X197598809Y-106592857D01*
X197789285Y-106640476D01*
X197884523Y-106688095D01*
X197979761Y-106783333D01*
X198027380Y-106926190D01*
X198027380Y-107164285D01*
X197027380Y-105688095D02*
X197027380Y-106164285D01*
X197503571Y-106211904D01*
X197455952Y-106164285D01*
X197408333Y-106069047D01*
X197408333Y-105830952D01*
X197455952Y-105735714D01*
X197503571Y-105688095D01*
X197598809Y-105640476D01*
X197836904Y-105640476D01*
X197932142Y-105688095D01*
X197979761Y-105735714D01*
X198027380Y-105830952D01*
X198027380Y-106069047D01*
X197979761Y-106164285D01*
X197932142Y-106211904D01*
X197027380Y-105021428D02*
X197027380Y-104926190D01*
X197075000Y-104830952D01*
X197122619Y-104783333D01*
X197217857Y-104735714D01*
X197408333Y-104688095D01*
X197646428Y-104688095D01*
X197836904Y-104735714D01*
X197932142Y-104783333D01*
X197979761Y-104830952D01*
X198027380Y-104926190D01*
X198027380Y-105021428D01*
X197979761Y-105116666D01*
X197932142Y-105164285D01*
X197836904Y-105211904D01*
X197646428Y-105259523D01*
X197408333Y-105259523D01*
X197217857Y-105211904D01*
X197122619Y-105164285D01*
X197075000Y-105116666D01*
X197027380Y-105021428D01*
X160027380Y-107214280D02*
X159027380Y-107214280D01*
X159027380Y-106976185D01*
X159075000Y-106833328D01*
X159170238Y-106738090D01*
X159265476Y-106690471D01*
X159455952Y-106642852D01*
X159598809Y-106642852D01*
X159789285Y-106690471D01*
X159884523Y-106738090D01*
X159979761Y-106833328D01*
X160027380Y-106976185D01*
X160027380Y-107214280D01*
X160027380Y-105690471D02*
X160027380Y-106261899D01*
X160027380Y-105976185D02*
X159027380Y-105976185D01*
X159170238Y-106071423D01*
X159265476Y-106166661D01*
X159313095Y-106261899D01*
X159027380Y-105071423D02*
X159027380Y-104976185D01*
X159075000Y-104880947D01*
X159122619Y-104833328D01*
X159217857Y-104785709D01*
X159408333Y-104738090D01*
X159646428Y-104738090D01*
X159836904Y-104785709D01*
X159932142Y-104833328D01*
X159979761Y-104880947D01*
X160027380Y-104976185D01*
X160027380Y-105071423D01*
X159979761Y-105166661D01*
X159932142Y-105214280D01*
X159836904Y-105261899D01*
X159646428Y-105309518D01*
X159408333Y-105309518D01*
X159217857Y-105261899D01*
X159122619Y-105214280D01*
X159075000Y-105166661D01*
X159027380Y-105071423D01*
X160027380Y-100582535D02*
X159027380Y-100582535D01*
X159027380Y-100344440D01*
X159075000Y-100201582D01*
X159170238Y-100106344D01*
X159265476Y-100058725D01*
X159455952Y-100011106D01*
X159598809Y-100011106D01*
X159789285Y-100058725D01*
X159884523Y-100106344D01*
X159979761Y-100201582D01*
X160027380Y-100344440D01*
X160027380Y-100582535D01*
X160027380Y-99534916D02*
X160027380Y-99344440D01*
X159979761Y-99249201D01*
X159932142Y-99201582D01*
X159789285Y-99106344D01*
X159598809Y-99058725D01*
X159217857Y-99058725D01*
X159122619Y-99106344D01*
X159075000Y-99153963D01*
X159027380Y-99249201D01*
X159027380Y-99439678D01*
X159075000Y-99534916D01*
X159122619Y-99582535D01*
X159217857Y-99630154D01*
X159455952Y-99630154D01*
X159551190Y-99582535D01*
X159598809Y-99534916D01*
X159646428Y-99439678D01*
X159646428Y-99249201D01*
X159598809Y-99153963D01*
X159551190Y-99106344D01*
X159455952Y-99058725D01*
X160027380Y-94426980D02*
X159027380Y-94426980D01*
X159027380Y-94188885D01*
X159075000Y-94046027D01*
X159170238Y-93950789D01*
X159265476Y-93903170D01*
X159455952Y-93855551D01*
X159598809Y-93855551D01*
X159789285Y-93903170D01*
X159884523Y-93950789D01*
X159979761Y-94046027D01*
X160027380Y-94188885D01*
X160027380Y-94426980D01*
X159455952Y-93284123D02*
X159408333Y-93379361D01*
X159360714Y-93426980D01*
X159265476Y-93474599D01*
X159217857Y-93474599D01*
X159122619Y-93426980D01*
X159075000Y-93379361D01*
X159027380Y-93284123D01*
X159027380Y-93093646D01*
X159075000Y-92998408D01*
X159122619Y-92950789D01*
X159217857Y-92903170D01*
X159265476Y-92903170D01*
X159360714Y-92950789D01*
X159408333Y-92998408D01*
X159455952Y-93093646D01*
X159455952Y-93284123D01*
X159503571Y-93379361D01*
X159551190Y-93426980D01*
X159646428Y-93474599D01*
X159836904Y-93474599D01*
X159932142Y-93426980D01*
X159979761Y-93379361D01*
X160027380Y-93284123D01*
X160027380Y-93093646D01*
X159979761Y-92998408D01*
X159932142Y-92950789D01*
X159836904Y-92903170D01*
X159646428Y-92903170D01*
X159551190Y-92950789D01*
X159503571Y-92998408D01*
X159455952Y-93093646D01*
X160027380Y-88271425D02*
X159027380Y-88271425D01*
X159027380Y-88033330D01*
X159075000Y-87890472D01*
X159170238Y-87795234D01*
X159265476Y-87747615D01*
X159455952Y-87699996D01*
X159598809Y-87699996D01*
X159789285Y-87747615D01*
X159884523Y-87795234D01*
X159979761Y-87890472D01*
X160027380Y-88033330D01*
X160027380Y-88271425D01*
X159027380Y-87366663D02*
X159027380Y-86699996D01*
X160027380Y-87128568D01*
X160027380Y-82115870D02*
X159027380Y-82115870D01*
X159027380Y-81877775D01*
X159075000Y-81734917D01*
X159170238Y-81639679D01*
X159265476Y-81592060D01*
X159455952Y-81544441D01*
X159598809Y-81544441D01*
X159789285Y-81592060D01*
X159884523Y-81639679D01*
X159979761Y-81734917D01*
X160027380Y-81877775D01*
X160027380Y-82115870D01*
X159027380Y-80687298D02*
X159027380Y-80877775D01*
X159075000Y-80973013D01*
X159122619Y-81020632D01*
X159265476Y-81115870D01*
X159455952Y-81163489D01*
X159836904Y-81163489D01*
X159932142Y-81115870D01*
X159979761Y-81068251D01*
X160027380Y-80973013D01*
X160027380Y-80782536D01*
X159979761Y-80687298D01*
X159932142Y-80639679D01*
X159836904Y-80592060D01*
X159598809Y-80592060D01*
X159503571Y-80639679D01*
X159455952Y-80687298D01*
X159408333Y-80782536D01*
X159408333Y-80973013D01*
X159455952Y-81068251D01*
X159503571Y-81115870D01*
X159598809Y-81163489D01*
X160027380Y-75960315D02*
X159027380Y-75960315D01*
X159027380Y-75722220D01*
X159075000Y-75579362D01*
X159170238Y-75484124D01*
X159265476Y-75436505D01*
X159455952Y-75388886D01*
X159598809Y-75388886D01*
X159789285Y-75436505D01*
X159884523Y-75484124D01*
X159979761Y-75579362D01*
X160027380Y-75722220D01*
X160027380Y-75960315D01*
X159027380Y-74484124D02*
X159027380Y-74960315D01*
X159503571Y-75007934D01*
X159455952Y-74960315D01*
X159408333Y-74865077D01*
X159408333Y-74626981D01*
X159455952Y-74531743D01*
X159503571Y-74484124D01*
X159598809Y-74436505D01*
X159836904Y-74436505D01*
X159932142Y-74484124D01*
X159979761Y-74531743D01*
X160027380Y-74626981D01*
X160027380Y-74865077D01*
X159979761Y-74960315D01*
X159932142Y-75007934D01*
X160027380Y-69804760D02*
X159027380Y-69804760D01*
X159027380Y-69566665D01*
X159075000Y-69423807D01*
X159170238Y-69328569D01*
X159265476Y-69280950D01*
X159455952Y-69233331D01*
X159598809Y-69233331D01*
X159789285Y-69280950D01*
X159884523Y-69328569D01*
X159979761Y-69423807D01*
X160027380Y-69566665D01*
X160027380Y-69804760D01*
X159360714Y-68376188D02*
X160027380Y-68376188D01*
X158979761Y-68614284D02*
X159694047Y-68852379D01*
X159694047Y-68233331D01*
X160027380Y-63649205D02*
X159027380Y-63649205D01*
X159027380Y-63411110D01*
X159075000Y-63268252D01*
X159170238Y-63173014D01*
X159265476Y-63125395D01*
X159455952Y-63077776D01*
X159598809Y-63077776D01*
X159789285Y-63125395D01*
X159884523Y-63173014D01*
X159979761Y-63268252D01*
X160027380Y-63411110D01*
X160027380Y-63649205D01*
X159027380Y-62744443D02*
X159027380Y-62125395D01*
X159408333Y-62458729D01*
X159408333Y-62315871D01*
X159455952Y-62220633D01*
X159503571Y-62173014D01*
X159598809Y-62125395D01*
X159836904Y-62125395D01*
X159932142Y-62173014D01*
X159979761Y-62220633D01*
X160027380Y-62315871D01*
X160027380Y-62601586D01*
X159979761Y-62696824D01*
X159932142Y-62744443D01*
M02*
