G04 #@! TF.GenerationSoftware,KiCad,Pcbnew,no-vcs-found-01f5a12~58~ubuntu14.04.1*
G04 #@! TF.CreationDate,2017-05-04T16:20:22+02:00*
G04 #@! TF.ProjectId,leddy,6C656464792E6B696361645F70636200,rev?*
G04 #@! TF.FileFunction,Copper,L1,Top,Signal*
G04 #@! TF.FilePolarity,Positive*
%FSLAX46Y46*%
G04 Gerber Fmt 4.6, Leading zero omitted, Abs format (unit mm)*
G04 Created by KiCad (PCBNEW no-vcs-found-01f5a12~58~ubuntu14.04.1) date Thu May  4 16:20:22 2017*
%MOMM*%
%LPD*%
G01*
G04 APERTURE LIST*
%ADD10C,0.100000*%
%ADD11R,1.140000X2.030000*%
%ADD12C,1.000000*%
%ADD13R,1.050000X0.450000*%
%ADD14R,1.470000X0.895000*%
%ADD15R,1.200000X0.900000*%
%ADD16C,2.397760*%
%ADD17R,1.500000X0.450000*%
%ADD18C,4.800000*%
%ADD19R,4.800000X4.800000*%
%ADD20R,3.000000X0.900000*%
%ADD21R,3.000000X2.000000*%
%ADD22C,0.600000*%
%ADD23C,5.700000*%
%ADD24R,0.900000X1.200000*%
%ADD25R,2.000000X1.700000*%
%ADD26R,1.270000X1.400000*%
%ADD27R,4.800000X4.720000*%
%ADD28R,0.750000X1.200000*%
%ADD29R,1.903000X2.790000*%
%ADD30R,2.413000X3.429000*%
%ADD31R,2.000000X1.500000*%
%ADD32R,2.000000X3.800000*%
G04 APERTURE END LIST*
D10*
D11*
X108597219Y-101307056D03*
X110997219Y-101307056D03*
D12*
X88740000Y-81200000D03*
X90110000Y-81220000D03*
X90090000Y-79160000D03*
X88720000Y-79150000D03*
D13*
X86625000Y-77925000D03*
X86625000Y-78575000D03*
X86625000Y-79225000D03*
X86625000Y-79875000D03*
X86625000Y-80525000D03*
X86625000Y-81175000D03*
X86625000Y-81825000D03*
X86625000Y-82475000D03*
X92175000Y-82475000D03*
X92175000Y-81825000D03*
X92175000Y-81175000D03*
X92175000Y-80525000D03*
X92175000Y-79875000D03*
X92175000Y-79225000D03*
X92175000Y-78575000D03*
X92175000Y-77925000D03*
D14*
X90135000Y-81542500D03*
X90135000Y-80647500D03*
X90135000Y-79752500D03*
X90135000Y-78857500D03*
X88665000Y-81542500D03*
X88665000Y-80647500D03*
X88665000Y-79752500D03*
X88665000Y-78857500D03*
D15*
X126500000Y-80600000D03*
X128700000Y-80600000D03*
D16*
X134228000Y-96856000D03*
X143372000Y-106000000D03*
X134228000Y-106000000D03*
X143372000Y-96856000D03*
D17*
X149650000Y-99125000D03*
X149650000Y-99775000D03*
X149650000Y-100425000D03*
X149650000Y-101075000D03*
X149650000Y-101725000D03*
X149650000Y-102375000D03*
X149650000Y-103025000D03*
X149650000Y-103675000D03*
X155550000Y-103675000D03*
X155550000Y-103025000D03*
X155550000Y-102375000D03*
X155550000Y-101725000D03*
X155550000Y-101075000D03*
X155550000Y-100425000D03*
X155550000Y-99775000D03*
X155550000Y-99125000D03*
D18*
X144000000Y-56100000D03*
D19*
X144000000Y-62200000D03*
D18*
X138920000Y-58390000D03*
D20*
X163000000Y-55155555D03*
D21*
X163000000Y-57155555D03*
D22*
X162000000Y-55055555D03*
X164000000Y-55055555D03*
X163000000Y-55055555D03*
X162000000Y-57805555D03*
X162000000Y-56555555D03*
X164000000Y-57805555D03*
X164000000Y-56555555D03*
X163000000Y-56555555D03*
X163000000Y-57805555D03*
D20*
X201000000Y-49000000D03*
D21*
X201000000Y-51000000D03*
D22*
X200000000Y-48900000D03*
X202000000Y-48900000D03*
X201000000Y-48900000D03*
X200000000Y-51650000D03*
X200000000Y-50400000D03*
X202000000Y-51650000D03*
X202000000Y-50400000D03*
X201000000Y-50400000D03*
X201000000Y-51650000D03*
D20*
X191300000Y-48950000D03*
D21*
X191300000Y-50950000D03*
D22*
X190300000Y-48850000D03*
X192300000Y-48850000D03*
X191300000Y-48850000D03*
X190300000Y-51600000D03*
X190300000Y-50350000D03*
X192300000Y-51600000D03*
X192300000Y-50350000D03*
X191300000Y-50350000D03*
X191300000Y-51600000D03*
D20*
X182000000Y-49000000D03*
D21*
X182000000Y-51000000D03*
D22*
X181000000Y-48900000D03*
X183000000Y-48900000D03*
X182000000Y-48900000D03*
X181000000Y-51650000D03*
X181000000Y-50400000D03*
X183000000Y-51650000D03*
X183000000Y-50400000D03*
X182000000Y-50400000D03*
X182000000Y-51650000D03*
D20*
X172500000Y-49000000D03*
D21*
X172500000Y-51000000D03*
D22*
X171500000Y-48900000D03*
X173500000Y-48900000D03*
X172500000Y-48900000D03*
X171500000Y-51650000D03*
X171500000Y-50400000D03*
X173500000Y-51650000D03*
X173500000Y-50400000D03*
X172500000Y-50400000D03*
X172500000Y-51650000D03*
D20*
X163000000Y-49000000D03*
D21*
X163000000Y-51000000D03*
D22*
X162000000Y-48900000D03*
X164000000Y-48900000D03*
X163000000Y-48900000D03*
X162000000Y-51650000D03*
X162000000Y-50400000D03*
X164000000Y-51650000D03*
X164000000Y-50400000D03*
X163000000Y-50400000D03*
X163000000Y-51650000D03*
D23*
X207200000Y-51200000D03*
X207200000Y-104600000D03*
X127600000Y-104800000D03*
X127600000Y-51200000D03*
D24*
X146200000Y-79700000D03*
X146200000Y-77500000D03*
D25*
X131000000Y-93000000D03*
X127000000Y-93000000D03*
D26*
X88400000Y-61760000D03*
D27*
X92200000Y-62800000D03*
D26*
X88400000Y-63840000D03*
D15*
X141900000Y-89800000D03*
X139700000Y-89800000D03*
X136300000Y-88400000D03*
X134100000Y-88400000D03*
D25*
X130800000Y-87600000D03*
X126800000Y-87600000D03*
D28*
X142700000Y-85650000D03*
X142700000Y-83750000D03*
X135100000Y-85050000D03*
X135100000Y-83150000D03*
D29*
X128073500Y-68500000D03*
X132926500Y-68500000D03*
X153926500Y-79700000D03*
X149073500Y-79700000D03*
D30*
X113721000Y-66000000D03*
X107879000Y-66000000D03*
D24*
X132300000Y-80900000D03*
X132300000Y-78700000D03*
D15*
X140200000Y-83500000D03*
X138000000Y-83500000D03*
X126700000Y-75400000D03*
X128900000Y-75400000D03*
X131100000Y-75400000D03*
X133300000Y-75400000D03*
D31*
X113450000Y-83700000D03*
X113450000Y-88300000D03*
X113450000Y-86000000D03*
D32*
X119750000Y-86000000D03*
D20*
X182000000Y-58800000D03*
D21*
X182000000Y-60800000D03*
D22*
X181000000Y-58700000D03*
X183000000Y-58700000D03*
X182000000Y-58700000D03*
X181000000Y-61450000D03*
X181000000Y-60200000D03*
X183000000Y-61450000D03*
X183000000Y-60200000D03*
X182000000Y-60200000D03*
X182000000Y-61450000D03*
D20*
X201000000Y-92000000D03*
D21*
X201000000Y-94000000D03*
D22*
X200000000Y-91900000D03*
X202000000Y-91900000D03*
X201000000Y-91900000D03*
X200000000Y-94650000D03*
X200000000Y-93400000D03*
X202000000Y-94650000D03*
X202000000Y-93400000D03*
X201000000Y-93400000D03*
X201000000Y-94650000D03*
D20*
X201000000Y-79750000D03*
D21*
X201000000Y-81750000D03*
D22*
X200000000Y-79650000D03*
X202000000Y-79650000D03*
X201000000Y-79650000D03*
X200000000Y-82400000D03*
X200000000Y-81150000D03*
X202000000Y-82400000D03*
X202000000Y-81150000D03*
X201000000Y-81150000D03*
X201000000Y-82400000D03*
D20*
X201000000Y-73600000D03*
D21*
X201000000Y-75600000D03*
D22*
X200000000Y-73500000D03*
X202000000Y-73500000D03*
X201000000Y-73500000D03*
X200000000Y-76250000D03*
X200000000Y-75000000D03*
X202000000Y-76250000D03*
X202000000Y-75000000D03*
X201000000Y-75000000D03*
X201000000Y-76250000D03*
D20*
X201000000Y-67400000D03*
D21*
X201000000Y-69400000D03*
D22*
X200000000Y-67300000D03*
X202000000Y-67300000D03*
X201000000Y-67300000D03*
X200000000Y-70050000D03*
X200000000Y-68800000D03*
X202000000Y-70050000D03*
X202000000Y-68800000D03*
X201000000Y-68800000D03*
X201000000Y-70050000D03*
D20*
X201000000Y-61300000D03*
D21*
X201000000Y-63300000D03*
D22*
X200000000Y-61200000D03*
X202000000Y-61200000D03*
X201000000Y-61200000D03*
X200000000Y-63950000D03*
X200000000Y-62700000D03*
X202000000Y-63950000D03*
X202000000Y-62700000D03*
X201000000Y-62700000D03*
X201000000Y-63950000D03*
D20*
X201000000Y-55150000D03*
D21*
X201000000Y-57150000D03*
D22*
X200000000Y-55050000D03*
X202000000Y-55050000D03*
X201000000Y-55050000D03*
X200000000Y-57800000D03*
X200000000Y-56550000D03*
X202000000Y-57800000D03*
X202000000Y-56550000D03*
X201000000Y-56550000D03*
X201000000Y-57800000D03*
D20*
X191500000Y-104299982D03*
D21*
X191500000Y-106299982D03*
D22*
X190500000Y-104199982D03*
X192500000Y-104199982D03*
X191500000Y-104199982D03*
X190500000Y-106949982D03*
X190500000Y-105699982D03*
X192500000Y-106949982D03*
X192500000Y-105699982D03*
X191500000Y-105699982D03*
X191500000Y-106949982D03*
D20*
X191500000Y-98149984D03*
D21*
X191500000Y-100149984D03*
D22*
X190500000Y-98049984D03*
X192500000Y-98049984D03*
X191500000Y-98049984D03*
X190500000Y-100799984D03*
X190500000Y-99549984D03*
X192500000Y-100799984D03*
X192500000Y-99549984D03*
X191500000Y-99549984D03*
X191500000Y-100799984D03*
D20*
X191500000Y-91999986D03*
D21*
X191500000Y-93999986D03*
D22*
X190500000Y-91899986D03*
X192500000Y-91899986D03*
X191500000Y-91899986D03*
X190500000Y-94649986D03*
X190500000Y-93399986D03*
X192500000Y-94649986D03*
X192500000Y-93399986D03*
X191500000Y-93399986D03*
X191500000Y-94649986D03*
D20*
X191500000Y-85849988D03*
D21*
X191500000Y-87849988D03*
D22*
X190500000Y-85749988D03*
X192500000Y-85749988D03*
X191500000Y-85749988D03*
X190500000Y-88499988D03*
X190500000Y-87249988D03*
X192500000Y-88499988D03*
X192500000Y-87249988D03*
X191500000Y-87249988D03*
X191500000Y-88499988D03*
D20*
X191500000Y-73549992D03*
D21*
X191500000Y-75549992D03*
D22*
X190500000Y-73449992D03*
X192500000Y-73449992D03*
X191500000Y-73449992D03*
X190500000Y-76199992D03*
X190500000Y-74949992D03*
X192500000Y-76199992D03*
X192500000Y-74949992D03*
X191500000Y-74949992D03*
X191500000Y-76199992D03*
D20*
X191500000Y-67399994D03*
D21*
X191500000Y-69399994D03*
D22*
X190500000Y-67299994D03*
X192500000Y-67299994D03*
X191500000Y-67299994D03*
X190500000Y-70049994D03*
X190500000Y-68799994D03*
X192500000Y-70049994D03*
X192500000Y-68799994D03*
X191500000Y-68799994D03*
X191500000Y-70049994D03*
D20*
X191500000Y-61249996D03*
D21*
X191500000Y-63249996D03*
D22*
X190500000Y-61149996D03*
X192500000Y-61149996D03*
X191500000Y-61149996D03*
X190500000Y-63899996D03*
X190500000Y-62649996D03*
X192500000Y-63899996D03*
X192500000Y-62649996D03*
X191500000Y-62649996D03*
X191500000Y-63899996D03*
D20*
X191500000Y-55099998D03*
D21*
X191500000Y-57099998D03*
D22*
X190500000Y-54999998D03*
X192500000Y-54999998D03*
X191500000Y-54999998D03*
X190500000Y-57749998D03*
X190500000Y-56499998D03*
X192500000Y-57749998D03*
X192500000Y-56499998D03*
X191500000Y-56499998D03*
X191500000Y-57749998D03*
D20*
X182000000Y-104350000D03*
D21*
X182000000Y-106350000D03*
D22*
X181000000Y-104250000D03*
X183000000Y-104250000D03*
X182000000Y-104250000D03*
X181000000Y-107000000D03*
X181000000Y-105750000D03*
X183000000Y-107000000D03*
X183000000Y-105750000D03*
X182000000Y-105750000D03*
X182000000Y-107000000D03*
D20*
X182000000Y-99587500D03*
D21*
X182000000Y-101587500D03*
D22*
X181000000Y-99487500D03*
X183000000Y-99487500D03*
X182000000Y-99487500D03*
X181000000Y-102237500D03*
X181000000Y-100987500D03*
X183000000Y-102237500D03*
X183000000Y-100987500D03*
X182000000Y-100987500D03*
X182000000Y-102237500D03*
D20*
X182000000Y-94825000D03*
D21*
X182000000Y-96825000D03*
D22*
X181000000Y-94725000D03*
X183000000Y-94725000D03*
X182000000Y-94725000D03*
X181000000Y-97475000D03*
X181000000Y-96225000D03*
X183000000Y-97475000D03*
X183000000Y-96225000D03*
X182000000Y-96225000D03*
X182000000Y-97475000D03*
D20*
X182000000Y-90062500D03*
D21*
X182000000Y-92062500D03*
D22*
X181000000Y-89962500D03*
X183000000Y-89962500D03*
X182000000Y-89962500D03*
X181000000Y-92712500D03*
X181000000Y-91462500D03*
X183000000Y-92712500D03*
X183000000Y-91462500D03*
X182000000Y-91462500D03*
X182000000Y-92712500D03*
D20*
X182000000Y-85300000D03*
D21*
X182000000Y-87300000D03*
D22*
X181000000Y-85200000D03*
X183000000Y-85200000D03*
X182000000Y-85200000D03*
X181000000Y-87950000D03*
X181000000Y-86700000D03*
X183000000Y-87950000D03*
X183000000Y-86700000D03*
X182000000Y-86700000D03*
X182000000Y-87950000D03*
D20*
X182000000Y-68600000D03*
D21*
X182000000Y-70600000D03*
D22*
X181000000Y-68500000D03*
X183000000Y-68500000D03*
X182000000Y-68500000D03*
X181000000Y-71250000D03*
X181000000Y-70000000D03*
X183000000Y-71250000D03*
X183000000Y-70000000D03*
X182000000Y-70000000D03*
X182000000Y-71250000D03*
D20*
X191500000Y-79699990D03*
D21*
X191500000Y-81699990D03*
D22*
X190500000Y-79599990D03*
X192500000Y-79599990D03*
X191500000Y-79599990D03*
X190500000Y-82349990D03*
X190500000Y-81099990D03*
X192500000Y-82349990D03*
X192500000Y-81099990D03*
X191500000Y-81099990D03*
X191500000Y-82349990D03*
D20*
X201000000Y-85800000D03*
D21*
X201000000Y-87800000D03*
D22*
X200000000Y-85700000D03*
X202000000Y-85700000D03*
X201000000Y-85700000D03*
X200000000Y-88450000D03*
X200000000Y-87200000D03*
X202000000Y-88450000D03*
X202000000Y-87200000D03*
X201000000Y-87200000D03*
X201000000Y-88450000D03*
D20*
X182000000Y-53900000D03*
D21*
X182000000Y-55900000D03*
D22*
X181000000Y-53800000D03*
X183000000Y-53800000D03*
X182000000Y-53800000D03*
X181000000Y-56550000D03*
X181000000Y-55300000D03*
X183000000Y-56550000D03*
X183000000Y-55300000D03*
X182000000Y-55300000D03*
X182000000Y-56550000D03*
D20*
X172500000Y-104350000D03*
D21*
X172500000Y-106350000D03*
D22*
X171500000Y-104250000D03*
X173500000Y-104250000D03*
X172500000Y-104250000D03*
X171500000Y-107000000D03*
X171500000Y-105750000D03*
X173500000Y-107000000D03*
X173500000Y-105750000D03*
X172500000Y-105750000D03*
X172500000Y-107000000D03*
D20*
X172500000Y-98200000D03*
D21*
X172500000Y-100200000D03*
D22*
X171500000Y-98100000D03*
X173500000Y-98100000D03*
X172500000Y-98100000D03*
X171500000Y-100850000D03*
X171500000Y-99600000D03*
X173500000Y-100850000D03*
X173500000Y-99600000D03*
X172500000Y-99600000D03*
X172500000Y-100850000D03*
D20*
X172500000Y-92050000D03*
D21*
X172500000Y-94050000D03*
D22*
X171500000Y-91950000D03*
X173500000Y-91950000D03*
X172500000Y-91950000D03*
X171500000Y-94700000D03*
X171500000Y-93450000D03*
X173500000Y-94700000D03*
X173500000Y-93450000D03*
X172500000Y-93450000D03*
X172500000Y-94700000D03*
D20*
X172500000Y-85900000D03*
D21*
X172500000Y-87900000D03*
D22*
X171500000Y-85800000D03*
X173500000Y-85800000D03*
X172500000Y-85800000D03*
X171500000Y-88550000D03*
X171500000Y-87300000D03*
X173500000Y-88550000D03*
X173500000Y-87300000D03*
X172500000Y-87300000D03*
X172500000Y-88550000D03*
D20*
X172500000Y-79750000D03*
D21*
X172500000Y-81750000D03*
D22*
X171500000Y-79650000D03*
X173500000Y-79650000D03*
X172500000Y-79650000D03*
X171500000Y-82400000D03*
X171500000Y-81150000D03*
X173500000Y-82400000D03*
X173500000Y-81150000D03*
X172500000Y-81150000D03*
X172500000Y-82400000D03*
D20*
X172500000Y-73600000D03*
D21*
X172500000Y-75600000D03*
D22*
X171500000Y-73500000D03*
X173500000Y-73500000D03*
X172500000Y-73500000D03*
X171500000Y-76250000D03*
X171500000Y-75000000D03*
X173500000Y-76250000D03*
X173500000Y-75000000D03*
X172500000Y-75000000D03*
X172500000Y-76250000D03*
D20*
X172500000Y-67450000D03*
D21*
X172500000Y-69450000D03*
D22*
X171500000Y-67350000D03*
X173500000Y-67350000D03*
X172500000Y-67350000D03*
X171500000Y-70100000D03*
X171500000Y-68850000D03*
X173500000Y-70100000D03*
X173500000Y-68850000D03*
X172500000Y-68850000D03*
X172500000Y-70100000D03*
D20*
X172500000Y-61300000D03*
D21*
X172500000Y-63300000D03*
D22*
X171500000Y-61200000D03*
X173500000Y-61200000D03*
X172500000Y-61200000D03*
X171500000Y-63950000D03*
X171500000Y-62700000D03*
X173500000Y-63950000D03*
X173500000Y-62700000D03*
X172500000Y-62700000D03*
X172500000Y-63950000D03*
D20*
X172500000Y-55150000D03*
D21*
X172500000Y-57150000D03*
D22*
X171500000Y-55050000D03*
X173500000Y-55050000D03*
X172500000Y-55050000D03*
X171500000Y-57800000D03*
X171500000Y-56550000D03*
X173500000Y-57800000D03*
X173500000Y-56550000D03*
X172500000Y-56550000D03*
X172500000Y-57800000D03*
D20*
X182000000Y-63700000D03*
D21*
X182000000Y-65700000D03*
D22*
X181000000Y-63600000D03*
X183000000Y-63600000D03*
X182000000Y-63600000D03*
X181000000Y-66350000D03*
X181000000Y-65100000D03*
X183000000Y-66350000D03*
X183000000Y-65100000D03*
X182000000Y-65100000D03*
X182000000Y-66350000D03*
D20*
X201000000Y-98150000D03*
D21*
X201000000Y-100150000D03*
D22*
X200000000Y-98050000D03*
X202000000Y-98050000D03*
X201000000Y-98050000D03*
X200000000Y-100800000D03*
X200000000Y-99550000D03*
X202000000Y-100800000D03*
X202000000Y-99550000D03*
X201000000Y-99550000D03*
X201000000Y-100800000D03*
D20*
X201000000Y-104350000D03*
D21*
X201000000Y-106350000D03*
D22*
X200000000Y-104250000D03*
X202000000Y-104250000D03*
X201000000Y-104250000D03*
X200000000Y-107000000D03*
X200000000Y-105750000D03*
X202000000Y-107000000D03*
X202000000Y-105750000D03*
X201000000Y-105750000D03*
X201000000Y-107000000D03*
D20*
X163000000Y-104399995D03*
D21*
X163000000Y-106399995D03*
D22*
X162000000Y-104299995D03*
X164000000Y-104299995D03*
X163000000Y-104299995D03*
X162000000Y-107049995D03*
X162000000Y-105799995D03*
X164000000Y-107049995D03*
X164000000Y-105799995D03*
X163000000Y-105799995D03*
X163000000Y-107049995D03*
D20*
X163000000Y-98244440D03*
D21*
X163000000Y-100244440D03*
D22*
X162000000Y-98144440D03*
X164000000Y-98144440D03*
X163000000Y-98144440D03*
X162000000Y-100894440D03*
X162000000Y-99644440D03*
X164000000Y-100894440D03*
X164000000Y-99644440D03*
X163000000Y-99644440D03*
X163000000Y-100894440D03*
D20*
X163000000Y-92088885D03*
D21*
X163000000Y-94088885D03*
D22*
X162000000Y-91988885D03*
X164000000Y-91988885D03*
X163000000Y-91988885D03*
X162000000Y-94738885D03*
X162000000Y-93488885D03*
X164000000Y-94738885D03*
X164000000Y-93488885D03*
X163000000Y-93488885D03*
X163000000Y-94738885D03*
D20*
X163000000Y-85933330D03*
D21*
X163000000Y-87933330D03*
D22*
X162000000Y-85833330D03*
X164000000Y-85833330D03*
X163000000Y-85833330D03*
X162000000Y-88583330D03*
X162000000Y-87333330D03*
X164000000Y-88583330D03*
X164000000Y-87333330D03*
X163000000Y-87333330D03*
X163000000Y-88583330D03*
D20*
X163000000Y-79777775D03*
D21*
X163000000Y-81777775D03*
D22*
X162000000Y-79677775D03*
X164000000Y-79677775D03*
X163000000Y-79677775D03*
X162000000Y-82427775D03*
X162000000Y-81177775D03*
X164000000Y-82427775D03*
X164000000Y-81177775D03*
X163000000Y-81177775D03*
X163000000Y-82427775D03*
D20*
X163000000Y-73622220D03*
D21*
X163000000Y-75622220D03*
D22*
X162000000Y-73522220D03*
X164000000Y-73522220D03*
X163000000Y-73522220D03*
X162000000Y-76272220D03*
X162000000Y-75022220D03*
X164000000Y-76272220D03*
X164000000Y-75022220D03*
X163000000Y-75022220D03*
X163000000Y-76272220D03*
D20*
X163000000Y-67466665D03*
D21*
X163000000Y-69466665D03*
D22*
X162000000Y-67366665D03*
X164000000Y-67366665D03*
X163000000Y-67366665D03*
X162000000Y-70116665D03*
X162000000Y-68866665D03*
X164000000Y-70116665D03*
X164000000Y-68866665D03*
X163000000Y-68866665D03*
X163000000Y-70116665D03*
D20*
X163000000Y-61311110D03*
D21*
X163000000Y-63311110D03*
D22*
X162000000Y-61211110D03*
X164000000Y-61211110D03*
X163000000Y-61211110D03*
X162000000Y-63961110D03*
X162000000Y-62711110D03*
X164000000Y-63961110D03*
X164000000Y-62711110D03*
X163000000Y-62711110D03*
X163000000Y-63961110D03*
M02*
