M48
;DRILL file {KiCad no-vcs-found-01f5a12~58~ubuntu14.04.1} date Thu May  4 16:20:50 2017
;FORMAT={2:4/ absolute / inch / suppress leading zeros}
FMAT,2
INCH,TZ
T1C0.012
T2C0.032
T3C0.040
T4C0.126
%
G90
G05
M72
T1
X34929Y-31161
X34937Y-31969
X35469Y-31165
X35476Y-31976
X63780Y-19252
X63780Y-19843
X63780Y-20335
X63780Y-21675
X63780Y-22266
X63780Y-22758
X63780Y-24099
X63780Y-24689
X63780Y-25182
X63780Y-26522
X63780Y-27113
X63780Y-27605
X63780Y-28946
X63780Y-29536
X63780Y-30028
X63780Y-31369
X63780Y-31960
X63780Y-32452
X63780Y-33793
X63780Y-34383
X63780Y-34875
X63780Y-36216
X63780Y-36807
X63780Y-37299
X63780Y-38640
X63780Y-39230
X63780Y-39722
X63780Y-41063
X63780Y-41654
X63780Y-42146
X64173Y-19252
X64173Y-19843
X64173Y-20335
X64173Y-21675
X64173Y-22266
X64173Y-22758
X64173Y-24099
X64173Y-24689
X64173Y-25182
X64173Y-26522
X64173Y-27113
X64173Y-27605
X64173Y-28946
X64173Y-29536
X64173Y-30028
X64173Y-31369
X64173Y-31960
X64173Y-32452
X64173Y-33793
X64173Y-34383
X64173Y-34875
X64173Y-36216
X64173Y-36807
X64173Y-37299
X64173Y-38640
X64173Y-39230
X64173Y-39722
X64173Y-41063
X64173Y-41654
X64173Y-42146
X64567Y-19252
X64567Y-19843
X64567Y-20335
X64567Y-21675
X64567Y-22266
X64567Y-22758
X64567Y-24099
X64567Y-24689
X64567Y-25182
X64567Y-26522
X64567Y-27113
X64567Y-27605
X64567Y-28946
X64567Y-29536
X64567Y-30028
X64567Y-31369
X64567Y-31960
X64567Y-32452
X64567Y-33793
X64567Y-34383
X64567Y-34875
X64567Y-36216
X64567Y-36807
X64567Y-37299
X64567Y-38640
X64567Y-39230
X64567Y-39722
X64567Y-41063
X64567Y-41654
X64567Y-42146
X67520Y-19252
X67520Y-19843
X67520Y-20335
X67520Y-21673
X67520Y-22264
X67520Y-22756
X67520Y-24094
X67520Y-24685
X67520Y-25177
X67520Y-26516
X67520Y-27106
X67520Y-27598
X67520Y-28937
X67520Y-29528
X67520Y-30020
X67520Y-31358
X67520Y-31949
X67520Y-32441
X67520Y-33780
X67520Y-34370
X67520Y-34862
X67520Y-36201
X67520Y-36791
X67520Y-37283
X67520Y-38622
X67520Y-39213
X67520Y-39705
X67520Y-41043
X67520Y-41634
X67520Y-42126
X67913Y-19252
X67913Y-19843
X67913Y-20335
X67913Y-21673
X67913Y-22264
X67913Y-22756
X67913Y-24094
X67913Y-24685
X67913Y-25177
X67913Y-26516
X67913Y-27106
X67913Y-27598
X67913Y-28937
X67913Y-29528
X67913Y-30020
X67913Y-31358
X67913Y-31949
X67913Y-32441
X67913Y-33780
X67913Y-34370
X67913Y-34862
X67913Y-36201
X67913Y-36791
X67913Y-37283
X67913Y-38622
X67913Y-39213
X67913Y-39705
X67913Y-41043
X67913Y-41634
X67913Y-42126
X68307Y-19252
X68307Y-19843
X68307Y-20335
X68307Y-21673
X68307Y-22264
X68307Y-22756
X68307Y-24094
X68307Y-24685
X68307Y-25177
X68307Y-26516
X68307Y-27106
X68307Y-27598
X68307Y-28937
X68307Y-29528
X68307Y-30020
X68307Y-31358
X68307Y-31949
X68307Y-32441
X68307Y-33780
X68307Y-34370
X68307Y-34862
X68307Y-36201
X68307Y-36791
X68307Y-37283
X68307Y-38622
X68307Y-39213
X68307Y-39705
X68307Y-41043
X68307Y-41634
X68307Y-42126
X71260Y-19252
X71260Y-19843
X71260Y-20335
X71260Y-21181
X71260Y-21772
X71260Y-22264
X71260Y-23110
X71260Y-23701
X71260Y-24193
X71260Y-25039
X71260Y-25630
X71260Y-26122
X71260Y-26969
X71260Y-27559
X71260Y-28051
X71260Y-33543
X71260Y-34134
X71260Y-34626
X71260Y-35418
X71260Y-36009
X71260Y-36501
X71260Y-37293
X71260Y-37884
X71260Y-38376
X71260Y-39168
X71260Y-39759
X71260Y-40251
X71260Y-41043
X71260Y-41634
X71260Y-42126
X71654Y-19252
X71654Y-19843
X71654Y-20335
X71654Y-21181
X71654Y-21772
X71654Y-22264
X71654Y-23110
X71654Y-23701
X71654Y-24193
X71654Y-25039
X71654Y-25630
X71654Y-26122
X71654Y-26969
X71654Y-27559
X71654Y-28051
X71654Y-33543
X71654Y-34134
X71654Y-34626
X71654Y-35418
X71654Y-36009
X71654Y-36501
X71654Y-37293
X71654Y-37884
X71654Y-38376
X71654Y-39168
X71654Y-39759
X71654Y-40251
X71654Y-41043
X71654Y-41634
X71654Y-42126
X72047Y-19252
X72047Y-19843
X72047Y-20335
X72047Y-21181
X72047Y-21772
X72047Y-22264
X72047Y-23110
X72047Y-23701
X72047Y-24193
X72047Y-25039
X72047Y-25630
X72047Y-26122
X72047Y-26969
X72047Y-27559
X72047Y-28051
X72047Y-33543
X72047Y-34134
X72047Y-34626
X72047Y-35418
X72047Y-36009
X72047Y-36501
X72047Y-37293
X72047Y-37884
X72047Y-38376
X72047Y-39168
X72047Y-39759
X72047Y-40251
X72047Y-41043
X72047Y-41634
X72047Y-42126
X74921Y-19232
X74921Y-19823
X74921Y-20315
X75000Y-21654
X75000Y-22244
X75000Y-22736
X75000Y-24075
X75000Y-24665
X75000Y-25157
X75000Y-26496
X75000Y-27087
X75000Y-27579
X75000Y-28917
X75000Y-29508
X75000Y-30000
X75000Y-31339
X75000Y-31929
X75000Y-32421
X75000Y-33760
X75000Y-34350
X75000Y-34843
X75000Y-36181
X75000Y-36772
X75000Y-37264
X75000Y-38602
X75000Y-39193
X75000Y-39685
X75000Y-41024
X75000Y-41614
X75000Y-42106
X75315Y-19232
X75315Y-19823
X75315Y-20315
X75394Y-21654
X75394Y-22244
X75394Y-22736
X75394Y-24075
X75394Y-24665
X75394Y-25157
X75394Y-26496
X75394Y-27087
X75394Y-27579
X75394Y-28917
X75394Y-29508
X75394Y-30000
X75394Y-31339
X75394Y-31929
X75394Y-32421
X75394Y-33760
X75394Y-34350
X75394Y-34843
X75394Y-36181
X75394Y-36772
X75394Y-37264
X75394Y-38602
X75394Y-39193
X75394Y-39685
X75394Y-41024
X75394Y-41614
X75394Y-42106
X75709Y-19232
X75709Y-19823
X75709Y-20315
X75787Y-21654
X75787Y-22244
X75787Y-22736
X75787Y-24075
X75787Y-24665
X75787Y-25157
X75787Y-26496
X75787Y-27087
X75787Y-27579
X75787Y-28917
X75787Y-29508
X75787Y-30000
X75787Y-31339
X75787Y-31929
X75787Y-32421
X75787Y-33760
X75787Y-34350
X75787Y-34843
X75787Y-36181
X75787Y-36772
X75787Y-37264
X75787Y-38602
X75787Y-39193
X75787Y-39685
X75787Y-41024
X75787Y-41614
X75787Y-42106
X78740Y-19252
X78740Y-19843
X78740Y-20335
X78740Y-21673
X78740Y-22264
X78740Y-22756
X78740Y-24094
X78740Y-24685
X78740Y-25177
X78740Y-26496
X78740Y-27087
X78740Y-27579
X78740Y-28937
X78740Y-29528
X78740Y-30020
X78740Y-31358
X78740Y-31949
X78740Y-32441
X78740Y-33740
X78740Y-34331
X78740Y-34823
X78740Y-36181
X78740Y-36772
X78740Y-37264
X78740Y-38602
X78740Y-39193
X78740Y-39685
X78740Y-41043
X78740Y-41634
X78740Y-42126
X79134Y-19252
X79134Y-19843
X79134Y-20335
X79134Y-21673
X79134Y-22264
X79134Y-22756
X79134Y-24094
X79134Y-24685
X79134Y-25177
X79134Y-26496
X79134Y-27087
X79134Y-27579
X79134Y-28937
X79134Y-29528
X79134Y-30020
X79134Y-31358
X79134Y-31949
X79134Y-32441
X79134Y-33740
X79134Y-34331
X79134Y-34823
X79134Y-36181
X79134Y-36772
X79134Y-37264
X79134Y-38602
X79134Y-39193
X79134Y-39685
X79134Y-41043
X79134Y-41634
X79134Y-42126
X79528Y-19252
X79528Y-19843
X79528Y-20335
X79528Y-21673
X79528Y-22264
X79528Y-22756
X79528Y-24094
X79528Y-24685
X79528Y-25177
X79528Y-26496
X79528Y-27087
X79528Y-27579
X79528Y-28937
X79528Y-29528
X79528Y-30020
X79528Y-31358
X79528Y-31949
X79528Y-32441
X79528Y-33740
X79528Y-34331
X79528Y-34823
X79528Y-36181
X79528Y-36772
X79528Y-37264
X79528Y-38602
X79528Y-39193
X79528Y-39685
X79528Y-41043
X79528Y-41634
X79528Y-42126
T2
X52846Y-38132
X52846Y-41732
X56446Y-38132
X56446Y-41732
T4
X50236Y-20157
X50236Y-41260
X81575Y-20157
X81575Y-41181
T3
X54693Y-22689G85X54693Y-23287
G05
X56992Y-22087G85X56394Y-22087
G05
X56992Y-24488G85X56394Y-24488
G05
T0
M30
